%
M48
M72
T01C0.00984
T02C0.01575
T03C0.02362
T04C0.02400
T05C0.02756
T06C0.03600
T07C0.03898
T08C0.05118
T09C0.09000
T10C0.12000
%
T01
X111835Y80112
X131717Y73813
X155733Y79915
X155929Y84049
X163016Y84049
X169118Y81490
X166756Y76766
X143134Y103931
X129355Y111608
X130339Y125585
X157701Y129719
X156520Y114364
X172859Y107081
X200811Y106687
X206914Y110427
X284276Y105703
X284473Y99994
X286638Y91530
X52780Y125585
X52780Y143301
X52780Y150978
X51992Y154325
T02
X57898Y163774
X75024Y163774
X190378Y119285
X216953Y119089
X237426Y123026
X300221Y102356
T03
X63134Y119285
X63134Y164955
T04
X291680Y94700
X307580Y110800
T05
X184335Y70368
X179335Y70368
X174335Y70368
X169335Y70368
X164335Y70368
X159335Y70368
X154335Y70368
X149335Y70368
X144335Y70368
X139335Y70368
X139335Y65368
X144335Y65368
X149335Y65368
X154335Y65368
X159335Y65368
X164335Y65368
X169335Y65368
X174335Y65368
X179335Y65368
X184335Y65368
X119079Y65467
X114079Y65467
X109079Y65467
X104079Y65467
X99079Y65467
X99079Y70467
X104079Y70467
X109079Y70467
X114079Y70467
X119079Y70467
T06
X284473Y154399
X294315Y154399
X294315Y162199
X284473Y162199
T07
X22777Y12550
X40493Y12550
T08
X45416Y22353
X17853Y22353
T09
X265694Y172899
X313094Y172899
T10
X52347Y188577
X52347Y95663
M30
