G75*
%MOIN*%
%OFA0B0*%
%FSLAX25Y25*%
%IPPOS*%
%LPD*%
%AMOC8*
5,1,8,0,0,1.08239X$1,22.5*
%
%ADD10R,0.07087X0.03150*%
%ADD11R,0.10236X0.01181*%
%ADD12R,0.08661X0.02362*%
%ADD13R,0.03937X0.05512*%
%ADD14R,0.02992X0.08661*%
%ADD15C,0.05846*%
%ADD16C,0.03937*%
%ADD17C,0.06600*%
%ADD18C,0.13500*%
%ADD19C,0.01575*%
%ADD20C,0.03150*%
%ADD21C,0.01000*%
%ADD22C,0.00787*%
%ADD23C,0.02559*%
D10*
X0069040Y0116530D03*
X0069040Y0167711D03*
D11*
X0078095Y0160821D03*
X0078095Y0158852D03*
X0078095Y0156884D03*
X0078095Y0154915D03*
X0078095Y0152947D03*
X0078095Y0150978D03*
X0078095Y0149010D03*
X0078095Y0147041D03*
X0078095Y0145073D03*
X0078095Y0143104D03*
X0078095Y0141136D03*
X0078095Y0139167D03*
X0078095Y0137199D03*
X0078095Y0135230D03*
X0078095Y0133262D03*
X0078095Y0131293D03*
X0078095Y0129325D03*
X0078095Y0127356D03*
X0078095Y0125388D03*
X0078095Y0123419D03*
X0059985Y0123419D03*
X0059985Y0125388D03*
X0059985Y0127356D03*
X0059985Y0129325D03*
X0059985Y0131293D03*
X0059985Y0133262D03*
X0059985Y0135230D03*
X0059985Y0137199D03*
X0059985Y0139167D03*
X0059985Y0141136D03*
X0059985Y0143104D03*
X0059985Y0145073D03*
X0059985Y0147041D03*
X0059985Y0149010D03*
X0059985Y0150978D03*
X0059985Y0152947D03*
X0059985Y0154915D03*
X0059985Y0156884D03*
X0059985Y0158852D03*
X0059985Y0160821D03*
D12*
X0257544Y0107907D03*
X0257544Y0102907D03*
X0257544Y0097907D03*
X0257544Y0092907D03*
X0257544Y0087907D03*
X0257544Y0082907D03*
X0257544Y0077907D03*
X0278016Y0077907D03*
X0278016Y0082907D03*
X0278016Y0087907D03*
X0278016Y0092907D03*
X0278016Y0097907D03*
X0278016Y0102907D03*
X0278016Y0107907D03*
D13*
X0244197Y0107632D03*
X0236323Y0107632D03*
X0236284Y0098026D03*
X0244158Y0098026D03*
X0244158Y0089600D03*
X0236284Y0089600D03*
D14*
X0181835Y0077652D03*
X0176835Y0077652D03*
X0171835Y0077652D03*
X0166835Y0077652D03*
X0161835Y0077652D03*
X0156835Y0077652D03*
X0151835Y0077652D03*
X0146835Y0077652D03*
X0141835Y0077652D03*
X0136835Y0077652D03*
X0136835Y0063085D03*
X0141835Y0063085D03*
X0146835Y0063085D03*
X0151835Y0063085D03*
X0156835Y0063085D03*
X0161835Y0063085D03*
X0166835Y0063085D03*
X0171835Y0063085D03*
X0176835Y0063085D03*
X0181835Y0063085D03*
D15*
X0022777Y0012550D03*
X0040493Y0012550D03*
D16*
X0309079Y0012593D03*
X0226796Y0194482D03*
X0013803Y0192514D03*
D17*
X0284473Y0162199D03*
X0294315Y0162199D03*
X0294315Y0154399D03*
X0284473Y0154399D03*
D18*
X0265694Y0172899D03*
X0313094Y0172899D03*
D19*
X0241166Y0119285D02*
X0237426Y0123026D01*
X0241166Y0119285D02*
X0241166Y0112593D01*
X0241559Y0112002D01*
X0237229Y0107671D01*
X0236323Y0107632D01*
X0236441Y0107474D01*
X0236441Y0098616D01*
X0236284Y0098026D01*
X0236441Y0098026D01*
X0236441Y0089758D01*
X0236284Y0089600D01*
X0252386Y0108065D02*
X0248449Y0112002D01*
X0241559Y0112002D01*
X0252386Y0108065D02*
X0257504Y0108065D01*
X0257544Y0107907D01*
X0216953Y0119482D02*
X0190378Y0119482D01*
X0149237Y0070860D02*
X0149237Y0069679D01*
X0149630Y0069089D01*
X0163607Y0069089D01*
X0164099Y0068596D01*
X0161835Y0066333D01*
X0161835Y0063183D01*
X0161835Y0063085D01*
X0164099Y0068596D02*
X0164591Y0069089D01*
X0168922Y0069089D01*
X0171677Y0066333D01*
X0171677Y0063183D01*
X0171835Y0063085D01*
X0172662Y0062986D01*
X0176796Y0062986D01*
X0176835Y0063085D01*
X0181835Y0063085D02*
X0181914Y0063183D01*
X0185851Y0067120D01*
X0186441Y0067514D01*
X0254945Y0067514D01*
X0264985Y0077553D01*
X0277386Y0077553D01*
X0278016Y0077907D01*
X0278174Y0077947D01*
X0280929Y0077947D01*
X0300221Y0097238D01*
X0300221Y0102356D01*
X0149630Y0069089D02*
X0146874Y0066333D01*
X0146874Y0063970D01*
X0146835Y0063085D01*
X0146677Y0063183D01*
X0142544Y0063183D01*
X0141835Y0063085D01*
X0141756Y0063183D01*
X0136835Y0063183D01*
X0136835Y0063085D01*
X0078095Y0160821D02*
X0077977Y0160821D01*
X0075024Y0163774D01*
X0059866Y0161805D02*
X0059866Y0160821D01*
X0059985Y0160821D01*
X0059866Y0161805D02*
X0057898Y0163774D01*
D20*
X0057898Y0163774D03*
X0075024Y0163774D03*
X0190378Y0119482D03*
X0216953Y0119482D03*
X0237426Y0123026D03*
X0300221Y0102356D03*
X0185851Y0067120D03*
X0149237Y0070860D03*
D21*
X0059985Y0123419D02*
X0059985Y0125388D01*
X0059985Y0158852D02*
X0059985Y0160821D01*
X0078095Y0160821D02*
X0078095Y0158852D01*
D22*
X0078095Y0156884D02*
X0078174Y0156884D01*
X0107504Y0156884D01*
X0159866Y0104522D01*
X0166756Y0097041D02*
X0181717Y0082081D01*
X0181717Y0077750D01*
X0181835Y0077652D01*
X0176835Y0077652D02*
X0176796Y0077750D01*
X0176796Y0083459D01*
X0105339Y0154915D01*
X0078174Y0154915D01*
X0078095Y0154915D01*
X0078095Y0152947D02*
X0078174Y0152947D01*
X0102189Y0152947D01*
X0165181Y0089955D01*
X0166756Y0089955D01*
X0167740Y0087396D02*
X0165378Y0087396D01*
X0101796Y0150978D01*
X0078174Y0150978D01*
X0078095Y0150978D01*
X0078095Y0149010D02*
X0078174Y0149010D01*
X0083685Y0149010D01*
X0135654Y0097041D01*
X0145496Y0097041D01*
X0161244Y0087986D02*
X0161244Y0083262D01*
X0161048Y0083262D01*
X0134866Y0083262D01*
X0064197Y0012593D01*
X0040575Y0012593D01*
X0040493Y0012550D01*
X0161244Y0078341D02*
X0161835Y0077750D01*
X0161835Y0077652D01*
X0161244Y0078341D02*
X0161244Y0083262D01*
X0166756Y0084837D02*
X0166756Y0077750D01*
X0166835Y0077652D01*
X0171677Y0077750D02*
X0171835Y0077652D01*
X0171677Y0077750D02*
X0171677Y0083459D01*
X0167740Y0087396D01*
X0184866Y0083065D02*
X0138213Y0129719D01*
X0133095Y0134837D02*
X0131914Y0134837D01*
X0096284Y0170467D01*
X0060654Y0170467D01*
X0050024Y0159837D01*
X0050024Y0153931D01*
X0052977Y0150978D01*
X0059866Y0150978D01*
X0059985Y0150978D01*
X0059985Y0149010D02*
X0059866Y0149010D01*
X0052583Y0149010D01*
X0048449Y0153144D01*
X0048449Y0160624D01*
X0059866Y0172041D01*
X0110063Y0172041D01*
X0157111Y0124994D01*
X0157111Y0121451D01*
X0162229Y0129128D02*
X0162229Y0130506D01*
X0119118Y0173616D01*
X0059079Y0173616D01*
X0046874Y0161411D01*
X0046874Y0152356D01*
X0052189Y0147041D01*
X0059866Y0147041D01*
X0059985Y0147041D01*
X0059985Y0145073D02*
X0059866Y0145073D01*
X0054551Y0145073D01*
X0052780Y0143301D01*
X0052780Y0138577D01*
X0045300Y0133656D02*
X0051796Y0127159D01*
X0059670Y0127159D01*
X0059866Y0127356D01*
X0059985Y0127356D01*
X0059985Y0129325D02*
X0059866Y0129325D01*
X0054551Y0129325D01*
X0054158Y0129719D01*
X0052780Y0129719D01*
X0045300Y0133656D02*
X0045300Y0162199D01*
X0058292Y0175191D01*
X0119906Y0175191D01*
X0209670Y0085427D01*
X0262229Y0085427D01*
X0263213Y0084443D01*
X0263213Y0081293D01*
X0259866Y0077947D01*
X0257701Y0077947D01*
X0257544Y0077907D01*
X0257544Y0082907D02*
X0257504Y0083065D01*
X0184866Y0083065D01*
X0244158Y0089600D02*
X0244315Y0089758D01*
X0252189Y0089758D01*
X0255339Y0092907D01*
X0257504Y0092907D01*
X0257544Y0092907D01*
X0257544Y0097907D02*
X0257504Y0098026D01*
X0244315Y0098026D01*
X0244158Y0098026D01*
X0250024Y0107474D02*
X0254551Y0102947D01*
X0257504Y0102947D01*
X0257544Y0102907D01*
X0250024Y0107474D02*
X0244315Y0107474D01*
X0244197Y0107632D01*
X0278016Y0107907D02*
X0278174Y0107868D01*
X0280339Y0105703D01*
X0284276Y0105703D01*
X0280536Y0102750D02*
X0278174Y0102750D01*
X0278016Y0102907D01*
X0280536Y0102750D02*
X0283292Y0099994D01*
X0284473Y0099994D01*
X0280339Y0097829D02*
X0278174Y0097829D01*
X0278016Y0097907D01*
X0280339Y0097829D02*
X0286638Y0091530D01*
X0059985Y0156884D02*
X0059866Y0156884D01*
X0054551Y0156884D01*
X0052583Y0154915D01*
D23*
X0052583Y0154915D03*
X0052780Y0138577D03*
X0052780Y0129719D03*
X0133095Y0134837D03*
X0138213Y0129719D03*
X0157111Y0121451D03*
X0162229Y0129128D03*
X0159866Y0104522D03*
X0166756Y0097041D03*
X0166756Y0089955D03*
X0161244Y0087986D03*
X0166756Y0084837D03*
X0145496Y0097041D03*
X0284473Y0099994D03*
X0284276Y0105703D03*
X0286638Y0091530D03*
M02*
