G75*
%MOIN*%
%OFA0B0*%
%FSLAX25Y25*%
%IPPOS*%
%LPD*%
%AMOC8*
5,1,8,0,0,1.08239X$1,22.5*
%
%ADD10C,0.00600*%
%ADD11R,0.05118X0.09843*%
%ADD12C,0.05898*%
%ADD13R,0.05512X0.03937*%
%ADD14R,0.04724X0.03543*%
%ADD15C,0.03937*%
%ADD16R,0.06299X0.03937*%
%ADD17R,0.05906X0.01575*%
%ADD18C,0.06600*%
%ADD19C,0.13000*%
%ADD20R,0.01969X0.02362*%
%ADD21R,0.03150X0.03937*%
%ADD22R,0.02362X0.01969*%
%ADD23R,0.10630X0.06299*%
%ADD24C,0.01575*%
%ADD25C,0.03175*%
%ADD26C,0.00700*%
%ADD27C,0.03000*%
D10*
X0081473Y0192026D02*
X0080639Y0192860D01*
X0080639Y0196197D01*
X0081473Y0197031D01*
X0083141Y0197031D01*
X0083975Y0196197D01*
X0083975Y0194529D02*
X0082307Y0194529D01*
X0083975Y0194529D02*
X0083975Y0192860D01*
X0083141Y0192026D01*
X0081473Y0192026D01*
X0085795Y0192026D02*
X0085795Y0195363D01*
X0087463Y0197031D01*
X0089131Y0195363D01*
X0089131Y0192026D01*
X0089131Y0194529D02*
X0085795Y0194529D01*
X0090952Y0197031D02*
X0094288Y0197031D01*
X0092620Y0197031D02*
X0092620Y0192026D01*
X0096108Y0192026D02*
X0099444Y0192026D01*
X0101264Y0192026D02*
X0102933Y0193694D01*
X0104601Y0192026D01*
X0104601Y0197031D01*
X0106421Y0197031D02*
X0106421Y0196197D01*
X0108089Y0194529D01*
X0108089Y0192026D01*
X0108089Y0194529D02*
X0109757Y0196197D01*
X0109757Y0197031D01*
X0111577Y0192860D02*
X0112411Y0192860D01*
X0112411Y0192026D01*
X0111577Y0192026D01*
X0111577Y0192860D01*
X0114155Y0195363D02*
X0115824Y0192026D01*
X0117492Y0195363D01*
X0119312Y0195363D02*
X0120980Y0197031D01*
X0120980Y0192026D01*
X0119312Y0192026D02*
X0122648Y0192026D01*
X0124468Y0192026D02*
X0125302Y0192026D01*
X0125302Y0192860D01*
X0124468Y0192860D01*
X0124468Y0192026D01*
X0127046Y0192860D02*
X0130383Y0196197D01*
X0130383Y0192860D01*
X0129549Y0192026D01*
X0127881Y0192026D01*
X0127046Y0192860D01*
X0127046Y0196197D01*
X0127881Y0197031D01*
X0129549Y0197031D01*
X0130383Y0196197D01*
X0101264Y0197031D02*
X0101264Y0192026D01*
X0097776Y0194529D02*
X0096108Y0194529D01*
X0096108Y0197031D02*
X0096108Y0192026D01*
X0096108Y0197031D02*
X0099444Y0197031D01*
D11*
X0032898Y0120900D03*
X0015181Y0120900D03*
X0015181Y0084600D03*
X0032898Y0084600D03*
D12*
X0022777Y0012550D03*
X0040493Y0012550D03*
D13*
X0044906Y0074404D03*
X0044906Y0082278D03*
X0241756Y0119285D03*
X0241756Y0127159D03*
D14*
X0294118Y0105604D03*
X0294118Y0099896D03*
X0305142Y0099896D03*
X0305142Y0105604D03*
D15*
X0226796Y0194482D03*
X0013803Y0192514D03*
X0309079Y0012593D03*
D16*
X0021874Y0158852D03*
X0012819Y0165742D03*
X0021874Y0172632D03*
D17*
X0167248Y0139856D03*
X0167248Y0137297D03*
X0167248Y0134738D03*
X0167248Y0132179D03*
X0167248Y0129620D03*
X0167248Y0127061D03*
X0167248Y0124502D03*
X0167248Y0121943D03*
X0167248Y0119384D03*
X0167248Y0116825D03*
X0167248Y0114266D03*
X0167248Y0111707D03*
X0167248Y0109148D03*
X0167248Y0106589D03*
X0195792Y0106589D03*
X0195792Y0109148D03*
X0195792Y0111707D03*
X0195792Y0114266D03*
X0195792Y0116825D03*
X0195792Y0119384D03*
X0195792Y0121943D03*
X0195792Y0124502D03*
X0195792Y0127061D03*
X0195792Y0129620D03*
X0195792Y0132179D03*
X0195792Y0134738D03*
X0195792Y0137297D03*
X0195792Y0139856D03*
D18*
X0284473Y0154399D03*
X0294315Y0154399D03*
X0294315Y0162199D03*
X0284473Y0162199D03*
D19*
X0265694Y0172899D03*
X0313094Y0172899D03*
D20*
X0209866Y0107081D03*
X0205929Y0107081D03*
X0206323Y0100388D03*
X0210260Y0100388D03*
X0153961Y0116923D03*
X0150024Y0116923D03*
X0150418Y0124404D03*
X0154355Y0124404D03*
D21*
X0252189Y0119285D03*
X0258095Y0119285D03*
D22*
X0229945Y0119285D03*
X0229945Y0123222D03*
X0220496Y0123222D03*
X0220496Y0119285D03*
D23*
X0272071Y0119285D03*
X0272071Y0130309D03*
D24*
X0272170Y0130703D01*
X0272170Y0142022D01*
X0284473Y0154325D01*
X0284473Y0154399D01*
X0284473Y0162199D02*
X0276599Y0162199D01*
X0242150Y0127750D01*
X0241756Y0127159D01*
X0241658Y0126766D01*
X0233292Y0126766D01*
X0230339Y0123813D01*
X0229945Y0123222D01*
X0229847Y0123321D01*
X0220496Y0123321D01*
X0220496Y0123222D01*
X0220004Y0122829D01*
X0215575Y0122829D01*
X0214099Y0121352D01*
X0213607Y0121845D01*
X0209177Y0121845D01*
X0209177Y0122337D01*
X0199335Y0132179D01*
X0196382Y0132179D01*
X0195792Y0132179D01*
X0195398Y0132179D01*
X0192445Y0132179D01*
X0184571Y0124305D01*
X0173252Y0124305D01*
X0173252Y0124797D01*
X0173252Y0142514D01*
X0152091Y0163675D01*
X0075319Y0163675D01*
X0074827Y0164167D01*
X0068429Y0164167D01*
X0064000Y0159738D01*
X0052681Y0159738D01*
X0052189Y0159246D01*
X0015772Y0122829D01*
X0015772Y0121352D01*
X0015181Y0120900D01*
X0015280Y0120860D01*
X0015280Y0084935D01*
X0015181Y0084600D01*
X0015772Y0088872D01*
X0035949Y0068695D01*
X0035949Y0028341D01*
X0023154Y0015545D01*
X0023154Y0012593D01*
X0022777Y0012550D01*
X0044906Y0074404D02*
X0044807Y0074600D01*
X0040870Y0078537D01*
X0040378Y0078537D01*
X0145693Y0112986D02*
X0149630Y0116923D01*
X0150024Y0116923D01*
X0150122Y0116923D01*
X0150122Y0124305D01*
X0150418Y0124404D01*
X0151107Y0124797D01*
X0151107Y0125782D01*
X0154059Y0128734D01*
X0154551Y0128242D01*
X0154059Y0128734D02*
X0157504Y0132179D01*
X0166855Y0132179D01*
X0167248Y0132179D01*
X0167248Y0124502D02*
X0167839Y0124305D01*
X0173252Y0124305D01*
X0167248Y0124502D02*
X0166855Y0124305D01*
X0155044Y0124305D01*
X0154355Y0124404D01*
X0154059Y0124305D01*
X0154059Y0116923D01*
X0153961Y0116923D01*
X0185063Y0104620D02*
X0185063Y0085919D01*
X0210260Y0100388D02*
X0210162Y0100683D01*
X0210162Y0107081D01*
X0209866Y0107081D01*
X0210654Y0107573D01*
X0210654Y0114463D01*
X0210162Y0114463D01*
X0195890Y0114463D01*
X0195792Y0114266D01*
X0195792Y0111707D02*
X0195398Y0111510D01*
X0191953Y0111510D01*
X0185063Y0104620D01*
X0190477Y0119384D02*
X0195398Y0119384D01*
X0195792Y0119384D01*
X0195890Y0121845D02*
X0195792Y0121943D01*
X0195890Y0121845D02*
X0209177Y0121845D01*
X0210654Y0117907D02*
X0214099Y0121352D01*
X0216559Y0119384D02*
X0220004Y0119384D01*
X0220496Y0119285D01*
X0220496Y0119384D01*
X0229847Y0119384D01*
X0229945Y0119285D01*
X0230339Y0119384D01*
X0241166Y0119384D01*
X0241756Y0119285D01*
X0242150Y0119384D01*
X0251992Y0119384D01*
X0252189Y0119285D01*
X0258095Y0119285D02*
X0258390Y0119384D01*
X0271677Y0119384D01*
X0272071Y0119285D01*
X0299237Y0100683D02*
X0304158Y0105604D01*
X0305142Y0105604D01*
X0210654Y0114463D02*
X0210654Y0117907D01*
X0195890Y0132179D02*
X0195792Y0132179D01*
X0195890Y0132179D02*
X0195890Y0134640D01*
X0195792Y0134738D01*
D25*
X0190477Y0119384D03*
X0216559Y0119384D03*
X0185063Y0085919D03*
X0145693Y0112986D03*
X0154551Y0128242D03*
X0074827Y0164167D03*
X0052189Y0159246D03*
X0040378Y0078537D03*
X0299237Y0100683D03*
D26*
X0302189Y0099699D02*
X0293331Y0090841D01*
X0287426Y0090841D01*
X0294118Y0099896D02*
X0293823Y0100191D01*
X0284473Y0100191D01*
X0284473Y0105604D02*
X0293823Y0105604D01*
X0294118Y0105604D01*
X0302189Y0099699D02*
X0305142Y0099699D01*
X0305142Y0099896D01*
X0289886Y0126766D02*
X0289886Y0157770D01*
X0294315Y0162199D01*
X0294315Y0154399D02*
X0294315Y0154325D01*
X0294315Y0128734D01*
X0261835Y0096254D01*
X0200811Y0096254D01*
X0191461Y0105604D01*
X0191461Y0107573D01*
X0192937Y0109049D01*
X0195398Y0109049D01*
X0195792Y0109148D01*
X0195890Y0109049D01*
X0198843Y0109049D01*
X0200811Y0107081D01*
X0205733Y0107081D01*
X0205929Y0107081D01*
X0206225Y0100683D02*
X0201796Y0100683D01*
X0195890Y0106589D01*
X0195792Y0106589D01*
X0206225Y0100683D02*
X0206323Y0100388D01*
X0206717Y0100191D01*
X0209177Y0097730D01*
X0260851Y0097730D01*
X0289886Y0126766D01*
X0195792Y0127061D02*
X0195398Y0126766D01*
X0192445Y0126766D01*
X0171284Y0105604D01*
X0171284Y0094778D01*
X0169807Y0093301D01*
X0166363Y0100191D02*
X0166363Y0085919D01*
X0166363Y0100191D02*
X0153075Y0113478D01*
X0159965Y0114463D02*
X0166855Y0114463D01*
X0167248Y0114266D01*
X0167248Y0129620D02*
X0167347Y0129719D01*
X0170300Y0129719D01*
X0171284Y0130703D01*
X0171284Y0141530D01*
X0161933Y0150880D01*
X0059571Y0150880D01*
X0052189Y0143498D01*
X0052189Y0139561D02*
X0059571Y0146943D01*
X0092051Y0146943D01*
X0098941Y0140053D01*
X0166855Y0140053D01*
X0167248Y0139856D01*
X0166855Y0135132D02*
X0167248Y0134738D01*
X0166855Y0135132D02*
X0101402Y0135132D01*
X0091067Y0145467D01*
X0062032Y0145467D01*
X0053174Y0136608D01*
X0051205Y0136608D01*
X0047760Y0140053D01*
X0043823Y0140053D02*
X0043823Y0089856D01*
X0048744Y0084935D01*
X0048744Y0032770D01*
X0040378Y0024404D01*
X0040378Y0012593D01*
X0040493Y0012550D01*
X0044906Y0082278D02*
X0044807Y0082474D01*
X0034965Y0082474D01*
X0032996Y0084443D01*
X0032898Y0084600D01*
X0032996Y0084935D01*
X0032996Y0120860D01*
X0032898Y0120900D01*
X0032996Y0121352D01*
X0032996Y0131687D01*
X0052189Y0150880D01*
X0052189Y0154325D01*
X0060555Y0156785D02*
X0043823Y0140053D01*
X0052189Y0133163D02*
X0054650Y0133163D01*
X0104847Y0082967D01*
X0192445Y0082967D01*
X0146185Y0132179D02*
X0100418Y0132179D01*
X0086146Y0156785D02*
X0060555Y0156785D01*
D27*
X0052189Y0154325D03*
X0052189Y0143498D03*
X0052189Y0139561D03*
X0047760Y0140053D03*
X0052189Y0133163D03*
X0086146Y0156785D03*
X0100418Y0132179D03*
X0146185Y0132179D03*
X0153075Y0113478D03*
X0159965Y0114463D03*
X0169807Y0093301D03*
X0166363Y0085919D03*
X0192445Y0082967D03*
X0284473Y0100191D03*
X0284473Y0105604D03*
X0287426Y0090841D03*
M02*
