%
M48
M72
T01C0.01400
T02C0.01575
T03C0.02362
T04C0.02400
T05C0.03600
T06C0.03898
T07C0.05118
T08C0.09000
T09C0.12000
%
T01
X166363Y85919
X169807Y93301
X192445Y82967
X159965Y114463
X153075Y113478
X146185Y132179
X100418Y132179
X86146Y156785
X52189Y154325
X52189Y143498
X52189Y139561
X47760Y140053
X52189Y133163
X284473Y105604
X284473Y100191
X287426Y90841
T02
X299237Y100683
X216559Y119384
X190477Y119384
X154551Y128242
X145693Y112986
X185063Y85919
X74827Y164167
X52189Y159246
X40378Y78537
T03
X63134Y119285
X63134Y164955
T04
X291680Y94700
X307580Y110800
T05
X294315Y154399
X284473Y154399
X284473Y162199
X294315Y162199
T06
X22777Y12550
X40493Y12550
T07
X45416Y22353
X17853Y22353
T08
X265694Y172899
X313094Y172899
T09
X52347Y188577
X52347Y95663
M30
