G75*
%MOIN*%
%OFA0B0*%
%FSLAX25Y25*%
%IPPOS*%
%LPD*%
%AMOC8*
5,1,8,0,0,1.08239X$1,22.5*
%
%ADD10C,0.00100*%
%ADD11R,0.01330X0.00070*%
%ADD12R,0.01820X0.00070*%
%ADD13R,0.01820X0.00070*%
%ADD14R,0.02310X0.00070*%
%ADD15R,0.02660X0.00070*%
%ADD16R,0.02940X0.00070*%
%ADD17R,0.02940X0.00070*%
%ADD18R,0.03290X0.00070*%
%ADD19R,0.03430X0.00070*%
%ADD20R,0.03710X0.00070*%
%ADD21R,0.03850X0.00070*%
%ADD22R,0.03920X0.00070*%
%ADD23R,0.04060X0.00070*%
%ADD24R,0.04270X0.00070*%
%ADD25R,0.04270X0.00070*%
%ADD26R,0.04410X0.00070*%
%ADD27R,0.04550X0.00070*%
%ADD28R,0.04690X0.00070*%
%ADD29R,0.04830X0.00070*%
%ADD30R,0.04970X0.00070*%
%ADD31R,0.04900X0.00070*%
%ADD32R,0.05110X0.00070*%
%ADD33R,0.05250X0.00070*%
%ADD34R,0.05180X0.00070*%
%ADD35R,0.05250X0.00070*%
%ADD36R,0.05320X0.00070*%
%ADD37R,0.05390X0.00070*%
%ADD38R,0.05530X0.00070*%
%ADD39R,0.05600X0.00070*%
%ADD40R,0.05670X0.00070*%
%ADD41R,0.05670X0.00070*%
%ADD42R,0.05740X0.00070*%
%ADD43R,0.05740X0.00070*%
%ADD44R,0.05810X0.00070*%
%ADD45R,0.05880X0.00070*%
%ADD46R,0.05950X0.00070*%
%ADD47R,0.06090X0.00070*%
%ADD48R,0.06090X0.00070*%
%ADD49R,0.06160X0.00070*%
%ADD50R,0.06230X0.00070*%
%ADD51R,0.06160X0.00070*%
%ADD52R,0.06230X0.00070*%
%ADD53R,0.06300X0.00070*%
%ADD54R,0.06370X0.00070*%
%ADD55R,0.06370X0.00070*%
%ADD56R,0.06440X0.00070*%
%ADD57R,0.06440X0.00070*%
%ADD58R,0.06510X0.00070*%
%ADD59R,0.06440X0.00070*%
%ADD60R,0.06510X0.00070*%
%ADD61R,0.06580X0.00070*%
%ADD62R,0.06580X0.00070*%
%ADD63R,0.06440X0.00070*%
%ADD64R,0.05670X0.00070*%
%ADD65R,0.05670X0.00070*%
%ADD66R,0.05460X0.00070*%
%ADD67R,0.03360X0.00070*%
%ADD68R,0.03220X0.00070*%
%ADD69R,0.03220X0.00070*%
%ADD70R,0.03010X0.00070*%
%ADD71R,0.02590X0.00070*%
%ADD72R,0.02240X0.00070*%
%ADD73R,0.01750X0.00070*%
%ADD74R,0.01120X0.00070*%
%ADD75R,0.01120X0.00070*%
%ADD76R,0.75600X0.00070*%
%ADD77R,0.75530X0.00070*%
%ADD78R,0.75530X0.00070*%
%ADD79R,0.75460X0.00070*%
%ADD80R,0.75390X0.00070*%
%ADD81R,0.75320X0.00070*%
%ADD82R,0.75250X0.00070*%
%ADD83R,0.75180X0.00070*%
%ADD84R,0.75110X0.00070*%
%ADD85R,0.75110X0.00070*%
%ADD86R,0.74970X0.00070*%
%ADD87R,0.74970X0.00070*%
%ADD88R,0.74900X0.00070*%
%ADD89R,0.74830X0.00070*%
%ADD90R,0.74760X0.00070*%
%ADD91R,0.74690X0.00070*%
%ADD92R,0.74620X0.00070*%
%ADD93R,0.74550X0.00070*%
%ADD94R,0.74550X0.00070*%
%ADD95R,0.74480X0.00070*%
%ADD96R,0.74410X0.00070*%
%ADD97R,0.74340X0.00070*%
%ADD98R,0.74340X0.00070*%
%ADD99R,0.74270X0.00070*%
%ADD100R,0.74200X0.00070*%
%ADD101R,0.74200X0.00070*%
%ADD102R,0.74060X0.00070*%
%ADD103R,0.74060X0.00070*%
%ADD104R,0.73990X0.00070*%
%ADD105R,0.73920X0.00070*%
%ADD106R,0.73850X0.00070*%
%ADD107R,0.73780X0.00070*%
%ADD108R,0.73780X0.00070*%
%ADD109R,0.73710X0.00070*%
%ADD110R,0.73640X0.00070*%
%ADD111R,0.02660X0.00070*%
%ADD112R,0.01260X0.00070*%
%ADD113R,0.00980X0.00070*%
%ADD114R,0.02170X0.00070*%
%ADD115R,0.02100X0.00070*%
%ADD116R,0.02170X0.00070*%
%ADD117R,0.02030X0.00070*%
%ADD118R,0.02940X0.00070*%
%ADD119R,0.02730X0.00070*%
%ADD120R,0.02870X0.00070*%
%ADD121R,0.02940X0.00070*%
%ADD122R,0.02800X0.00070*%
%ADD123R,0.02730X0.00070*%
%ADD124R,0.03290X0.00070*%
%ADD125R,0.03220X0.00070*%
%ADD126R,0.03710X0.00070*%
%ADD127R,0.03640X0.00070*%
%ADD128R,0.03640X0.00070*%
%ADD129R,0.03500X0.00070*%
%ADD130R,0.04130X0.00070*%
%ADD131R,0.04200X0.00070*%
%ADD132R,0.03360X0.00070*%
%ADD133R,0.03990X0.00070*%
%ADD134R,0.04480X0.00070*%
%ADD135R,0.04270X0.00070*%
%ADD136R,0.04690X0.00070*%
%ADD137R,0.04690X0.00070*%
%ADD138R,0.03780X0.00070*%
%ADD139R,0.04480X0.00070*%
%ADD140R,0.05040X0.00070*%
%ADD141R,0.04970X0.00070*%
%ADD142R,0.03990X0.00070*%
%ADD143R,0.04970X0.00070*%
%ADD144R,0.04200X0.00070*%
%ADD145R,0.05600X0.00070*%
%ADD146R,0.04410X0.00070*%
%ADD147R,0.05390X0.00070*%
%ADD148R,0.04550X0.00070*%
%ADD149R,0.05530X0.00070*%
%ADD150R,0.05950X0.00070*%
%ADD151R,0.05810X0.00070*%
%ADD152R,0.04900X0.00070*%
%ADD153R,0.06300X0.00070*%
%ADD154R,0.05040X0.00070*%
%ADD155R,0.06090X0.00070*%
%ADD156R,0.06370X0.00070*%
%ADD157R,0.06650X0.00070*%
%ADD158R,0.06720X0.00070*%
%ADD159R,0.06720X0.00070*%
%ADD160R,0.06790X0.00070*%
%ADD161R,0.06860X0.00070*%
%ADD162R,0.08120X0.00070*%
%ADD163R,0.06650X0.00070*%
%ADD164R,0.06930X0.00070*%
%ADD165R,0.07000X0.00070*%
%ADD166R,0.08190X0.00070*%
%ADD167R,0.06860X0.00070*%
%ADD168R,0.06790X0.00070*%
%ADD169R,0.07210X0.00070*%
%ADD170R,0.07140X0.00070*%
%ADD171R,0.08260X0.00070*%
%ADD172R,0.07070X0.00070*%
%ADD173R,0.07280X0.00070*%
%ADD174R,0.08330X0.00070*%
%ADD175R,0.07140X0.00070*%
%ADD176R,0.07140X0.00070*%
%ADD177R,0.07350X0.00070*%
%ADD178R,0.07420X0.00070*%
%ADD179R,0.08330X0.00070*%
%ADD180R,0.07280X0.00070*%
%ADD181R,0.07420X0.00070*%
%ADD182R,0.08400X0.00070*%
%ADD183R,0.07490X0.00070*%
%ADD184R,0.07420X0.00070*%
%ADD185R,0.08470X0.00070*%
%ADD186R,0.07490X0.00070*%
%ADD187R,0.07560X0.00070*%
%ADD188R,0.08540X0.00070*%
%ADD189R,0.07700X0.00070*%
%ADD190R,0.07350X0.00070*%
%ADD191R,0.08610X0.00070*%
%ADD192R,0.07770X0.00070*%
%ADD193R,0.07840X0.00070*%
%ADD194R,0.08610X0.00070*%
%ADD195R,0.07910X0.00070*%
%ADD196R,0.08680X0.00070*%
%ADD197R,0.08050X0.00070*%
%ADD198R,0.07980X0.00070*%
%ADD199R,0.08750X0.00070*%
%ADD200R,0.08120X0.00070*%
%ADD201R,0.07980X0.00070*%
%ADD202R,0.03080X0.00070*%
%ADD203R,0.08820X0.00070*%
%ADD204R,0.07910X0.00070*%
%ADD205R,0.02800X0.00070*%
%ADD206R,0.03990X0.00070*%
%ADD207R,0.02450X0.00070*%
%ADD208R,0.08890X0.00070*%
%ADD209R,0.08400X0.00070*%
%ADD210R,0.02380X0.00070*%
%ADD211R,0.03640X0.00070*%
%ADD212R,0.02590X0.00070*%
%ADD213R,0.02240X0.00070*%
%ADD214R,0.03640X0.00070*%
%ADD215R,0.04060X0.00070*%
%ADD216R,0.02590X0.00070*%
%ADD217R,0.03780X0.00070*%
%ADD218R,0.01680X0.00070*%
%ADD219R,0.02520X0.00070*%
%ADD220R,0.03920X0.00070*%
%ADD221R,0.01540X0.00070*%
%ADD222R,0.02520X0.00070*%
%ADD223R,0.01610X0.00070*%
%ADD224R,0.03850X0.00070*%
%ADD225R,0.03430X0.00070*%
%ADD226R,0.01260X0.00070*%
%ADD227R,0.01400X0.00070*%
%ADD228R,0.03150X0.00070*%
%ADD229R,0.02380X0.00070*%
%ADD230R,0.03080X0.00070*%
%ADD231R,0.01190X0.00070*%
%ADD232R,0.02170X0.00070*%
%ADD233R,0.00910X0.00070*%
%ADD234R,0.02520X0.00070*%
%ADD235R,0.01120X0.00070*%
%ADD236R,0.01960X0.00070*%
%ADD237R,0.00770X0.00070*%
%ADD238R,0.00630X0.00070*%
%ADD239R,0.00700X0.00070*%
%ADD240R,0.00560X0.00070*%
%ADD241R,0.03010X0.00070*%
%ADD242R,0.00490X0.00070*%
%ADD243R,0.02870X0.00070*%
%ADD244R,0.00560X0.00070*%
%ADD245R,0.02870X0.00070*%
%ADD246R,0.01470X0.00070*%
%ADD247R,0.00350X0.00070*%
%ADD248R,0.00420X0.00070*%
%ADD249R,0.00210X0.00070*%
%ADD250R,0.00280X0.00070*%
%ADD251R,0.01190X0.00070*%
%ADD252R,0.00140X0.00070*%
%ADD253R,0.01050X0.00070*%
%ADD254R,0.00910X0.00070*%
%ADD255R,0.02870X0.00070*%
%ADD256R,0.00490X0.00070*%
%ADD257R,0.00420X0.00070*%
%ADD258R,0.02590X0.00070*%
%ADD259R,0.00210X0.00070*%
%ADD260R,0.00070X0.00070*%
%ADD261R,0.09240X0.00070*%
%ADD262R,0.09240X0.00070*%
%ADD263R,0.04760X0.00070*%
%ADD264R,0.09310X0.00070*%
%ADD265R,0.05110X0.00070*%
%ADD266R,0.09310X0.00070*%
%ADD267R,0.05460X0.00070*%
%ADD268R,0.05320X0.00070*%
%ADD269R,0.04340X0.00070*%
%ADD270R,0.00070X0.00070*%
%ADD271R,0.03290X0.00070*%
%ADD272R,0.00350X0.00070*%
%ADD273R,0.00630X0.00070*%
%ADD274R,0.03150X0.00070*%
%ADD275R,0.03220X0.00070*%
%ADD276R,0.00840X0.00070*%
%ADD277R,0.00980X0.00070*%
%ADD278R,0.00070X0.00070*%
%ADD279R,0.01190X0.00070*%
%ADD280R,0.01330X0.00070*%
%ADD281R,0.00420X0.00070*%
%ADD282R,0.03500X0.00070*%
%ADD283R,0.01470X0.00070*%
%ADD284R,0.03570X0.00070*%
%ADD285R,0.02100X0.00070*%
%ADD286R,0.02310X0.00070*%
%ADD287R,0.03990X0.00070*%
%ADD288R,0.03570X0.00070*%
%ADD289R,0.03570X0.00070*%
%ADD290R,0.03920X0.00070*%
%ADD291R,0.01470X0.00070*%
%ADD292R,0.04130X0.00070*%
%ADD293R,0.07630X0.00070*%
%ADD294R,0.08190X0.00070*%
%ADD295R,0.08470X0.00070*%
%ADD296R,0.01960X0.00070*%
%ADD297R,0.08190X0.00070*%
%ADD298R,0.08960X0.00070*%
%ADD299R,0.07700X0.00070*%
%ADD300R,0.02240X0.00070*%
%ADD301R,0.06370X0.00070*%
%ADD302R,0.08890X0.00070*%
%ADD303R,0.07840X0.00070*%
%ADD304R,0.07840X0.00070*%
%ADD305R,0.08820X0.00070*%
%ADD306R,0.08050X0.00070*%
%ADD307R,0.08750X0.00070*%
%ADD308R,0.08680X0.00070*%
%ADD309R,0.07770X0.00070*%
%ADD310R,0.07630X0.00070*%
%ADD311R,0.08120X0.00070*%
%ADD312R,0.07420X0.00070*%
%ADD313R,0.07210X0.00070*%
%ADD314R,0.06930X0.00070*%
%ADD315R,0.07000X0.00070*%
%ADD316R,0.05880X0.00070*%
%ADD317R,0.06790X0.00070*%
%ADD318R,0.07770X0.00070*%
%ADD319R,0.06020X0.00070*%
%ADD320R,0.04830X0.00070*%
%ADD321R,0.06020X0.00070*%
%ADD322R,0.04620X0.00070*%
%ADD323R,0.05180X0.00070*%
%ADD324R,0.05040X0.00070*%
%ADD325R,0.05040X0.00070*%
%ADD326R,0.04760X0.00070*%
%ADD327R,0.04690X0.00070*%
%ADD328R,0.04620X0.00070*%
%ADD329R,0.02240X0.00070*%
%ADD330R,0.02030X0.00070*%
%ADD331R,0.01820X0.00070*%
%ADD332R,0.04340X0.00070*%
%ADD333R,0.04270X0.00070*%
%ADD334R,0.01400X0.00070*%
%ADD335C,0.00500*%
%ADD336C,0.00300*%
%ADD337C,0.00000*%
%ADD338C,0.03937*%
%ADD339C,0.00600*%
%ADD340C,0.00800*%
%ADD341C,0.03482*%
%ADD342C,0.00400*%
D10*
X0003461Y0006510D02*
X0003596Y0006450D01*
X0003730Y0006386D01*
X0003862Y0006320D01*
X0003992Y0006249D01*
X0004121Y0006176D01*
X0004248Y0006099D01*
X0004372Y0006019D01*
X0004495Y0005936D01*
X0004615Y0005850D01*
X0004734Y0005761D01*
X0004850Y0005669D01*
X0004964Y0005575D01*
X0005075Y0005477D01*
X0005184Y0005377D01*
X0005290Y0005273D01*
X0005393Y0005168D01*
X0005494Y0005059D01*
X0005593Y0004948D01*
X0005688Y0004835D01*
X0005780Y0004719D01*
X0005870Y0004602D01*
X0005956Y0004481D01*
X0006040Y0004359D01*
X0006120Y0004235D01*
X0006198Y0004108D01*
X0006272Y0003980D01*
X0006342Y0003850D01*
X0006410Y0003718D01*
X0006474Y0003585D01*
X0006535Y0003450D01*
X0006585Y0003337D01*
X0006639Y0003226D01*
X0006697Y0003117D01*
X0006758Y0003010D01*
X0006822Y0002905D01*
X0006889Y0002802D01*
X0006960Y0002701D01*
X0007034Y0002602D01*
X0007111Y0002506D01*
X0007191Y0002412D01*
X0007274Y0002320D01*
X0007360Y0002232D01*
X0007448Y0002146D01*
X0007539Y0002063D01*
X0007633Y0001982D01*
X0007729Y0001905D01*
X0007828Y0001831D01*
X0007929Y0001760D01*
X0008032Y0001692D01*
X0008137Y0001628D01*
X0008244Y0001566D01*
X0008353Y0001509D01*
X0008463Y0001454D01*
X0008576Y0001403D01*
X0008690Y0001356D01*
X0008805Y0001312D01*
X0008922Y0001272D01*
X0009040Y0001236D01*
X0009159Y0001204D01*
X0009279Y0001175D01*
X0009399Y0001150D01*
X0009521Y0001128D01*
X0009643Y0001111D01*
X0009766Y0001097D01*
X0009888Y0001088D01*
X0010012Y0001082D01*
X0010135Y0001080D01*
X0010135Y0001050D02*
X0112435Y0001050D01*
X0112435Y0009450D01*
X0112439Y0009797D01*
X0112452Y0010144D01*
X0112473Y0010490D01*
X0112503Y0010836D01*
X0112541Y0011181D01*
X0112587Y0011525D01*
X0112642Y0011868D01*
X0112705Y0012209D01*
X0112776Y0012548D01*
X0112855Y0012886D01*
X0112943Y0013222D01*
X0113039Y0013555D01*
X0113143Y0013886D01*
X0113255Y0014215D01*
X0113375Y0014541D01*
X0113503Y0014863D01*
X0113639Y0015183D01*
X0113782Y0015499D01*
X0113933Y0015811D01*
X0114092Y0016120D01*
X0114258Y0016424D01*
X0114432Y0016725D01*
X0114613Y0017021D01*
X0114801Y0017313D01*
X0114996Y0017600D01*
X0115197Y0017882D01*
X0115406Y0018159D01*
X0115622Y0018431D01*
X0115844Y0018698D01*
X0116072Y0018959D01*
X0116307Y0019215D01*
X0116548Y0019465D01*
X0116794Y0019709D01*
X0117047Y0019946D01*
X0117306Y0020178D01*
X0117570Y0020403D01*
X0117839Y0020622D01*
X0118114Y0020834D01*
X0118394Y0021039D01*
X0118678Y0021238D01*
X0118968Y0021429D01*
X0119262Y0021614D01*
X0119560Y0021791D01*
X0119863Y0021961D01*
X0120169Y0022123D01*
X0120480Y0022278D01*
X0120794Y0022425D01*
X0121112Y0022565D01*
X0121433Y0022697D01*
X0121757Y0022821D01*
X0122084Y0022937D01*
X0122414Y0023045D01*
X0122746Y0023145D01*
X0123081Y0023237D01*
X0123417Y0023320D01*
X0123756Y0023396D01*
X0124097Y0023463D01*
X0124439Y0023522D01*
X0124782Y0023572D01*
X0125126Y0023615D01*
X0125472Y0023648D01*
X0125818Y0023674D01*
X0126165Y0023690D01*
X0126511Y0023699D01*
X0126859Y0023699D01*
X0127205Y0023690D01*
X0127552Y0023674D01*
X0127898Y0023648D01*
X0128244Y0023615D01*
X0128588Y0023572D01*
X0128931Y0023522D01*
X0129273Y0023463D01*
X0129614Y0023396D01*
X0129953Y0023320D01*
X0130289Y0023237D01*
X0130624Y0023145D01*
X0130956Y0023045D01*
X0131286Y0022937D01*
X0131613Y0022821D01*
X0131937Y0022697D01*
X0132258Y0022565D01*
X0132576Y0022425D01*
X0132890Y0022278D01*
X0133201Y0022123D01*
X0133507Y0021961D01*
X0133810Y0021791D01*
X0134108Y0021614D01*
X0134402Y0021429D01*
X0134692Y0021238D01*
X0134976Y0021039D01*
X0135256Y0020834D01*
X0135531Y0020622D01*
X0135800Y0020403D01*
X0136064Y0020178D01*
X0136323Y0019946D01*
X0136576Y0019709D01*
X0136822Y0019465D01*
X0137063Y0019215D01*
X0137298Y0018959D01*
X0137526Y0018698D01*
X0137748Y0018431D01*
X0137964Y0018159D01*
X0138173Y0017882D01*
X0138374Y0017600D01*
X0138569Y0017313D01*
X0138757Y0017021D01*
X0138938Y0016725D01*
X0139112Y0016424D01*
X0139278Y0016120D01*
X0139437Y0015811D01*
X0139588Y0015499D01*
X0139731Y0015183D01*
X0139867Y0014863D01*
X0139995Y0014541D01*
X0140115Y0014215D01*
X0140227Y0013886D01*
X0140331Y0013555D01*
X0140427Y0013222D01*
X0140515Y0012886D01*
X0140594Y0012548D01*
X0140665Y0012209D01*
X0140728Y0011868D01*
X0140783Y0011525D01*
X0140829Y0011181D01*
X0140867Y0010836D01*
X0140897Y0010490D01*
X0140918Y0010144D01*
X0140931Y0009797D01*
X0140935Y0009450D01*
X0140935Y0001050D01*
X0313535Y0001050D01*
X0313659Y0001052D01*
X0313783Y0001058D01*
X0313907Y0001068D01*
X0314031Y0001081D01*
X0314154Y0001099D01*
X0314276Y0001120D01*
X0314398Y0001145D01*
X0314519Y0001174D01*
X0314639Y0001207D01*
X0314757Y0001244D01*
X0314875Y0001284D01*
X0314991Y0001328D01*
X0315106Y0001376D01*
X0315219Y0001427D01*
X0315331Y0001482D01*
X0315441Y0001540D01*
X0315549Y0001602D01*
X0315655Y0001667D01*
X0315758Y0001735D01*
X0315860Y0001807D01*
X0315959Y0001881D01*
X0316056Y0001959D01*
X0316151Y0002040D01*
X0316242Y0002124D01*
X0316332Y0002210D01*
X0316418Y0002300D01*
X0316501Y0002392D01*
X0316582Y0002486D01*
X0316660Y0002584D01*
X0316734Y0002683D01*
X0316805Y0002785D01*
X0316873Y0002889D01*
X0316938Y0002995D01*
X0317000Y0003103D01*
X0317058Y0003213D01*
X0317112Y0003325D01*
X0317163Y0003438D01*
X0317195Y0003423D02*
X0317258Y0003561D01*
X0317325Y0003697D01*
X0317394Y0003832D01*
X0317468Y0003964D01*
X0317544Y0004095D01*
X0317624Y0004223D01*
X0317707Y0004350D01*
X0317794Y0004474D01*
X0317883Y0004596D01*
X0317976Y0004716D01*
X0318072Y0004833D01*
X0318170Y0004948D01*
X0318272Y0005060D01*
X0318377Y0005169D01*
X0318484Y0005276D01*
X0318594Y0005380D01*
X0318707Y0005481D01*
X0318822Y0005580D01*
X0318939Y0005675D01*
X0319059Y0005767D01*
X0319182Y0005856D01*
X0319307Y0005942D01*
X0319433Y0006025D01*
X0319562Y0006104D01*
X0319693Y0006180D01*
X0319826Y0006253D01*
X0319961Y0006322D01*
X0320097Y0006388D01*
X0320235Y0006450D01*
X0320347Y0006502D01*
X0320458Y0006556D01*
X0320566Y0006614D01*
X0320673Y0006676D01*
X0320778Y0006740D01*
X0320881Y0006808D01*
X0320982Y0006879D01*
X0321080Y0006954D01*
X0321177Y0007031D01*
X0321270Y0007111D01*
X0321361Y0007194D01*
X0321450Y0007279D01*
X0321536Y0007368D01*
X0321619Y0007459D01*
X0321699Y0007553D01*
X0321777Y0007649D01*
X0321851Y0007747D01*
X0321922Y0007848D01*
X0321990Y0007950D01*
X0322055Y0008055D01*
X0322117Y0008162D01*
X0322175Y0008271D01*
X0322230Y0008381D01*
X0322282Y0008493D01*
X0322330Y0008607D01*
X0322374Y0008722D01*
X0322415Y0008838D01*
X0322452Y0008956D01*
X0322486Y0009074D01*
X0322516Y0009194D01*
X0322542Y0009314D01*
X0322564Y0009436D01*
X0322583Y0009557D01*
X0322598Y0009680D01*
X0322609Y0009803D01*
X0322616Y0009926D01*
X0322620Y0010049D01*
X0322535Y0010050D02*
X0322535Y0141450D01*
X0322344Y0141452D01*
X0322153Y0141459D01*
X0321962Y0141471D01*
X0321772Y0141487D01*
X0321581Y0141508D01*
X0321392Y0141534D01*
X0321203Y0141564D01*
X0321015Y0141599D01*
X0320828Y0141638D01*
X0320642Y0141682D01*
X0320457Y0141730D01*
X0320273Y0141783D01*
X0320091Y0141840D01*
X0319910Y0141902D01*
X0319731Y0141968D01*
X0319553Y0142038D01*
X0319377Y0142113D01*
X0319203Y0142192D01*
X0319031Y0142275D01*
X0318861Y0142363D01*
X0318693Y0142454D01*
X0318528Y0142550D01*
X0318364Y0142650D01*
X0318204Y0142753D01*
X0318045Y0142861D01*
X0317890Y0142972D01*
X0317737Y0143087D01*
X0317587Y0143205D01*
X0317440Y0143328D01*
X0317297Y0143454D01*
X0317156Y0143583D01*
X0317018Y0143716D01*
X0316884Y0143852D01*
X0316753Y0143991D01*
X0316625Y0144133D01*
X0316501Y0144279D01*
X0316381Y0144427D01*
X0316264Y0144578D01*
X0316151Y0144732D01*
X0316041Y0144889D01*
X0315936Y0145049D01*
X0315834Y0145211D01*
X0315737Y0145375D01*
X0315643Y0145542D01*
X0315554Y0145711D01*
X0315468Y0145882D01*
X0315387Y0146055D01*
X0315310Y0146230D01*
X0315238Y0146407D01*
X0315169Y0146585D01*
X0315105Y0146765D01*
X0315046Y0146947D01*
X0314991Y0147130D01*
X0314940Y0147314D01*
X0314894Y0147500D01*
X0314853Y0147687D01*
X0314816Y0147874D01*
X0314783Y0148063D01*
X0314755Y0148252D01*
X0314732Y0148441D01*
X0314713Y0148632D01*
X0314700Y0148822D01*
X0314690Y0149013D01*
X0314686Y0149204D01*
X0314686Y0149396D01*
X0314690Y0149587D01*
X0314700Y0149778D01*
X0314713Y0149968D01*
X0314732Y0150159D01*
X0314755Y0150348D01*
X0314783Y0150537D01*
X0314816Y0150726D01*
X0314853Y0150913D01*
X0314894Y0151100D01*
X0314940Y0151286D01*
X0314991Y0151470D01*
X0315046Y0151653D01*
X0315105Y0151835D01*
X0315169Y0152015D01*
X0315238Y0152193D01*
X0315310Y0152370D01*
X0315387Y0152545D01*
X0315468Y0152718D01*
X0315554Y0152889D01*
X0315643Y0153058D01*
X0315737Y0153225D01*
X0315834Y0153389D01*
X0315936Y0153551D01*
X0316041Y0153711D01*
X0316151Y0153868D01*
X0316264Y0154022D01*
X0316381Y0154173D01*
X0316501Y0154321D01*
X0316625Y0154467D01*
X0316753Y0154609D01*
X0316884Y0154748D01*
X0317018Y0154884D01*
X0317156Y0155017D01*
X0317297Y0155146D01*
X0317440Y0155272D01*
X0317587Y0155395D01*
X0317737Y0155513D01*
X0317890Y0155628D01*
X0318045Y0155739D01*
X0318204Y0155847D01*
X0318364Y0155950D01*
X0318528Y0156050D01*
X0318693Y0156146D01*
X0318861Y0156237D01*
X0319031Y0156325D01*
X0319203Y0156408D01*
X0319377Y0156487D01*
X0319553Y0156562D01*
X0319731Y0156632D01*
X0319910Y0156698D01*
X0320091Y0156760D01*
X0320273Y0156817D01*
X0320457Y0156870D01*
X0320642Y0156918D01*
X0320828Y0156962D01*
X0321015Y0157001D01*
X0321203Y0157036D01*
X0321392Y0157066D01*
X0321581Y0157092D01*
X0321772Y0157113D01*
X0321962Y0157129D01*
X0322153Y0157141D01*
X0322344Y0157148D01*
X0322535Y0157150D01*
X0322535Y0195450D01*
X0322533Y0195571D01*
X0322527Y0195693D01*
X0322518Y0195814D01*
X0322505Y0195935D01*
X0322488Y0196055D01*
X0322467Y0196175D01*
X0322443Y0196294D01*
X0322415Y0196412D01*
X0322383Y0196529D01*
X0322347Y0196645D01*
X0322308Y0196760D01*
X0322266Y0196874D01*
X0322220Y0196987D01*
X0322170Y0197097D01*
X0322117Y0197207D01*
X0322061Y0197314D01*
X0322001Y0197420D01*
X0321938Y0197524D01*
X0321872Y0197626D01*
X0321802Y0197726D01*
X0321730Y0197823D01*
X0321654Y0197918D01*
X0321576Y0198011D01*
X0321495Y0198102D01*
X0321411Y0198189D01*
X0321324Y0198274D01*
X0321235Y0198357D01*
X0321143Y0198436D01*
X0321049Y0198513D01*
X0320952Y0198587D01*
X0320854Y0198657D01*
X0320753Y0198725D01*
X0320650Y0198789D01*
X0320545Y0198851D01*
X0320438Y0198908D01*
X0320329Y0198963D01*
X0320219Y0199014D01*
X0317135Y0202050D02*
X0317085Y0202163D01*
X0317031Y0202274D01*
X0316973Y0202383D01*
X0316912Y0202490D01*
X0316848Y0202595D01*
X0316781Y0202698D01*
X0316710Y0202799D01*
X0316636Y0202898D01*
X0316559Y0202994D01*
X0316479Y0203088D01*
X0316396Y0203180D01*
X0316310Y0203268D01*
X0316222Y0203354D01*
X0316131Y0203437D01*
X0316037Y0203518D01*
X0315941Y0203595D01*
X0315842Y0203669D01*
X0315741Y0203740D01*
X0315638Y0203808D01*
X0315533Y0203872D01*
X0315426Y0203934D01*
X0315317Y0203991D01*
X0315207Y0204046D01*
X0315094Y0204097D01*
X0314980Y0204144D01*
X0314865Y0204188D01*
X0314748Y0204228D01*
X0314630Y0204264D01*
X0314511Y0204296D01*
X0314391Y0204325D01*
X0314271Y0204350D01*
X0314149Y0204372D01*
X0314027Y0204389D01*
X0313904Y0204403D01*
X0313782Y0204412D01*
X0313658Y0204418D01*
X0313535Y0204420D01*
X0313535Y0204450D02*
X0269735Y0204450D01*
X0269735Y0196050D01*
X0269731Y0195703D01*
X0269718Y0195356D01*
X0269697Y0195010D01*
X0269667Y0194664D01*
X0269629Y0194319D01*
X0269583Y0193975D01*
X0269528Y0193632D01*
X0269465Y0193291D01*
X0269394Y0192952D01*
X0269315Y0192614D01*
X0269227Y0192278D01*
X0269131Y0191945D01*
X0269027Y0191614D01*
X0268915Y0191285D01*
X0268795Y0190959D01*
X0268667Y0190637D01*
X0268531Y0190317D01*
X0268388Y0190001D01*
X0268237Y0189689D01*
X0268078Y0189380D01*
X0267912Y0189076D01*
X0267738Y0188775D01*
X0267557Y0188479D01*
X0267369Y0188187D01*
X0267174Y0187900D01*
X0266973Y0187618D01*
X0266764Y0187341D01*
X0266548Y0187069D01*
X0266326Y0186802D01*
X0266098Y0186541D01*
X0265863Y0186285D01*
X0265622Y0186035D01*
X0265376Y0185791D01*
X0265123Y0185554D01*
X0264864Y0185322D01*
X0264600Y0185097D01*
X0264331Y0184878D01*
X0264056Y0184666D01*
X0263776Y0184461D01*
X0263492Y0184262D01*
X0263202Y0184071D01*
X0262908Y0183886D01*
X0262610Y0183709D01*
X0262307Y0183539D01*
X0262001Y0183377D01*
X0261690Y0183222D01*
X0261376Y0183075D01*
X0261058Y0182935D01*
X0260737Y0182803D01*
X0260413Y0182679D01*
X0260086Y0182563D01*
X0259756Y0182455D01*
X0259424Y0182355D01*
X0259089Y0182263D01*
X0258753Y0182180D01*
X0258414Y0182104D01*
X0258073Y0182037D01*
X0257731Y0181978D01*
X0257388Y0181928D01*
X0257044Y0181885D01*
X0256698Y0181852D01*
X0256352Y0181826D01*
X0256005Y0181810D01*
X0255659Y0181801D01*
X0255311Y0181801D01*
X0254965Y0181810D01*
X0254618Y0181826D01*
X0254272Y0181852D01*
X0253926Y0181885D01*
X0253582Y0181928D01*
X0253239Y0181978D01*
X0252897Y0182037D01*
X0252556Y0182104D01*
X0252217Y0182180D01*
X0251881Y0182263D01*
X0251546Y0182355D01*
X0251214Y0182455D01*
X0250884Y0182563D01*
X0250557Y0182679D01*
X0250233Y0182803D01*
X0249912Y0182935D01*
X0249594Y0183075D01*
X0249280Y0183222D01*
X0248969Y0183377D01*
X0248663Y0183539D01*
X0248360Y0183709D01*
X0248062Y0183886D01*
X0247768Y0184071D01*
X0247478Y0184262D01*
X0247194Y0184461D01*
X0246914Y0184666D01*
X0246639Y0184878D01*
X0246370Y0185097D01*
X0246106Y0185322D01*
X0245847Y0185554D01*
X0245594Y0185791D01*
X0245348Y0186035D01*
X0245107Y0186285D01*
X0244872Y0186541D01*
X0244644Y0186802D01*
X0244422Y0187069D01*
X0244206Y0187341D01*
X0243997Y0187618D01*
X0243796Y0187900D01*
X0243601Y0188187D01*
X0243413Y0188479D01*
X0243232Y0188775D01*
X0243058Y0189076D01*
X0242892Y0189380D01*
X0242733Y0189689D01*
X0242582Y0190001D01*
X0242439Y0190317D01*
X0242303Y0190637D01*
X0242175Y0190959D01*
X0242055Y0191285D01*
X0241943Y0191614D01*
X0241839Y0191945D01*
X0241743Y0192278D01*
X0241655Y0192614D01*
X0241576Y0192952D01*
X0241505Y0193291D01*
X0241442Y0193632D01*
X0241387Y0193975D01*
X0241341Y0194319D01*
X0241303Y0194664D01*
X0241273Y0195010D01*
X0241252Y0195356D01*
X0241239Y0195703D01*
X0241235Y0196050D01*
X0241235Y0204450D01*
X0209235Y0204450D01*
X0209235Y0165150D01*
X0209231Y0164791D01*
X0209218Y0164432D01*
X0209196Y0164073D01*
X0209165Y0163715D01*
X0209126Y0163358D01*
X0209078Y0163002D01*
X0209021Y0162648D01*
X0208956Y0162294D01*
X0208882Y0161943D01*
X0208800Y0161593D01*
X0208709Y0161246D01*
X0208610Y0160901D01*
X0208502Y0160558D01*
X0208386Y0160218D01*
X0208262Y0159881D01*
X0208129Y0159547D01*
X0207989Y0159216D01*
X0207840Y0158889D01*
X0207684Y0158566D01*
X0207520Y0158246D01*
X0207348Y0157931D01*
X0207168Y0157620D01*
X0206981Y0157313D01*
X0206786Y0157011D01*
X0206585Y0156714D01*
X0206376Y0156422D01*
X0206160Y0156135D01*
X0205937Y0155854D01*
X0205707Y0155577D01*
X0205470Y0155307D01*
X0205227Y0155042D01*
X0204978Y0154784D01*
X0204723Y0154531D01*
X0204461Y0154285D01*
X0204193Y0154046D01*
X0203920Y0153812D01*
X0203641Y0153586D01*
X0203357Y0153367D01*
X0203067Y0153154D01*
X0202773Y0152949D01*
X0202473Y0152750D01*
X0202169Y0152560D01*
X0201860Y0152376D01*
X0201547Y0152200D01*
X0201229Y0152032D01*
X0200908Y0151872D01*
X0200583Y0151719D01*
X0200254Y0151575D01*
X0199922Y0151438D01*
X0199586Y0151310D01*
X0199247Y0151190D01*
X0198906Y0151078D01*
X0198562Y0150975D01*
X0198216Y0150880D01*
X0197867Y0150793D01*
X0197517Y0150715D01*
X0197164Y0150645D01*
X0196810Y0150584D01*
X0196455Y0150532D01*
X0196098Y0150488D01*
X0195741Y0150454D01*
X0195382Y0150427D01*
X0195024Y0150410D01*
X0194665Y0150401D01*
X0194305Y0150401D01*
X0193946Y0150410D01*
X0193588Y0150427D01*
X0193229Y0150454D01*
X0192872Y0150488D01*
X0192515Y0150532D01*
X0192160Y0150584D01*
X0191806Y0150645D01*
X0191453Y0150715D01*
X0191103Y0150793D01*
X0190754Y0150880D01*
X0190408Y0150975D01*
X0190064Y0151078D01*
X0189723Y0151190D01*
X0189384Y0151310D01*
X0189048Y0151438D01*
X0188716Y0151575D01*
X0188387Y0151719D01*
X0188062Y0151872D01*
X0187741Y0152032D01*
X0187423Y0152200D01*
X0187110Y0152376D01*
X0186801Y0152560D01*
X0186497Y0152750D01*
X0186197Y0152949D01*
X0185903Y0153154D01*
X0185613Y0153367D01*
X0185329Y0153586D01*
X0185050Y0153812D01*
X0184777Y0154046D01*
X0184509Y0154285D01*
X0184247Y0154531D01*
X0183992Y0154784D01*
X0183743Y0155042D01*
X0183500Y0155307D01*
X0183263Y0155577D01*
X0183033Y0155854D01*
X0182810Y0156135D01*
X0182594Y0156422D01*
X0182385Y0156714D01*
X0182184Y0157011D01*
X0181989Y0157313D01*
X0181802Y0157620D01*
X0181622Y0157931D01*
X0181450Y0158246D01*
X0181286Y0158566D01*
X0181130Y0158889D01*
X0180981Y0159216D01*
X0180841Y0159547D01*
X0180708Y0159881D01*
X0180584Y0160218D01*
X0180468Y0160558D01*
X0180360Y0160901D01*
X0180261Y0161246D01*
X0180170Y0161593D01*
X0180088Y0161943D01*
X0180014Y0162294D01*
X0179949Y0162648D01*
X0179892Y0163002D01*
X0179844Y0163358D01*
X0179805Y0163715D01*
X0179774Y0164073D01*
X0179752Y0164432D01*
X0179739Y0164791D01*
X0179735Y0165150D01*
X0179735Y0204450D01*
X0010135Y0204450D01*
X0010011Y0204448D01*
X0009887Y0204442D01*
X0009763Y0204432D01*
X0009639Y0204419D01*
X0009516Y0204401D01*
X0009394Y0204380D01*
X0009272Y0204355D01*
X0009151Y0204326D01*
X0009031Y0204293D01*
X0008913Y0204256D01*
X0008795Y0204216D01*
X0008679Y0204172D01*
X0008564Y0204124D01*
X0008451Y0204073D01*
X0008339Y0204018D01*
X0008229Y0203960D01*
X0008121Y0203898D01*
X0008015Y0203833D01*
X0007912Y0203765D01*
X0007810Y0203693D01*
X0007711Y0203619D01*
X0007614Y0203541D01*
X0007519Y0203460D01*
X0007428Y0203376D01*
X0007338Y0203290D01*
X0007252Y0203200D01*
X0007169Y0203108D01*
X0007088Y0203014D01*
X0007010Y0202916D01*
X0006936Y0202817D01*
X0006865Y0202715D01*
X0006797Y0202611D01*
X0006732Y0202505D01*
X0006670Y0202397D01*
X0006612Y0202287D01*
X0006558Y0202175D01*
X0006507Y0202062D01*
X0006475Y0202077D02*
X0006412Y0201939D01*
X0006345Y0201803D01*
X0006276Y0201668D01*
X0006202Y0201536D01*
X0006126Y0201405D01*
X0006046Y0201277D01*
X0005963Y0201150D01*
X0005876Y0201026D01*
X0005787Y0200904D01*
X0005694Y0200784D01*
X0005598Y0200667D01*
X0005500Y0200552D01*
X0005398Y0200440D01*
X0005293Y0200331D01*
X0005186Y0200224D01*
X0005076Y0200120D01*
X0004963Y0200019D01*
X0004848Y0199920D01*
X0004731Y0199825D01*
X0004611Y0199733D01*
X0004488Y0199644D01*
X0004363Y0199558D01*
X0004237Y0199475D01*
X0004108Y0199396D01*
X0003977Y0199320D01*
X0003844Y0199247D01*
X0003709Y0199178D01*
X0003573Y0199112D01*
X0003435Y0199050D01*
X0003323Y0198998D01*
X0003212Y0198944D01*
X0003104Y0198886D01*
X0002997Y0198824D01*
X0002892Y0198760D01*
X0002789Y0198692D01*
X0002688Y0198621D01*
X0002590Y0198546D01*
X0002493Y0198469D01*
X0002400Y0198389D01*
X0002309Y0198306D01*
X0002220Y0198221D01*
X0002134Y0198132D01*
X0002051Y0198041D01*
X0001971Y0197947D01*
X0001893Y0197851D01*
X0001819Y0197753D01*
X0001748Y0197652D01*
X0001680Y0197550D01*
X0001615Y0197445D01*
X0001553Y0197338D01*
X0001495Y0197229D01*
X0001440Y0197119D01*
X0001388Y0197007D01*
X0001340Y0196893D01*
X0001296Y0196778D01*
X0001255Y0196662D01*
X0001218Y0196544D01*
X0001184Y0196426D01*
X0001154Y0196306D01*
X0001128Y0196186D01*
X0001106Y0196064D01*
X0001087Y0195943D01*
X0001072Y0195820D01*
X0001061Y0195697D01*
X0001054Y0195574D01*
X0001050Y0195451D01*
X0001135Y0195450D02*
X0001135Y0071950D01*
X0024735Y0071950D01*
X0024926Y0071948D01*
X0025117Y0071941D01*
X0025307Y0071929D01*
X0025497Y0071913D01*
X0025687Y0071892D01*
X0025876Y0071867D01*
X0026065Y0071837D01*
X0026253Y0071803D01*
X0026440Y0071764D01*
X0026626Y0071720D01*
X0026810Y0071673D01*
X0026994Y0071620D01*
X0027176Y0071563D01*
X0027357Y0071502D01*
X0027536Y0071437D01*
X0027714Y0071367D01*
X0027890Y0071293D01*
X0028064Y0071214D01*
X0028236Y0071132D01*
X0028406Y0071045D01*
X0028574Y0070954D01*
X0028740Y0070860D01*
X0028903Y0070761D01*
X0029064Y0070658D01*
X0029223Y0070552D01*
X0029379Y0070441D01*
X0029532Y0070327D01*
X0029682Y0070209D01*
X0029829Y0070088D01*
X0029974Y0069963D01*
X0030115Y0069835D01*
X0030253Y0069703D01*
X0030388Y0069568D01*
X0030520Y0069430D01*
X0030648Y0069289D01*
X0030773Y0069144D01*
X0030894Y0068997D01*
X0031012Y0068847D01*
X0031126Y0068694D01*
X0031237Y0068538D01*
X0031343Y0068379D01*
X0031446Y0068218D01*
X0031545Y0068055D01*
X0031639Y0067889D01*
X0031730Y0067721D01*
X0031817Y0067551D01*
X0031899Y0067379D01*
X0031978Y0067205D01*
X0032052Y0067029D01*
X0032122Y0066851D01*
X0032187Y0066672D01*
X0032248Y0066491D01*
X0032305Y0066309D01*
X0032358Y0066125D01*
X0032405Y0065941D01*
X0032449Y0065755D01*
X0032488Y0065568D01*
X0032522Y0065380D01*
X0032552Y0065191D01*
X0032577Y0065002D01*
X0032598Y0064812D01*
X0032614Y0064622D01*
X0032626Y0064432D01*
X0032633Y0064241D01*
X0032635Y0064050D01*
X0032635Y0032550D01*
X0032633Y0032359D01*
X0032626Y0032168D01*
X0032614Y0031978D01*
X0032598Y0031788D01*
X0032577Y0031598D01*
X0032552Y0031409D01*
X0032522Y0031220D01*
X0032488Y0031032D01*
X0032449Y0030845D01*
X0032405Y0030659D01*
X0032358Y0030475D01*
X0032305Y0030291D01*
X0032248Y0030109D01*
X0032187Y0029928D01*
X0032122Y0029749D01*
X0032052Y0029571D01*
X0031978Y0029395D01*
X0031899Y0029221D01*
X0031817Y0029049D01*
X0031730Y0028879D01*
X0031639Y0028711D01*
X0031545Y0028545D01*
X0031446Y0028382D01*
X0031343Y0028221D01*
X0031237Y0028062D01*
X0031126Y0027906D01*
X0031012Y0027753D01*
X0030894Y0027603D01*
X0030773Y0027456D01*
X0030648Y0027311D01*
X0030520Y0027170D01*
X0030388Y0027032D01*
X0030253Y0026897D01*
X0030115Y0026765D01*
X0029974Y0026637D01*
X0029829Y0026512D01*
X0029682Y0026391D01*
X0029532Y0026273D01*
X0029379Y0026159D01*
X0029223Y0026048D01*
X0029064Y0025942D01*
X0028903Y0025839D01*
X0028740Y0025740D01*
X0028574Y0025646D01*
X0028406Y0025555D01*
X0028236Y0025468D01*
X0028064Y0025386D01*
X0027890Y0025307D01*
X0027714Y0025233D01*
X0027536Y0025163D01*
X0027357Y0025098D01*
X0027176Y0025037D01*
X0026994Y0024980D01*
X0026810Y0024927D01*
X0026626Y0024880D01*
X0026440Y0024836D01*
X0026253Y0024797D01*
X0026065Y0024763D01*
X0025876Y0024733D01*
X0025687Y0024708D01*
X0025497Y0024687D01*
X0025307Y0024671D01*
X0025117Y0024659D01*
X0024926Y0024652D01*
X0024735Y0024650D01*
X0001135Y0024650D01*
X0001135Y0010050D01*
X0001137Y0009929D01*
X0001143Y0009807D01*
X0001152Y0009686D01*
X0001165Y0009565D01*
X0001182Y0009445D01*
X0001203Y0009325D01*
X0001227Y0009206D01*
X0001255Y0009088D01*
X0001287Y0008971D01*
X0001323Y0008855D01*
X0001362Y0008740D01*
X0001404Y0008626D01*
X0001450Y0008513D01*
X0001500Y0008403D01*
X0001553Y0008293D01*
X0001609Y0008186D01*
X0001669Y0008080D01*
X0001732Y0007976D01*
X0001798Y0007874D01*
X0001868Y0007774D01*
X0001940Y0007677D01*
X0002016Y0007582D01*
X0002094Y0007489D01*
X0002175Y0007398D01*
X0002259Y0007311D01*
X0002346Y0007226D01*
X0002435Y0007143D01*
X0002527Y0007064D01*
X0002621Y0006987D01*
X0002718Y0006913D01*
X0002816Y0006843D01*
X0002917Y0006775D01*
X0003020Y0006711D01*
X0003125Y0006649D01*
X0003232Y0006592D01*
X0003341Y0006537D01*
X0003451Y0006486D01*
X0304443Y0164302D02*
X0305944Y0165303D01*
X0305944Y0165776D02*
X0305944Y0166776D01*
X0305944Y0166276D02*
X0304443Y0166276D01*
X0304943Y0165776D01*
X0304443Y0165303D02*
X0305944Y0164302D01*
X0320209Y0198990D02*
X0320074Y0199050D01*
X0319940Y0199114D01*
X0319808Y0199180D01*
X0319678Y0199251D01*
X0319549Y0199324D01*
X0319422Y0199401D01*
X0319298Y0199481D01*
X0319175Y0199564D01*
X0319055Y0199650D01*
X0318936Y0199739D01*
X0318820Y0199831D01*
X0318706Y0199925D01*
X0318595Y0200023D01*
X0318486Y0200123D01*
X0318380Y0200227D01*
X0318277Y0200332D01*
X0318176Y0200441D01*
X0318077Y0200552D01*
X0317982Y0200665D01*
X0317890Y0200781D01*
X0317800Y0200898D01*
X0317714Y0201019D01*
X0317630Y0201141D01*
X0317550Y0201265D01*
X0317472Y0201392D01*
X0317398Y0201520D01*
X0317328Y0201650D01*
X0317260Y0201782D01*
X0317196Y0201915D01*
X0317135Y0202050D01*
D11*
X0164542Y0156572D03*
X0157962Y0167772D03*
X0130452Y0167772D03*
X0110012Y0167772D03*
X0100562Y0156572D03*
D12*
X0164577Y0156642D03*
D13*
X0100597Y0156642D03*
D14*
X0100562Y0156712D03*
X0119602Y0167912D03*
X0164542Y0162872D03*
X0164542Y0156712D03*
D15*
X0164577Y0156782D03*
X0169407Y0166792D03*
X0169407Y0166932D03*
X0169407Y0167002D03*
X0169407Y0167142D03*
X0169407Y0167282D03*
X0169407Y0167352D03*
X0169407Y0167492D03*
X0169407Y0167632D03*
X0169407Y0167702D03*
X0169407Y0167842D03*
X0169407Y0167982D03*
X0169407Y0168052D03*
X0169407Y0168192D03*
X0169407Y0168332D03*
X0169407Y0168402D03*
X0169407Y0168542D03*
X0169407Y0168682D03*
X0169407Y0168752D03*
X0169407Y0168892D03*
X0169407Y0169032D03*
X0169407Y0169102D03*
X0169407Y0169242D03*
X0169407Y0169382D03*
X0169407Y0169452D03*
X0169407Y0169592D03*
X0169407Y0169732D03*
X0169407Y0169802D03*
X0169407Y0169942D03*
X0169407Y0170082D03*
X0169407Y0170152D03*
X0169407Y0170292D03*
X0169407Y0170432D03*
X0169407Y0170502D03*
X0169407Y0170642D03*
X0169407Y0170782D03*
X0169407Y0170852D03*
X0169407Y0170992D03*
X0169407Y0171132D03*
X0169407Y0171202D03*
X0169407Y0171342D03*
X0169407Y0171482D03*
X0169407Y0171552D03*
X0169407Y0171692D03*
X0169407Y0171832D03*
X0169407Y0171902D03*
X0169407Y0172042D03*
X0169407Y0172182D03*
X0169407Y0172252D03*
X0169407Y0172392D03*
X0169407Y0172532D03*
X0169407Y0172602D03*
X0169407Y0172742D03*
X0169407Y0172882D03*
X0169407Y0172952D03*
X0169407Y0173092D03*
X0169407Y0173232D03*
X0169407Y0173302D03*
X0169407Y0173442D03*
X0169407Y0173582D03*
X0169407Y0173652D03*
X0169407Y0173792D03*
X0169407Y0173932D03*
X0169407Y0174002D03*
X0169407Y0174142D03*
X0169407Y0174282D03*
X0169407Y0174352D03*
X0169407Y0174492D03*
X0169407Y0174632D03*
X0169407Y0174702D03*
X0169407Y0174842D03*
X0169407Y0174982D03*
X0169407Y0175052D03*
X0169407Y0175192D03*
X0169407Y0175332D03*
X0169407Y0175402D03*
X0169407Y0175542D03*
X0169407Y0175682D03*
X0169407Y0175752D03*
X0169407Y0175892D03*
X0169477Y0178692D03*
X0164717Y0178692D03*
X0164717Y0178832D03*
X0164717Y0178902D03*
X0164717Y0179042D03*
X0164717Y0179182D03*
X0164717Y0179252D03*
X0164717Y0179392D03*
X0164717Y0179532D03*
X0164717Y0179602D03*
X0164717Y0179742D03*
X0164717Y0179882D03*
X0164717Y0179952D03*
X0164717Y0180092D03*
X0164717Y0180232D03*
X0164717Y0180302D03*
X0164717Y0180442D03*
X0164717Y0180582D03*
X0164717Y0178552D03*
X0164717Y0178482D03*
X0164717Y0178342D03*
X0164717Y0178202D03*
X0164717Y0178132D03*
X0164717Y0177992D03*
X0164717Y0177852D03*
X0164717Y0177782D03*
X0164717Y0177642D03*
X0164717Y0177502D03*
X0164717Y0177432D03*
X0164717Y0177292D03*
X0164717Y0177152D03*
X0164717Y0177082D03*
X0164717Y0176942D03*
X0164717Y0176802D03*
X0164717Y0176732D03*
X0164717Y0176592D03*
X0164717Y0176452D03*
X0164717Y0176382D03*
X0164717Y0176242D03*
X0164717Y0176102D03*
X0164717Y0176032D03*
X0164717Y0175892D03*
X0164717Y0175752D03*
X0164717Y0175682D03*
X0164717Y0175542D03*
X0164717Y0175402D03*
X0164717Y0175332D03*
X0164717Y0175192D03*
X0164717Y0175052D03*
X0164717Y0174982D03*
X0164717Y0174842D03*
X0164717Y0174702D03*
X0164717Y0174632D03*
X0164717Y0174492D03*
X0164717Y0174352D03*
X0164717Y0174282D03*
X0164717Y0174142D03*
X0164717Y0174002D03*
X0164717Y0173932D03*
X0164717Y0173792D03*
X0164717Y0173652D03*
X0164717Y0173582D03*
X0164717Y0173442D03*
X0164717Y0173302D03*
X0164717Y0173232D03*
X0164717Y0173092D03*
X0164717Y0172952D03*
X0164717Y0172882D03*
X0164717Y0172742D03*
X0164717Y0172602D03*
X0164717Y0172532D03*
X0164717Y0172392D03*
X0164717Y0172252D03*
X0164717Y0172182D03*
X0164717Y0172042D03*
X0164717Y0171902D03*
X0164717Y0171832D03*
X0164717Y0171692D03*
X0164717Y0171552D03*
X0164717Y0171482D03*
X0164717Y0171342D03*
X0164717Y0171202D03*
X0164717Y0171132D03*
X0164717Y0170992D03*
X0164717Y0170852D03*
X0164717Y0170782D03*
X0164717Y0170642D03*
X0164717Y0170502D03*
X0164717Y0170432D03*
X0164717Y0170292D03*
X0164717Y0170152D03*
X0164717Y0170082D03*
X0164717Y0169942D03*
X0164717Y0169802D03*
X0164717Y0169732D03*
X0164717Y0169592D03*
X0164717Y0169452D03*
X0164717Y0169382D03*
X0164717Y0169242D03*
X0164717Y0169102D03*
X0164717Y0169032D03*
X0164717Y0168892D03*
X0164717Y0168752D03*
X0164717Y0168682D03*
X0164717Y0168542D03*
X0164717Y0168402D03*
X0164717Y0168332D03*
X0164717Y0168192D03*
X0164717Y0168052D03*
X0164717Y0167982D03*
X0161007Y0173652D03*
X0161007Y0173792D03*
X0154637Y0174002D03*
X0154567Y0173792D03*
X0154497Y0173652D03*
X0154497Y0173582D03*
X0154567Y0171132D03*
X0154637Y0170992D03*
X0154707Y0170852D03*
X0145047Y0170852D03*
X0145047Y0170782D03*
X0145047Y0170642D03*
X0145047Y0170502D03*
X0145047Y0170432D03*
X0145047Y0170292D03*
X0145047Y0170152D03*
X0145047Y0170082D03*
X0145047Y0169942D03*
X0145047Y0169802D03*
X0145047Y0169732D03*
X0145047Y0169592D03*
X0145047Y0169452D03*
X0145047Y0169382D03*
X0145047Y0169242D03*
X0145047Y0169102D03*
X0145047Y0169032D03*
X0145047Y0168892D03*
X0145047Y0168752D03*
X0145047Y0168682D03*
X0145047Y0168542D03*
X0145047Y0168402D03*
X0145047Y0168332D03*
X0145047Y0168192D03*
X0145047Y0168052D03*
X0145047Y0167982D03*
X0141267Y0169942D03*
X0141407Y0170782D03*
X0145047Y0170992D03*
X0145047Y0171132D03*
X0145047Y0171202D03*
X0145047Y0171342D03*
X0145047Y0171482D03*
X0145047Y0171552D03*
X0145047Y0171692D03*
X0145047Y0171832D03*
X0145047Y0171902D03*
X0145047Y0172042D03*
X0145047Y0172182D03*
X0145047Y0172252D03*
X0145047Y0172392D03*
X0145047Y0172532D03*
X0145047Y0172602D03*
X0145047Y0172742D03*
X0145047Y0172882D03*
X0145047Y0172952D03*
X0145047Y0176242D03*
X0145047Y0176382D03*
X0145047Y0176452D03*
X0145047Y0176592D03*
X0145047Y0176732D03*
X0145047Y0176802D03*
X0145047Y0176942D03*
X0145047Y0177082D03*
X0145047Y0177152D03*
X0145047Y0177292D03*
X0145047Y0177432D03*
X0145047Y0177502D03*
X0145047Y0177642D03*
X0145047Y0177782D03*
X0145047Y0177852D03*
X0145047Y0177992D03*
X0145047Y0178132D03*
X0145047Y0178202D03*
X0145047Y0178342D03*
X0145047Y0178482D03*
X0145047Y0178552D03*
X0145047Y0178692D03*
X0145047Y0178832D03*
X0145047Y0178902D03*
X0145047Y0179042D03*
X0145047Y0179182D03*
X0145047Y0179252D03*
X0145047Y0179392D03*
X0145047Y0179532D03*
X0145047Y0179602D03*
X0145047Y0179742D03*
X0145047Y0179882D03*
X0145047Y0179952D03*
X0145047Y0180092D03*
X0145047Y0180232D03*
X0145047Y0180302D03*
X0145047Y0180442D03*
X0145047Y0180582D03*
X0136927Y0175052D03*
X0136857Y0174282D03*
X0133567Y0173582D03*
X0133497Y0173792D03*
X0127127Y0174002D03*
X0127057Y0173792D03*
X0126987Y0173652D03*
X0126987Y0173582D03*
X0127057Y0171202D03*
X0127057Y0171132D03*
X0127127Y0170992D03*
X0123557Y0171832D03*
X0123557Y0171902D03*
X0123557Y0172042D03*
X0123557Y0172182D03*
X0123557Y0172882D03*
X0123557Y0172952D03*
X0123557Y0173092D03*
X0123557Y0176382D03*
X0123557Y0176452D03*
X0123557Y0176592D03*
X0123557Y0176732D03*
X0123557Y0176802D03*
X0123557Y0176942D03*
X0123557Y0177082D03*
X0123557Y0177152D03*
X0123557Y0177292D03*
X0123557Y0177432D03*
X0123557Y0177502D03*
X0123557Y0177642D03*
X0123557Y0177782D03*
X0123557Y0177852D03*
X0123557Y0177992D03*
X0123557Y0178132D03*
X0123557Y0178202D03*
X0123557Y0178342D03*
X0123557Y0178482D03*
X0123557Y0178552D03*
X0123557Y0178692D03*
X0123557Y0178832D03*
X0123557Y0178902D03*
X0123557Y0179042D03*
X0123557Y0179182D03*
X0123557Y0179252D03*
X0123557Y0179392D03*
X0123557Y0179532D03*
X0123557Y0179602D03*
X0123557Y0179742D03*
X0123557Y0179882D03*
X0123557Y0179952D03*
X0123557Y0180092D03*
X0123557Y0180232D03*
X0123557Y0180302D03*
X0123557Y0180442D03*
X0123557Y0180582D03*
X0116697Y0172952D03*
X0116697Y0172882D03*
X0116697Y0172742D03*
X0116697Y0172602D03*
X0116697Y0172532D03*
X0116697Y0172392D03*
X0116697Y0172252D03*
X0116697Y0172182D03*
X0116697Y0172042D03*
X0113617Y0172392D03*
X0113617Y0172532D03*
X0113617Y0172602D03*
X0113547Y0172882D03*
X0113547Y0172952D03*
X0113547Y0173092D03*
X0113547Y0172252D03*
X0113547Y0172182D03*
X0113547Y0172042D03*
X0113547Y0171902D03*
X0119567Y0167982D03*
X0123557Y0167982D03*
X0123557Y0168052D03*
X0123557Y0168192D03*
X0123557Y0168332D03*
X0123557Y0168402D03*
X0123557Y0168542D03*
X0123557Y0168682D03*
X0123557Y0168752D03*
X0123557Y0168892D03*
X0106477Y0172042D03*
X0106477Y0172952D03*
X0097727Y0173442D03*
X0097657Y0173302D03*
X0097657Y0173232D03*
X0097657Y0173092D03*
X0097587Y0172742D03*
X0097587Y0172602D03*
X0097587Y0172532D03*
X0097587Y0172392D03*
X0097657Y0171902D03*
X0097657Y0171832D03*
X0097657Y0171692D03*
X0097727Y0171552D03*
X0097727Y0171482D03*
X0100597Y0156782D03*
D16*
X0119567Y0168052D03*
X0117117Y0170782D03*
X0116977Y0174002D03*
X0113127Y0174282D03*
X0106827Y0174142D03*
X0106757Y0170992D03*
X0106827Y0170852D03*
X0103257Y0170152D03*
X0098007Y0174142D03*
X0101157Y0177082D03*
X0123417Y0173932D03*
X0123417Y0171202D03*
X0123417Y0171132D03*
X0127407Y0170502D03*
X0133217Y0174492D03*
X0137137Y0175192D03*
X0139167Y0177082D03*
X0145187Y0174002D03*
X0141267Y0170992D03*
X0150927Y0174282D03*
X0150857Y0174492D03*
X0154917Y0170502D03*
X0160727Y0174492D03*
X0160657Y0174632D03*
X0157857Y0177082D03*
X0169687Y0179182D03*
X0164577Y0156852D03*
D17*
X0133147Y0174632D03*
X0117047Y0174142D03*
X0113197Y0174142D03*
X0113197Y0170852D03*
X0106897Y0170782D03*
X0100597Y0156852D03*
D18*
X0100562Y0156922D03*
X0107212Y0170362D03*
X0112742Y0174772D03*
X0117432Y0170362D03*
X0123242Y0174422D03*
X0164542Y0156922D03*
D19*
X0164542Y0156992D03*
X0160272Y0174982D03*
X0145432Y0174632D03*
X0132762Y0174982D03*
X0127932Y0174982D03*
X0123172Y0170502D03*
X0112672Y0174842D03*
X0098462Y0174702D03*
X0100562Y0156992D03*
D20*
X0100562Y0157062D03*
X0100562Y0162522D03*
X0098672Y0170222D03*
X0123032Y0174772D03*
X0140812Y0171412D03*
X0164542Y0162522D03*
X0164542Y0157062D03*
X0170772Y0180512D03*
D21*
X0157892Y0176942D03*
X0149002Y0176732D03*
X0130382Y0176942D03*
X0122962Y0174842D03*
X0100562Y0162452D03*
X0164542Y0162452D03*
X0164542Y0157132D03*
D22*
X0140707Y0171482D03*
X0137557Y0173652D03*
X0117887Y0175052D03*
X0100597Y0157132D03*
D23*
X0100597Y0157202D03*
X0100597Y0162382D03*
X0137697Y0173582D03*
X0164577Y0162382D03*
X0164577Y0157202D03*
X0170597Y0180092D03*
D24*
X0170492Y0179672D03*
X0164542Y0162312D03*
X0164542Y0157272D03*
D25*
X0140462Y0171622D03*
X0110012Y0176872D03*
X0100562Y0162312D03*
X0100562Y0157272D03*
D26*
X0100562Y0157342D03*
X0100562Y0162242D03*
X0110012Y0168192D03*
X0122682Y0175052D03*
X0130452Y0168192D03*
X0138922Y0168192D03*
X0137942Y0173442D03*
X0164542Y0162242D03*
X0164542Y0157342D03*
D27*
X0164542Y0157412D03*
X0164542Y0162172D03*
X0122612Y0170012D03*
X0100562Y0162172D03*
X0100562Y0157412D03*
D28*
X0100562Y0157482D03*
X0100562Y0162102D03*
X0148932Y0176382D03*
X0164542Y0162102D03*
X0164542Y0157482D03*
D29*
X0164542Y0157552D03*
X0164542Y0162032D03*
X0140112Y0171832D03*
X0110012Y0176732D03*
X0101122Y0168332D03*
X0100562Y0162032D03*
X0100562Y0157552D03*
D30*
X0164542Y0157622D03*
X0164542Y0161962D03*
D31*
X0100597Y0161962D03*
X0100597Y0157622D03*
D32*
X0100562Y0157692D03*
X0100562Y0161892D03*
X0139832Y0172042D03*
X0164542Y0161892D03*
X0164542Y0157692D03*
D33*
X0164542Y0157762D03*
X0139762Y0172112D03*
X0119532Y0176312D03*
D34*
X0119497Y0168822D03*
X0100597Y0161822D03*
X0100597Y0157762D03*
X0138397Y0173162D03*
X0164577Y0161822D03*
D35*
X0164542Y0161752D03*
X0164542Y0157832D03*
X0157962Y0168402D03*
X0157892Y0176592D03*
X0138502Y0173092D03*
X0138852Y0168402D03*
X0130452Y0168402D03*
X0130382Y0176592D03*
X0110012Y0168402D03*
X0101192Y0176592D03*
D36*
X0119497Y0168892D03*
X0100597Y0161752D03*
X0100597Y0157832D03*
D37*
X0100562Y0157902D03*
X0100562Y0161682D03*
X0110012Y0176592D03*
X0139692Y0172182D03*
X0164542Y0161682D03*
X0164542Y0157902D03*
D38*
X0164542Y0157972D03*
X0138852Y0168472D03*
X0138852Y0172812D03*
X0130452Y0168472D03*
X0110012Y0168472D03*
X0110012Y0176522D03*
X0101192Y0176522D03*
X0100562Y0157972D03*
D39*
X0100597Y0158042D03*
X0100597Y0161542D03*
X0138957Y0172742D03*
X0139237Y0172532D03*
X0164577Y0161542D03*
X0164577Y0158042D03*
D40*
X0164542Y0158112D03*
X0164542Y0161472D03*
D41*
X0101122Y0168612D03*
X0100562Y0161472D03*
X0100562Y0158112D03*
D42*
X0130417Y0168542D03*
X0138817Y0168542D03*
X0164577Y0158182D03*
D43*
X0100597Y0158182D03*
D44*
X0100562Y0158252D03*
X0100562Y0161332D03*
X0101192Y0176452D03*
X0110012Y0176452D03*
X0139342Y0176382D03*
X0164542Y0161332D03*
X0164542Y0158252D03*
D45*
X0164577Y0158322D03*
X0164577Y0161262D03*
X0169547Y0176172D03*
X0169547Y0176312D03*
X0169547Y0176522D03*
X0169547Y0176662D03*
X0169547Y0176872D03*
X0169547Y0177012D03*
X0169547Y0177222D03*
X0169547Y0177362D03*
X0169547Y0177572D03*
X0169547Y0177712D03*
X0100597Y0161262D03*
X0100597Y0158322D03*
D46*
X0100562Y0158392D03*
X0100562Y0161192D03*
X0101122Y0168682D03*
X0101192Y0176382D03*
X0110012Y0176382D03*
X0164542Y0161192D03*
X0164542Y0158392D03*
D47*
X0164542Y0158462D03*
X0164542Y0161122D03*
X0110012Y0176312D03*
X0100562Y0161122D03*
X0100562Y0158462D03*
D48*
X0100562Y0158532D03*
X0100562Y0160982D03*
X0100562Y0161052D03*
X0110012Y0168682D03*
X0130452Y0168682D03*
X0164542Y0161052D03*
X0164542Y0160982D03*
X0164542Y0158602D03*
X0164542Y0158532D03*
D49*
X0157927Y0168682D03*
X0138747Y0168682D03*
X0100597Y0158602D03*
D50*
X0101122Y0168822D03*
X0164542Y0158672D03*
D51*
X0164577Y0160912D03*
X0100597Y0160912D03*
X0100597Y0158672D03*
X0101227Y0176312D03*
D52*
X0110012Y0168752D03*
X0100562Y0160842D03*
X0100562Y0158742D03*
X0130382Y0176242D03*
X0139412Y0176242D03*
X0164542Y0160842D03*
X0164542Y0158742D03*
D53*
X0164577Y0158812D03*
X0164577Y0160772D03*
X0139377Y0176172D03*
X0100597Y0160772D03*
X0100597Y0158812D03*
D54*
X0101192Y0176242D03*
X0130452Y0168752D03*
X0139342Y0176102D03*
X0164542Y0160702D03*
X0164542Y0160632D03*
X0164542Y0158952D03*
X0164542Y0158882D03*
D55*
X0157962Y0168752D03*
X0138922Y0175402D03*
X0110012Y0176242D03*
X0100562Y0160702D03*
X0100562Y0160632D03*
X0100562Y0158952D03*
X0100562Y0158882D03*
D56*
X0138957Y0175472D03*
X0139027Y0175612D03*
X0139167Y0175822D03*
X0139237Y0175962D03*
X0164577Y0160562D03*
X0164577Y0159022D03*
D57*
X0100597Y0159022D03*
X0100597Y0160562D03*
D58*
X0100562Y0160352D03*
X0100562Y0160282D03*
X0100562Y0160142D03*
X0100562Y0160002D03*
X0100562Y0159932D03*
X0100562Y0159652D03*
X0100562Y0159582D03*
X0100562Y0159442D03*
X0100562Y0159302D03*
X0100562Y0159232D03*
X0101122Y0168892D03*
X0130382Y0176102D03*
X0157892Y0176102D03*
X0164542Y0160352D03*
X0164542Y0160282D03*
X0164542Y0160142D03*
X0164542Y0160002D03*
X0164542Y0159932D03*
X0164542Y0159652D03*
X0164542Y0159582D03*
X0164542Y0159442D03*
X0164542Y0159302D03*
X0164542Y0159232D03*
X0164542Y0159092D03*
D59*
X0139097Y0175682D03*
X0139097Y0175752D03*
X0100597Y0160492D03*
X0100597Y0159092D03*
D60*
X0100562Y0159162D03*
X0100562Y0159372D03*
X0100562Y0159512D03*
X0100562Y0160072D03*
X0100562Y0160212D03*
X0100562Y0160422D03*
X0101192Y0176172D03*
X0110012Y0176172D03*
X0130452Y0168822D03*
X0138712Y0168822D03*
X0157962Y0168822D03*
X0164542Y0160422D03*
X0164542Y0160212D03*
X0164542Y0160072D03*
X0164542Y0159862D03*
X0164542Y0159722D03*
X0164542Y0159512D03*
X0164542Y0159372D03*
X0164542Y0159162D03*
D61*
X0100597Y0159722D03*
X0100597Y0159862D03*
D62*
X0100597Y0159792D03*
X0164577Y0159792D03*
D63*
X0164577Y0160492D03*
X0139307Y0176032D03*
X0139167Y0175892D03*
X0138957Y0175542D03*
X0138887Y0175332D03*
D64*
X0139342Y0176452D03*
X0157892Y0176452D03*
X0164542Y0161402D03*
D65*
X0157962Y0168542D03*
X0139132Y0172602D03*
X0130382Y0176452D03*
X0110012Y0168542D03*
X0100562Y0161402D03*
D66*
X0100597Y0161612D03*
X0130347Y0176522D03*
X0139517Y0172322D03*
X0157857Y0176522D03*
X0164577Y0161612D03*
D67*
X0164577Y0162592D03*
X0157927Y0167982D03*
X0155267Y0170152D03*
X0130417Y0167982D03*
X0123207Y0174492D03*
X0119567Y0176942D03*
X0117467Y0170292D03*
X0112777Y0170292D03*
X0107387Y0174842D03*
X0098357Y0170432D03*
X0100597Y0162592D03*
D68*
X0098217Y0170572D03*
X0117327Y0174562D03*
X0123277Y0170712D03*
X0145327Y0174422D03*
X0164577Y0162662D03*
X0171017Y0180862D03*
D69*
X0155197Y0170222D03*
X0127687Y0170222D03*
X0112847Y0170362D03*
X0100597Y0162662D03*
X0098287Y0174562D03*
D70*
X0098042Y0170852D03*
X0098042Y0170782D03*
X0106932Y0174282D03*
X0106932Y0174352D03*
X0113092Y0174352D03*
X0113162Y0170782D03*
X0117082Y0170852D03*
X0123382Y0170992D03*
X0123382Y0174002D03*
X0127512Y0174632D03*
X0130382Y0177082D03*
X0137032Y0174002D03*
X0145222Y0174142D03*
X0150822Y0174632D03*
X0155022Y0174632D03*
X0155022Y0170432D03*
X0164542Y0162732D03*
X0171122Y0180932D03*
X0127512Y0170432D03*
X0100562Y0162732D03*
D71*
X0100562Y0162802D03*
X0110012Y0177152D03*
X0119602Y0177082D03*
X0123592Y0172742D03*
X0123592Y0172602D03*
X0123592Y0172532D03*
X0123592Y0172392D03*
X0123592Y0172252D03*
X0126952Y0171552D03*
X0126952Y0171482D03*
X0136892Y0174982D03*
X0141442Y0170642D03*
X0141442Y0170502D03*
X0154462Y0171482D03*
X0154462Y0171552D03*
X0154532Y0171202D03*
X0164542Y0162802D03*
X0169442Y0177782D03*
X0169442Y0177852D03*
X0169442Y0177992D03*
X0169442Y0178132D03*
X0169442Y0178202D03*
X0169442Y0178342D03*
X0169442Y0178482D03*
X0169442Y0178552D03*
D72*
X0100597Y0162872D03*
D73*
X0100562Y0162942D03*
X0103502Y0170502D03*
X0119602Y0167842D03*
X0136472Y0170152D03*
X0164542Y0162942D03*
D74*
X0164577Y0163012D03*
D75*
X0160097Y0170362D03*
X0132587Y0170362D03*
X0100597Y0163012D03*
D76*
X0132937Y0164132D03*
D77*
X0132972Y0164202D03*
D78*
X0132972Y0164272D03*
D79*
X0133007Y0164342D03*
D80*
X0133042Y0164412D03*
D81*
X0133077Y0164482D03*
X0133077Y0164552D03*
D82*
X0133112Y0164622D03*
D83*
X0133147Y0164692D03*
D84*
X0133182Y0164762D03*
D85*
X0133182Y0164832D03*
D86*
X0133252Y0164902D03*
D87*
X0133252Y0164972D03*
D88*
X0133287Y0165042D03*
D89*
X0133322Y0165112D03*
D90*
X0133357Y0165182D03*
X0133357Y0165252D03*
D91*
X0133392Y0165322D03*
D92*
X0133427Y0165392D03*
D93*
X0133462Y0165462D03*
D94*
X0133462Y0165532D03*
D95*
X0133497Y0165602D03*
D96*
X0133532Y0165672D03*
D97*
X0133567Y0165742D03*
D98*
X0133567Y0165812D03*
D99*
X0133602Y0165882D03*
D100*
X0133637Y0165952D03*
D101*
X0133637Y0166022D03*
D102*
X0133707Y0166092D03*
D103*
X0133707Y0166162D03*
D104*
X0133742Y0166232D03*
D105*
X0133777Y0166302D03*
D106*
X0133812Y0166372D03*
D107*
X0133847Y0166442D03*
D108*
X0133847Y0166512D03*
D109*
X0133882Y0166582D03*
D110*
X0133917Y0166652D03*
D111*
X0127127Y0170922D03*
X0126987Y0173512D03*
X0127057Y0173722D03*
X0127057Y0173862D03*
X0123557Y0173162D03*
X0123557Y0173022D03*
X0123557Y0172812D03*
X0123557Y0172112D03*
X0123557Y0171972D03*
X0123557Y0168822D03*
X0123557Y0168612D03*
X0123557Y0168472D03*
X0123557Y0168262D03*
X0123557Y0168122D03*
X0123557Y0167912D03*
X0116697Y0172112D03*
X0116697Y0172322D03*
X0116697Y0172462D03*
X0116697Y0172672D03*
X0116697Y0172812D03*
X0113617Y0172672D03*
X0113547Y0172812D03*
X0113547Y0173022D03*
X0113617Y0172462D03*
X0113617Y0172322D03*
X0113547Y0172112D03*
X0113547Y0171972D03*
X0106477Y0172112D03*
X0106477Y0173022D03*
X0103327Y0170222D03*
X0097657Y0171762D03*
X0097657Y0171972D03*
X0097587Y0172322D03*
X0097587Y0172462D03*
X0097587Y0172672D03*
X0097657Y0173162D03*
X0097657Y0173372D03*
X0097727Y0173512D03*
X0123557Y0176312D03*
X0123557Y0176522D03*
X0123557Y0176662D03*
X0123557Y0176872D03*
X0123557Y0177012D03*
X0123557Y0177222D03*
X0123557Y0177362D03*
X0123557Y0177572D03*
X0123557Y0177712D03*
X0123557Y0177922D03*
X0123557Y0178062D03*
X0123557Y0178272D03*
X0123557Y0178412D03*
X0123557Y0178622D03*
X0123557Y0178762D03*
X0123557Y0178972D03*
X0123557Y0179112D03*
X0123557Y0179322D03*
X0123557Y0179462D03*
X0123557Y0179672D03*
X0123557Y0179812D03*
X0123557Y0180022D03*
X0123557Y0180162D03*
X0123557Y0180372D03*
X0123557Y0180512D03*
X0133497Y0173722D03*
X0133567Y0173512D03*
X0145047Y0173022D03*
X0145047Y0172812D03*
X0145047Y0172672D03*
X0145047Y0172462D03*
X0145047Y0172322D03*
X0145047Y0172112D03*
X0145047Y0171972D03*
X0145047Y0171762D03*
X0145047Y0171622D03*
X0145047Y0171412D03*
X0145047Y0171272D03*
X0145047Y0171062D03*
X0145047Y0170922D03*
X0145047Y0170712D03*
X0145047Y0170572D03*
X0145047Y0170362D03*
X0145047Y0170222D03*
X0145047Y0170012D03*
X0145047Y0169872D03*
X0145047Y0169662D03*
X0145047Y0169522D03*
X0145047Y0169312D03*
X0145047Y0169172D03*
X0145047Y0168962D03*
X0145047Y0168822D03*
X0145047Y0168612D03*
X0145047Y0168472D03*
X0145047Y0168262D03*
X0145047Y0168122D03*
X0145047Y0167912D03*
X0154637Y0170922D03*
X0154497Y0173512D03*
X0154567Y0173722D03*
X0154567Y0173862D03*
X0154637Y0174072D03*
X0161007Y0173722D03*
X0161077Y0173512D03*
X0164717Y0173512D03*
X0164717Y0173372D03*
X0164717Y0173162D03*
X0164717Y0173022D03*
X0164717Y0172812D03*
X0164717Y0172672D03*
X0164717Y0172462D03*
X0164717Y0172322D03*
X0164717Y0172112D03*
X0164717Y0171972D03*
X0164717Y0171762D03*
X0164717Y0171622D03*
X0164717Y0171412D03*
X0164717Y0171272D03*
X0164717Y0171062D03*
X0164717Y0170922D03*
X0164717Y0170712D03*
X0164717Y0170572D03*
X0164717Y0170362D03*
X0164717Y0170222D03*
X0164717Y0170012D03*
X0164717Y0169872D03*
X0164717Y0169662D03*
X0164717Y0169522D03*
X0164717Y0169312D03*
X0164717Y0169172D03*
X0164717Y0168962D03*
X0164717Y0168822D03*
X0164717Y0168612D03*
X0164717Y0168472D03*
X0164717Y0168262D03*
X0164717Y0168122D03*
X0164717Y0167912D03*
X0169407Y0167912D03*
X0169407Y0167772D03*
X0169407Y0167562D03*
X0169407Y0167422D03*
X0169407Y0167212D03*
X0169407Y0167072D03*
X0169407Y0166862D03*
X0169407Y0166722D03*
X0169407Y0168122D03*
X0169407Y0168262D03*
X0169407Y0168472D03*
X0169407Y0168612D03*
X0169407Y0168822D03*
X0169407Y0168962D03*
X0169407Y0169172D03*
X0169407Y0169312D03*
X0169407Y0169522D03*
X0169407Y0169662D03*
X0169407Y0169872D03*
X0169407Y0170012D03*
X0169407Y0170222D03*
X0169407Y0170362D03*
X0169407Y0170572D03*
X0169407Y0170712D03*
X0169407Y0170922D03*
X0169407Y0171062D03*
X0169407Y0171272D03*
X0169407Y0171412D03*
X0169407Y0171622D03*
X0169407Y0171762D03*
X0169407Y0171972D03*
X0169407Y0172112D03*
X0169407Y0172322D03*
X0169407Y0172462D03*
X0169407Y0172672D03*
X0169407Y0172812D03*
X0169407Y0173022D03*
X0169407Y0173162D03*
X0169407Y0173372D03*
X0169407Y0173512D03*
X0169407Y0173722D03*
X0169407Y0173862D03*
X0169407Y0174072D03*
X0169407Y0174212D03*
X0169407Y0174422D03*
X0169407Y0174562D03*
X0169407Y0174772D03*
X0169407Y0174912D03*
X0169407Y0175122D03*
X0169407Y0175262D03*
X0169407Y0175472D03*
X0169407Y0175612D03*
X0169407Y0175822D03*
X0169407Y0175962D03*
X0169477Y0178622D03*
X0169477Y0178762D03*
X0164717Y0178762D03*
X0164717Y0178622D03*
X0164717Y0178412D03*
X0164717Y0178272D03*
X0164717Y0178062D03*
X0164717Y0177922D03*
X0164717Y0177712D03*
X0164717Y0177572D03*
X0164717Y0177362D03*
X0164717Y0177222D03*
X0164717Y0177012D03*
X0164717Y0176872D03*
X0164717Y0176662D03*
X0164717Y0176522D03*
X0164717Y0176312D03*
X0164717Y0176172D03*
X0164717Y0175962D03*
X0164717Y0175822D03*
X0164717Y0175612D03*
X0164717Y0175472D03*
X0164717Y0175262D03*
X0164717Y0175122D03*
X0164717Y0174912D03*
X0164717Y0174772D03*
X0164717Y0174562D03*
X0164717Y0174422D03*
X0164717Y0174212D03*
X0164717Y0174072D03*
X0164717Y0173862D03*
X0164717Y0173722D03*
X0164717Y0178972D03*
X0164717Y0179112D03*
X0164717Y0179322D03*
X0164717Y0179462D03*
X0164717Y0179672D03*
X0164717Y0179812D03*
X0164717Y0180022D03*
X0164717Y0180162D03*
X0164717Y0180372D03*
X0164717Y0180512D03*
X0145047Y0180512D03*
X0145047Y0180372D03*
X0145047Y0180162D03*
X0145047Y0180022D03*
X0145047Y0179812D03*
X0145047Y0179672D03*
X0145047Y0179462D03*
X0145047Y0179322D03*
X0145047Y0179112D03*
X0145047Y0178972D03*
X0145047Y0178762D03*
X0145047Y0178622D03*
X0145047Y0178412D03*
X0145047Y0178272D03*
X0145047Y0178062D03*
X0145047Y0177922D03*
X0145047Y0177712D03*
X0145047Y0177572D03*
X0145047Y0177362D03*
X0145047Y0177222D03*
X0145047Y0177012D03*
X0145047Y0176872D03*
X0145047Y0176662D03*
X0145047Y0176522D03*
X0145047Y0176312D03*
D112*
X0141197Y0174912D03*
X0139097Y0167772D03*
X0103537Y0170712D03*
X0101227Y0167772D03*
D113*
X0119567Y0167772D03*
D114*
X0110012Y0167842D03*
X0157962Y0167842D03*
D115*
X0148967Y0177152D03*
X0139097Y0167842D03*
D116*
X0130452Y0167842D03*
D117*
X0132412Y0170082D03*
X0136542Y0170082D03*
X0159922Y0170082D03*
X0101192Y0167842D03*
D118*
X0106827Y0170922D03*
X0113127Y0170712D03*
X0116977Y0174072D03*
X0123417Y0173862D03*
X0123417Y0171062D03*
X0127477Y0174562D03*
X0130417Y0167912D03*
X0145187Y0174072D03*
X0154917Y0174562D03*
X0160657Y0174562D03*
X0157927Y0167912D03*
D119*
X0151102Y0167912D03*
X0151102Y0168122D03*
X0151102Y0168262D03*
X0151102Y0168472D03*
X0151102Y0168612D03*
X0151102Y0168822D03*
X0151102Y0168962D03*
X0151102Y0169172D03*
X0151102Y0169312D03*
X0151102Y0169522D03*
X0151102Y0169662D03*
X0151102Y0169872D03*
X0151102Y0170012D03*
X0151102Y0170222D03*
X0151102Y0170362D03*
X0151102Y0170572D03*
X0151102Y0170712D03*
X0151102Y0170922D03*
X0151102Y0171062D03*
X0151102Y0171272D03*
X0151102Y0171412D03*
X0151102Y0171622D03*
X0151102Y0171762D03*
X0151102Y0171972D03*
X0151102Y0172112D03*
X0151102Y0172322D03*
X0151102Y0172462D03*
X0151102Y0172672D03*
X0151102Y0172812D03*
X0151102Y0173022D03*
X0151102Y0173162D03*
X0151102Y0173372D03*
X0151102Y0173512D03*
X0151032Y0173722D03*
X0151032Y0173862D03*
X0154742Y0174212D03*
X0160972Y0173862D03*
X0169512Y0178972D03*
X0171262Y0181072D03*
X0145082Y0173512D03*
X0145082Y0173372D03*
X0145082Y0173162D03*
X0136892Y0174212D03*
X0133462Y0173862D03*
X0127232Y0174212D03*
X0127162Y0174072D03*
X0123522Y0173372D03*
X0123522Y0171762D03*
X0123522Y0171622D03*
X0116802Y0171622D03*
X0116732Y0171762D03*
X0116732Y0171972D03*
X0116732Y0173022D03*
X0116732Y0173162D03*
X0113512Y0173162D03*
X0113512Y0173372D03*
X0113512Y0171762D03*
X0113442Y0171412D03*
X0106512Y0171622D03*
X0106512Y0171762D03*
X0106512Y0171972D03*
X0106442Y0172322D03*
X0106442Y0172462D03*
X0106442Y0172672D03*
X0106442Y0172812D03*
X0106512Y0173162D03*
X0106512Y0173372D03*
X0106582Y0173512D03*
X0106652Y0173722D03*
X0103152Y0174912D03*
X0097762Y0173722D03*
X0097692Y0171622D03*
X0097762Y0171412D03*
D120*
X0097972Y0170922D03*
X0106722Y0171062D03*
X0106862Y0174212D03*
X0113232Y0174072D03*
X0113232Y0170922D03*
X0116872Y0173722D03*
X0127372Y0170572D03*
X0136822Y0169872D03*
X0139062Y0167912D03*
X0141162Y0169872D03*
X0150962Y0174212D03*
X0154812Y0174422D03*
X0154882Y0170572D03*
D121*
X0136997Y0174072D03*
X0117047Y0170922D03*
X0110047Y0167912D03*
D122*
X0106687Y0171272D03*
X0106617Y0171412D03*
X0106687Y0173862D03*
X0097937Y0174072D03*
X0097867Y0173862D03*
X0097797Y0171272D03*
X0101157Y0167912D03*
X0113407Y0171272D03*
X0113477Y0171622D03*
X0113477Y0173512D03*
X0113407Y0173722D03*
X0113337Y0173862D03*
X0116767Y0173512D03*
X0116767Y0173372D03*
X0116837Y0171412D03*
X0116907Y0171272D03*
X0116977Y0171062D03*
X0123487Y0171412D03*
X0123487Y0173512D03*
X0127337Y0174422D03*
X0127267Y0170712D03*
X0133427Y0174072D03*
X0133357Y0174212D03*
X0136997Y0175122D03*
X0141337Y0170922D03*
X0145117Y0173722D03*
X0148967Y0177012D03*
X0150997Y0174072D03*
X0154777Y0170712D03*
X0160937Y0174072D03*
X0160867Y0174212D03*
X0160797Y0174422D03*
X0169617Y0179112D03*
D123*
X0169512Y0178902D03*
X0169512Y0178832D03*
X0160972Y0173932D03*
X0161042Y0173582D03*
X0154672Y0174142D03*
X0154602Y0173932D03*
X0154742Y0170782D03*
X0151102Y0170782D03*
X0151102Y0170852D03*
X0151102Y0170992D03*
X0151102Y0171132D03*
X0151102Y0171202D03*
X0151102Y0171342D03*
X0151102Y0171482D03*
X0151102Y0171552D03*
X0151102Y0171692D03*
X0151102Y0171832D03*
X0151102Y0171902D03*
X0151102Y0172042D03*
X0151102Y0172182D03*
X0151102Y0172252D03*
X0151102Y0172392D03*
X0151102Y0172532D03*
X0151102Y0172602D03*
X0151102Y0172742D03*
X0151102Y0172882D03*
X0151102Y0172952D03*
X0151102Y0173092D03*
X0151102Y0173232D03*
X0151102Y0173302D03*
X0151102Y0173442D03*
X0151032Y0173792D03*
X0151032Y0173932D03*
X0151102Y0170642D03*
X0151102Y0170502D03*
X0151102Y0170432D03*
X0151102Y0170292D03*
X0151102Y0170152D03*
X0151102Y0170082D03*
X0151102Y0169942D03*
X0151102Y0169802D03*
X0151102Y0169732D03*
X0151102Y0169592D03*
X0151102Y0169452D03*
X0151102Y0169382D03*
X0151102Y0169242D03*
X0151102Y0169102D03*
X0151102Y0169032D03*
X0151102Y0168892D03*
X0151102Y0168752D03*
X0151102Y0168682D03*
X0151102Y0168542D03*
X0151102Y0168402D03*
X0151102Y0168332D03*
X0151102Y0168192D03*
X0151102Y0168052D03*
X0151102Y0167982D03*
X0145082Y0173092D03*
X0145082Y0173232D03*
X0145082Y0173302D03*
X0145082Y0173442D03*
X0145082Y0173582D03*
X0141372Y0170852D03*
X0133532Y0173652D03*
X0133462Y0173932D03*
X0133462Y0174002D03*
X0127162Y0174142D03*
X0127092Y0173932D03*
X0127232Y0170852D03*
X0127232Y0170782D03*
X0123522Y0171552D03*
X0123522Y0171692D03*
X0123522Y0173232D03*
X0123522Y0173302D03*
X0123522Y0173442D03*
X0116732Y0173232D03*
X0116732Y0173092D03*
X0116732Y0171902D03*
X0116732Y0171832D03*
X0116802Y0171552D03*
X0116802Y0171482D03*
X0116872Y0171342D03*
X0113512Y0171692D03*
X0113512Y0171832D03*
X0113582Y0172742D03*
X0113512Y0173232D03*
X0113512Y0173302D03*
X0113442Y0173582D03*
X0113442Y0173652D03*
X0106582Y0173582D03*
X0106582Y0173442D03*
X0106512Y0173302D03*
X0106512Y0173232D03*
X0106512Y0173092D03*
X0106442Y0172882D03*
X0106442Y0172742D03*
X0106442Y0172602D03*
X0106442Y0172532D03*
X0106442Y0172392D03*
X0106442Y0172252D03*
X0106442Y0172182D03*
X0106512Y0171902D03*
X0106512Y0171832D03*
X0106512Y0171692D03*
X0106582Y0171552D03*
X0106582Y0171482D03*
X0097762Y0171342D03*
X0097762Y0173582D03*
X0097762Y0173652D03*
D124*
X0098392Y0174632D03*
X0107212Y0174702D03*
X0112812Y0174702D03*
X0117432Y0174702D03*
X0123242Y0174352D03*
X0123242Y0170642D03*
X0127792Y0170152D03*
X0136962Y0169802D03*
X0138992Y0167982D03*
X0145362Y0174492D03*
X0170982Y0180792D03*
X0110012Y0167982D03*
X0107282Y0170292D03*
D125*
X0101157Y0167982D03*
X0098287Y0170502D03*
X0117397Y0170432D03*
X0117257Y0174492D03*
X0127687Y0174842D03*
X0141057Y0171202D03*
X0150647Y0174842D03*
X0155197Y0174842D03*
D126*
X0157962Y0168052D03*
X0130452Y0168052D03*
X0123032Y0170292D03*
X0112392Y0174982D03*
X0107632Y0174982D03*
D127*
X0098637Y0174842D03*
X0123067Y0174702D03*
X0128037Y0175052D03*
X0139027Y0168052D03*
X0148967Y0176802D03*
D128*
X0155547Y0175052D03*
X0110047Y0168052D03*
D129*
X0112567Y0170152D03*
X0107457Y0170152D03*
X0101157Y0168052D03*
X0098497Y0170292D03*
X0117677Y0170152D03*
X0119567Y0168192D03*
X0123137Y0170432D03*
X0127897Y0170082D03*
X0123137Y0174632D03*
X0117537Y0174842D03*
X0137347Y0173792D03*
X0140917Y0171342D03*
X0155407Y0170082D03*
X0155407Y0174982D03*
X0170877Y0180652D03*
D130*
X0157892Y0176872D03*
X0157962Y0168122D03*
X0130452Y0168122D03*
X0130382Y0176872D03*
X0110012Y0168122D03*
X0101192Y0176872D03*
D131*
X0138957Y0168122D03*
X0170527Y0179812D03*
D132*
X0160377Y0174912D03*
X0155337Y0174912D03*
X0148967Y0176872D03*
X0145397Y0174562D03*
X0140987Y0171272D03*
X0137277Y0173862D03*
X0132867Y0174912D03*
X0127827Y0174912D03*
X0123207Y0170572D03*
X0119567Y0168122D03*
X0117467Y0174772D03*
X0107317Y0174772D03*
X0098427Y0170362D03*
D133*
X0101122Y0168122D03*
D134*
X0119567Y0176592D03*
X0139237Y0176802D03*
X0140357Y0171692D03*
X0157927Y0168192D03*
X0157857Y0176802D03*
D135*
X0101122Y0168192D03*
D136*
X0110012Y0168262D03*
X0119532Y0168612D03*
X0119532Y0176522D03*
X0130452Y0168262D03*
X0138082Y0173372D03*
X0157962Y0168262D03*
D137*
X0138922Y0168262D03*
D138*
X0137487Y0173722D03*
X0119567Y0168262D03*
X0170737Y0180372D03*
D139*
X0101157Y0168262D03*
D140*
X0119567Y0176382D03*
X0138887Y0168332D03*
X0148967Y0176242D03*
X0157927Y0168332D03*
D141*
X0140042Y0171902D03*
X0138292Y0173232D03*
X0130452Y0168332D03*
D142*
X0128212Y0169942D03*
X0122892Y0170152D03*
X0119532Y0168332D03*
X0110012Y0176942D03*
X0140602Y0171552D03*
D143*
X0110012Y0168332D03*
X0101122Y0168402D03*
D144*
X0107877Y0175052D03*
X0112147Y0175052D03*
X0119567Y0168402D03*
X0122787Y0170082D03*
X0145817Y0174982D03*
X0148967Y0176592D03*
D145*
X0139307Y0172462D03*
X0139027Y0172672D03*
X0157927Y0168472D03*
D146*
X0170422Y0179322D03*
X0119532Y0168472D03*
D147*
X0101122Y0168472D03*
X0139272Y0176522D03*
D148*
X0130382Y0176802D03*
X0119532Y0168542D03*
X0101192Y0176802D03*
D149*
X0101122Y0168542D03*
X0138782Y0172882D03*
X0139412Y0172392D03*
D150*
X0138782Y0168612D03*
X0130452Y0168612D03*
X0157962Y0168612D03*
D151*
X0110012Y0168612D03*
D152*
X0119567Y0168682D03*
X0119567Y0176452D03*
X0138187Y0173302D03*
D153*
X0138747Y0168752D03*
X0157857Y0176242D03*
D154*
X0119497Y0168752D03*
D155*
X0101122Y0168752D03*
D156*
X0110012Y0168822D03*
X0130382Y0176172D03*
D157*
X0110012Y0176102D03*
X0101262Y0176102D03*
X0110012Y0168892D03*
X0157962Y0168892D03*
D158*
X0138677Y0168892D03*
D159*
X0130487Y0168892D03*
X0130347Y0176032D03*
X0157857Y0176032D03*
D160*
X0157962Y0168962D03*
X0130452Y0168962D03*
X0110012Y0168962D03*
D161*
X0130347Y0175962D03*
X0138677Y0168962D03*
X0157857Y0175962D03*
D162*
X0120827Y0176172D03*
X0120827Y0168962D03*
D163*
X0101122Y0168962D03*
D164*
X0130452Y0169032D03*
X0157962Y0169032D03*
D165*
X0157857Y0175892D03*
X0138677Y0169032D03*
X0130347Y0175892D03*
X0101157Y0169102D03*
D166*
X0110012Y0169802D03*
X0120792Y0169032D03*
X0120792Y0176102D03*
X0147812Y0175682D03*
D167*
X0110047Y0169032D03*
X0101227Y0176032D03*
D168*
X0101122Y0169032D03*
D169*
X0130382Y0175752D03*
X0138922Y0169732D03*
X0138642Y0169102D03*
X0157962Y0169102D03*
D170*
X0130487Y0169102D03*
X0101227Y0175892D03*
D171*
X0109977Y0175192D03*
X0120757Y0176032D03*
X0120757Y0169102D03*
X0147847Y0175542D03*
D172*
X0110012Y0175892D03*
X0110012Y0169102D03*
D173*
X0101227Y0175822D03*
X0130487Y0169172D03*
X0138607Y0169172D03*
X0138887Y0169662D03*
X0157997Y0169172D03*
D174*
X0147882Y0175472D03*
X0120722Y0175962D03*
X0120722Y0169172D03*
X0110012Y0169872D03*
X0110012Y0175122D03*
D175*
X0110047Y0169172D03*
X0130347Y0175822D03*
D176*
X0157857Y0175822D03*
X0101157Y0169172D03*
D177*
X0110012Y0175752D03*
X0130032Y0169732D03*
X0130172Y0169592D03*
X0138642Y0169242D03*
X0138712Y0169382D03*
X0138782Y0169452D03*
X0138852Y0169592D03*
X0157542Y0169732D03*
X0157962Y0169242D03*
D178*
X0157857Y0169382D03*
X0157787Y0169452D03*
X0157647Y0169592D03*
X0157507Y0169802D03*
X0157857Y0175682D03*
X0130347Y0175682D03*
X0130347Y0169382D03*
X0130487Y0169242D03*
D179*
X0120722Y0169242D03*
X0147882Y0175332D03*
X0147882Y0175402D03*
D180*
X0157857Y0175752D03*
X0129997Y0169802D03*
X0110047Y0169242D03*
X0101157Y0169242D03*
D181*
X0130417Y0169312D03*
X0138677Y0169312D03*
X0157717Y0169522D03*
X0157927Y0169312D03*
D182*
X0147917Y0175262D03*
X0120687Y0169312D03*
D183*
X0130382Y0175612D03*
X0110012Y0169312D03*
D184*
X0101157Y0169312D03*
X0130137Y0169662D03*
X0130207Y0169522D03*
X0157647Y0169662D03*
X0157857Y0175612D03*
D185*
X0147952Y0175052D03*
X0120652Y0175752D03*
X0120652Y0169382D03*
D186*
X0130312Y0169452D03*
X0110012Y0169382D03*
X0110012Y0175682D03*
D187*
X0101227Y0175682D03*
X0101157Y0169382D03*
X0130347Y0175542D03*
X0157857Y0175542D03*
D188*
X0120617Y0175682D03*
X0120617Y0169452D03*
D189*
X0110047Y0169452D03*
X0101157Y0169452D03*
X0100877Y0175192D03*
X0101017Y0175402D03*
X0101157Y0175542D03*
D190*
X0129962Y0169872D03*
X0138782Y0169522D03*
X0157472Y0169872D03*
D191*
X0120582Y0169522D03*
X0120582Y0175612D03*
D192*
X0110012Y0169522D03*
D193*
X0101157Y0169522D03*
X0100877Y0170012D03*
D194*
X0120582Y0169592D03*
D195*
X0110012Y0169592D03*
X0101192Y0169592D03*
X0101052Y0169802D03*
X0100912Y0169942D03*
X0100842Y0170082D03*
X0110012Y0175402D03*
X0147672Y0176032D03*
D196*
X0120547Y0169662D03*
D197*
X0110012Y0169662D03*
X0147742Y0175822D03*
D198*
X0147707Y0175962D03*
X0157857Y0175262D03*
X0130347Y0175262D03*
X0101157Y0169662D03*
D199*
X0120512Y0169732D03*
X0120512Y0169802D03*
X0120512Y0175402D03*
D200*
X0130347Y0175192D03*
X0110047Y0169732D03*
X0157857Y0175192D03*
D201*
X0101087Y0169732D03*
D202*
X0098077Y0174282D03*
X0098147Y0174352D03*
X0106967Y0170642D03*
X0113057Y0170642D03*
X0112987Y0174492D03*
X0117117Y0174282D03*
X0117187Y0170642D03*
X0123347Y0174142D03*
X0133077Y0174702D03*
X0141057Y0169802D03*
X0145257Y0174282D03*
X0148967Y0176942D03*
X0150717Y0174702D03*
X0155057Y0174702D03*
X0155127Y0170292D03*
X0160587Y0174702D03*
D203*
X0120477Y0169872D03*
D204*
X0110012Y0175472D03*
X0100982Y0169872D03*
D205*
X0097867Y0171132D03*
X0097797Y0171202D03*
X0097797Y0173792D03*
X0097867Y0173932D03*
X0106617Y0173652D03*
X0106687Y0173792D03*
X0106617Y0171342D03*
X0106687Y0171202D03*
X0106687Y0171132D03*
X0113337Y0171132D03*
X0113337Y0171202D03*
X0113407Y0171342D03*
X0113477Y0171482D03*
X0113477Y0171552D03*
X0113477Y0173442D03*
X0113337Y0173792D03*
X0116767Y0173442D03*
X0116767Y0173302D03*
X0116837Y0173582D03*
X0116837Y0173652D03*
X0116767Y0171692D03*
X0123487Y0171482D03*
X0123487Y0173582D03*
X0123487Y0173652D03*
X0127267Y0174282D03*
X0133357Y0174282D03*
X0133427Y0174142D03*
X0136927Y0174142D03*
X0132167Y0169942D03*
X0145117Y0173652D03*
X0145117Y0173792D03*
X0150997Y0174002D03*
X0150997Y0174142D03*
X0151067Y0173652D03*
X0151067Y0173582D03*
X0154777Y0174282D03*
X0154777Y0174352D03*
X0160937Y0174142D03*
X0160937Y0174002D03*
X0159677Y0169942D03*
X0169547Y0179042D03*
D206*
X0155722Y0169942D03*
D207*
X0139202Y0177152D03*
X0136682Y0169942D03*
D208*
X0120442Y0169942D03*
X0120442Y0175192D03*
D209*
X0120687Y0175892D03*
X0110047Y0169942D03*
X0147917Y0175192D03*
D210*
X0159817Y0170012D03*
X0132307Y0170012D03*
D211*
X0155547Y0170012D03*
D212*
X0154602Y0171062D03*
X0154532Y0171272D03*
X0154462Y0171412D03*
X0141442Y0170712D03*
X0141442Y0170572D03*
X0141302Y0170012D03*
X0127092Y0171062D03*
X0126952Y0171412D03*
X0123592Y0172322D03*
X0123592Y0172462D03*
X0123592Y0172672D03*
X0169442Y0177922D03*
X0169442Y0178062D03*
X0169442Y0178272D03*
X0169442Y0178412D03*
D213*
X0136577Y0170012D03*
D214*
X0128037Y0170012D03*
X0123067Y0170362D03*
X0117677Y0174912D03*
X0119567Y0176872D03*
X0145537Y0174772D03*
D215*
X0139237Y0176872D03*
X0148967Y0176662D03*
X0170597Y0180022D03*
X0118027Y0170012D03*
X0112217Y0170012D03*
X0107807Y0170012D03*
D216*
X0097622Y0172042D03*
X0097622Y0172182D03*
X0097622Y0172252D03*
X0097622Y0172882D03*
X0097622Y0172952D03*
X0127022Y0171342D03*
X0136822Y0174352D03*
X0141372Y0170082D03*
D217*
X0145607Y0174842D03*
X0139237Y0176942D03*
X0117747Y0174982D03*
X0117817Y0170082D03*
X0112427Y0170082D03*
X0107597Y0170082D03*
X0101157Y0176942D03*
X0170737Y0180442D03*
D218*
X0160027Y0170152D03*
X0141127Y0175052D03*
X0132517Y0170152D03*
X0103467Y0174632D03*
D219*
X0101157Y0177152D03*
X0130347Y0177152D03*
X0136787Y0174842D03*
X0136787Y0174702D03*
X0136787Y0174632D03*
X0136787Y0174492D03*
X0141407Y0170292D03*
X0141407Y0170152D03*
X0154497Y0171342D03*
X0157857Y0177152D03*
D220*
X0170667Y0180232D03*
X0170667Y0180302D03*
X0119567Y0176802D03*
X0098777Y0170152D03*
D221*
X0132517Y0170222D03*
X0160027Y0170222D03*
D222*
X0141407Y0170222D03*
X0141407Y0170362D03*
X0136787Y0174422D03*
X0136787Y0174562D03*
X0136787Y0174772D03*
D223*
X0136402Y0170222D03*
X0148932Y0177222D03*
X0103502Y0170572D03*
D224*
X0122962Y0170222D03*
D225*
X0117572Y0170222D03*
X0112672Y0170222D03*
X0107352Y0170222D03*
X0150542Y0174912D03*
X0170912Y0180722D03*
D226*
X0160097Y0170292D03*
X0132587Y0170292D03*
D227*
X0136367Y0170292D03*
D228*
X0141162Y0171132D03*
X0145292Y0174352D03*
X0132972Y0174842D03*
X0127582Y0174702D03*
X0127582Y0170292D03*
X0123312Y0170782D03*
X0123312Y0170852D03*
X0117292Y0170502D03*
X0117152Y0174352D03*
X0112882Y0174632D03*
X0110012Y0177082D03*
X0107142Y0174632D03*
X0107072Y0174492D03*
X0107072Y0170502D03*
X0107142Y0170432D03*
X0112882Y0170432D03*
X0112952Y0170502D03*
X0098182Y0170642D03*
X0098252Y0174492D03*
X0160482Y0174842D03*
X0169792Y0179252D03*
D229*
X0171437Y0181142D03*
X0148967Y0177082D03*
X0103397Y0170292D03*
D230*
X0098077Y0170712D03*
X0107037Y0170572D03*
X0113057Y0174422D03*
X0112917Y0174562D03*
X0107107Y0174562D03*
X0117187Y0174422D03*
X0117257Y0170572D03*
X0123347Y0170922D03*
X0127547Y0170362D03*
X0119567Y0177012D03*
X0155057Y0170362D03*
D231*
X0136332Y0170362D03*
D232*
X0103432Y0170362D03*
D233*
X0132622Y0170432D03*
X0136262Y0170502D03*
X0160132Y0170432D03*
D234*
X0141477Y0170432D03*
D235*
X0136297Y0170432D03*
D236*
X0103467Y0170432D03*
X0103397Y0174702D03*
D237*
X0103572Y0170992D03*
X0132622Y0170502D03*
X0141372Y0174702D03*
X0160132Y0170502D03*
D238*
X0160132Y0170572D03*
X0103572Y0171062D03*
D239*
X0103607Y0174212D03*
X0136227Y0170572D03*
D240*
X0132657Y0170572D03*
D241*
X0133182Y0174562D03*
X0141232Y0171062D03*
X0145222Y0174212D03*
X0150822Y0174562D03*
X0123382Y0174072D03*
X0117082Y0174212D03*
X0117152Y0170712D03*
X0113022Y0170572D03*
X0113162Y0174212D03*
X0107002Y0174422D03*
X0106932Y0170712D03*
X0098042Y0174212D03*
D242*
X0132692Y0170642D03*
X0141442Y0174632D03*
X0160202Y0170642D03*
D243*
X0160832Y0174282D03*
X0160832Y0174352D03*
X0154882Y0174492D03*
X0154812Y0170642D03*
X0133322Y0174352D03*
X0127372Y0174492D03*
X0116872Y0173792D03*
X0117012Y0170992D03*
X0113232Y0170992D03*
X0106722Y0173932D03*
X0106722Y0174002D03*
D244*
X0136227Y0170642D03*
D245*
X0145152Y0173932D03*
X0150892Y0174352D03*
X0171192Y0181002D03*
X0127302Y0174352D03*
X0127302Y0170642D03*
X0123452Y0171342D03*
X0123452Y0173792D03*
X0116942Y0173932D03*
X0116942Y0171202D03*
X0116942Y0171132D03*
X0113302Y0173932D03*
X0113302Y0174002D03*
X0097902Y0174002D03*
X0097902Y0170992D03*
D246*
X0103502Y0170642D03*
D247*
X0132692Y0170712D03*
X0160202Y0170712D03*
D248*
X0136157Y0170712D03*
X0103607Y0174072D03*
D249*
X0103642Y0173932D03*
X0132692Y0170782D03*
X0160202Y0170782D03*
D250*
X0172487Y0179252D03*
X0141477Y0174492D03*
X0136157Y0170782D03*
D251*
X0103572Y0170782D03*
D252*
X0136157Y0170852D03*
D253*
X0141302Y0174842D03*
X0103572Y0170852D03*
D254*
X0103572Y0170922D03*
X0141372Y0174772D03*
D255*
X0145152Y0173862D03*
X0150892Y0174422D03*
X0133252Y0174422D03*
X0123452Y0173722D03*
X0123452Y0171272D03*
X0116942Y0173862D03*
X0113302Y0171062D03*
X0106792Y0174072D03*
X0097902Y0171062D03*
D256*
X0103572Y0171132D03*
D257*
X0103607Y0171202D03*
D258*
X0097622Y0172112D03*
X0097622Y0172812D03*
X0097622Y0173022D03*
X0127022Y0171272D03*
X0136822Y0174912D03*
D259*
X0103572Y0171272D03*
D260*
X0103572Y0171342D03*
D261*
X0130277Y0171622D03*
X0130277Y0171762D03*
X0130277Y0171972D03*
X0130277Y0173022D03*
X0130277Y0173162D03*
X0130277Y0173372D03*
X0157787Y0173372D03*
X0157787Y0173162D03*
X0157787Y0171762D03*
X0157787Y0171622D03*
D262*
X0157787Y0171692D03*
X0157787Y0171832D03*
X0157787Y0171902D03*
X0157787Y0173232D03*
X0157787Y0173302D03*
X0157787Y0173442D03*
X0130277Y0173442D03*
X0130277Y0173302D03*
X0130277Y0173232D03*
X0130277Y0173092D03*
X0130277Y0172042D03*
X0130277Y0171902D03*
X0130277Y0171832D03*
X0130277Y0171692D03*
D263*
X0140217Y0171762D03*
D264*
X0130242Y0172112D03*
X0130242Y0172322D03*
X0130242Y0172462D03*
X0130242Y0172672D03*
X0130242Y0172812D03*
X0157752Y0172812D03*
X0157752Y0172672D03*
X0157752Y0172462D03*
X0157752Y0172322D03*
X0157752Y0172112D03*
X0157752Y0171972D03*
X0157752Y0173022D03*
D265*
X0157892Y0176662D03*
X0139902Y0171972D03*
X0110012Y0176662D03*
X0101192Y0176662D03*
D266*
X0130242Y0172952D03*
X0130242Y0172882D03*
X0130242Y0172742D03*
X0130242Y0172602D03*
X0130242Y0172532D03*
X0130242Y0172392D03*
X0130242Y0172252D03*
X0130242Y0172182D03*
X0157752Y0172182D03*
X0157752Y0172252D03*
X0157752Y0172392D03*
X0157752Y0172532D03*
X0157752Y0172602D03*
X0157752Y0172742D03*
X0157752Y0172882D03*
X0157752Y0172952D03*
X0157752Y0173092D03*
X0157752Y0172042D03*
D267*
X0139587Y0172252D03*
X0138677Y0172952D03*
D268*
X0138607Y0173022D03*
D269*
X0137837Y0173512D03*
X0148967Y0176522D03*
X0170457Y0179462D03*
X0119567Y0176662D03*
D270*
X0103642Y0173862D03*
D271*
X0137172Y0173932D03*
D272*
X0103642Y0174002D03*
D273*
X0103642Y0174142D03*
D274*
X0098182Y0174422D03*
X0123312Y0174212D03*
X0127652Y0174772D03*
X0133042Y0174772D03*
X0150682Y0174772D03*
X0155162Y0174772D03*
X0160552Y0174772D03*
D275*
X0123277Y0174282D03*
X0117327Y0174632D03*
D276*
X0103607Y0174282D03*
D277*
X0103607Y0174352D03*
D278*
X0141512Y0174422D03*
D279*
X0103572Y0174422D03*
D280*
X0103502Y0174492D03*
D281*
X0141477Y0174562D03*
D282*
X0139237Y0177012D03*
X0130347Y0177012D03*
X0123137Y0174562D03*
X0101157Y0177012D03*
X0098567Y0174772D03*
X0157857Y0177012D03*
D283*
X0103502Y0174562D03*
D284*
X0132692Y0175052D03*
X0145502Y0174702D03*
X0150402Y0174982D03*
X0160202Y0175052D03*
X0170842Y0180582D03*
D285*
X0103327Y0174772D03*
D286*
X0103292Y0174842D03*
D287*
X0122892Y0174912D03*
X0145712Y0174912D03*
X0170632Y0180162D03*
D288*
X0112532Y0174912D03*
X0110012Y0177012D03*
D289*
X0107492Y0174912D03*
D290*
X0098847Y0174912D03*
D291*
X0141162Y0174982D03*
D292*
X0122822Y0174982D03*
X0119532Y0176732D03*
X0170562Y0179882D03*
X0170562Y0179952D03*
D293*
X0100982Y0175332D03*
X0100772Y0175052D03*
X0100772Y0174982D03*
D294*
X0157822Y0175122D03*
D295*
X0147952Y0175122D03*
X0120652Y0175822D03*
D296*
X0139237Y0177222D03*
X0140987Y0175122D03*
X0157857Y0177222D03*
X0101157Y0177222D03*
D297*
X0110012Y0175262D03*
X0130312Y0175122D03*
X0147812Y0175612D03*
D298*
X0120407Y0175122D03*
D299*
X0130347Y0175472D03*
X0157857Y0175472D03*
X0101087Y0175472D03*
X0100947Y0175262D03*
X0100807Y0175122D03*
D300*
X0140847Y0175192D03*
D301*
X0138852Y0175262D03*
X0157892Y0176172D03*
D302*
X0120442Y0175262D03*
D303*
X0147637Y0176102D03*
X0157857Y0175402D03*
X0157857Y0175332D03*
D304*
X0130347Y0175332D03*
X0130347Y0175402D03*
D305*
X0120477Y0175332D03*
D306*
X0120862Y0176242D03*
X0110012Y0175332D03*
X0147742Y0175892D03*
D307*
X0120512Y0175472D03*
D308*
X0120547Y0175542D03*
D309*
X0110012Y0175542D03*
D310*
X0110012Y0175612D03*
X0101192Y0175612D03*
D311*
X0147777Y0175752D03*
D312*
X0101227Y0175752D03*
D313*
X0110012Y0175822D03*
D314*
X0110012Y0175962D03*
D315*
X0101227Y0175962D03*
D316*
X0130347Y0176382D03*
X0157857Y0176382D03*
X0169547Y0176382D03*
X0169547Y0176452D03*
X0169547Y0176592D03*
X0169547Y0176732D03*
X0169547Y0176802D03*
X0169547Y0176942D03*
X0169547Y0177082D03*
X0169547Y0177152D03*
X0169547Y0177292D03*
X0169547Y0177432D03*
X0169547Y0177502D03*
X0169547Y0177642D03*
X0169547Y0176242D03*
X0169547Y0176102D03*
X0169547Y0176032D03*
D317*
X0110012Y0176032D03*
D318*
X0147602Y0176172D03*
D319*
X0157857Y0176312D03*
X0130347Y0176312D03*
D320*
X0148932Y0176312D03*
D321*
X0139377Y0176312D03*
D322*
X0148967Y0176452D03*
D323*
X0139307Y0176592D03*
D324*
X0139307Y0176662D03*
D325*
X0130347Y0176662D03*
D326*
X0130347Y0176732D03*
X0157857Y0176732D03*
X0101227Y0176732D03*
D327*
X0139272Y0176732D03*
D328*
X0110047Y0176802D03*
D329*
X0119567Y0177152D03*
D330*
X0110012Y0177222D03*
X0130312Y0177222D03*
D331*
X0119567Y0177222D03*
D332*
X0170457Y0179392D03*
X0170457Y0179532D03*
D333*
X0170492Y0179602D03*
X0170492Y0179742D03*
D334*
X0171367Y0181212D03*
D335*
X0036244Y0114955D02*
X0036244Y0090545D01*
X0011835Y0090545D01*
X0011835Y0114955D01*
X0036244Y0114955D01*
X0022859Y0155112D02*
X0011835Y0155112D01*
X0011835Y0176372D02*
X0022859Y0176372D01*
D336*
X0027273Y0176180D02*
X0027273Y0178649D01*
X0029125Y0177414D02*
X0029125Y0176180D01*
X0030976Y0176180D02*
X0027273Y0176180D01*
X0027273Y0174966D02*
X0030976Y0174966D01*
X0030976Y0176180D02*
X0030976Y0178649D01*
X0027273Y0174966D02*
X0028508Y0173731D01*
X0027273Y0172497D01*
X0030976Y0172497D01*
X0030359Y0171282D02*
X0027890Y0171282D01*
X0027273Y0170665D01*
X0027273Y0169431D01*
X0027890Y0168814D01*
X0030359Y0168814D01*
X0030976Y0169431D01*
X0030976Y0170665D01*
X0030359Y0171282D01*
X0030359Y0167599D02*
X0030976Y0166982D01*
X0030976Y0165748D01*
X0030359Y0165131D01*
X0030976Y0163916D02*
X0030976Y0161447D01*
X0027273Y0161447D01*
X0027273Y0163916D01*
X0027890Y0165131D02*
X0028508Y0165131D01*
X0029125Y0165748D01*
X0029125Y0166982D01*
X0029742Y0167599D01*
X0030359Y0167599D01*
X0027890Y0167599D02*
X0027273Y0166982D01*
X0027273Y0165748D01*
X0027890Y0165131D01*
X0029125Y0162682D02*
X0029125Y0161447D01*
X0030976Y0160233D02*
X0027273Y0160233D01*
X0027273Y0157764D02*
X0030976Y0157764D01*
X0029742Y0158999D01*
X0030976Y0160233D01*
X0030976Y0156550D02*
X0028508Y0156550D01*
X0027273Y0155316D01*
X0028508Y0154081D01*
X0030976Y0154081D01*
X0029125Y0154081D02*
X0029125Y0156550D01*
X0010110Y0108011D02*
X0010110Y0105542D01*
X0010110Y0104328D02*
X0006407Y0104328D01*
X0007641Y0105542D02*
X0006407Y0106776D01*
X0010110Y0106776D01*
X0010110Y0104328D02*
X0008876Y0103093D01*
X0010110Y0101859D01*
X0006407Y0101859D01*
X0007024Y0100644D02*
X0006407Y0100027D01*
X0006407Y0098793D01*
X0007024Y0098176D01*
X0007641Y0098176D01*
X0008259Y0098793D01*
X0008259Y0100027D01*
X0008876Y0100644D01*
X0009493Y0100644D01*
X0010110Y0100027D01*
X0010110Y0098793D01*
X0009493Y0098176D01*
X0044542Y0068221D02*
X0044542Y0065752D01*
X0042690Y0067604D01*
X0046394Y0067604D01*
X0046394Y0064538D02*
X0045159Y0063304D01*
X0045159Y0063921D02*
X0045159Y0062069D01*
X0046394Y0062069D02*
X0042690Y0062069D01*
X0042690Y0063921D01*
X0043308Y0064538D01*
X0044542Y0064538D01*
X0045159Y0063921D01*
X0291316Y0111325D02*
X0293784Y0111325D01*
X0294999Y0111325D02*
X0297468Y0111325D01*
X0298682Y0111325D02*
X0300534Y0111325D01*
X0301151Y0111942D01*
X0301151Y0114411D01*
X0300534Y0115028D01*
X0298682Y0115028D01*
X0298682Y0111325D01*
X0296233Y0113177D02*
X0294999Y0113177D01*
X0294999Y0115028D02*
X0294999Y0111325D01*
X0291316Y0111325D02*
X0291316Y0115028D01*
X0294999Y0115028D02*
X0297468Y0115028D01*
X0302365Y0113794D02*
X0303599Y0115028D01*
X0303599Y0111325D01*
X0302365Y0111325D02*
X0304834Y0111325D01*
D337*
X0306380Y0110800D02*
X0306382Y0110869D01*
X0306388Y0110938D01*
X0306398Y0111006D01*
X0306412Y0111074D01*
X0306429Y0111141D01*
X0306451Y0111207D01*
X0306476Y0111271D01*
X0306505Y0111334D01*
X0306538Y0111395D01*
X0306574Y0111454D01*
X0306613Y0111511D01*
X0306656Y0111565D01*
X0306701Y0111617D01*
X0306750Y0111667D01*
X0306801Y0111713D01*
X0306855Y0111756D01*
X0306912Y0111797D01*
X0306970Y0111833D01*
X0307031Y0111867D01*
X0307093Y0111897D01*
X0307157Y0111923D01*
X0307222Y0111945D01*
X0307289Y0111964D01*
X0307357Y0111979D01*
X0307425Y0111990D01*
X0307494Y0111997D01*
X0307563Y0112000D01*
X0307632Y0111999D01*
X0307701Y0111994D01*
X0307769Y0111985D01*
X0307837Y0111972D01*
X0307904Y0111955D01*
X0307971Y0111935D01*
X0308035Y0111910D01*
X0308098Y0111882D01*
X0308160Y0111851D01*
X0308219Y0111815D01*
X0308277Y0111777D01*
X0308332Y0111735D01*
X0308385Y0111690D01*
X0308435Y0111642D01*
X0308482Y0111592D01*
X0308526Y0111538D01*
X0308567Y0111483D01*
X0308605Y0111425D01*
X0308639Y0111365D01*
X0308670Y0111303D01*
X0308697Y0111239D01*
X0308720Y0111174D01*
X0308740Y0111108D01*
X0308756Y0111040D01*
X0308768Y0110972D01*
X0308776Y0110904D01*
X0308780Y0110835D01*
X0308780Y0110765D01*
X0308776Y0110696D01*
X0308768Y0110628D01*
X0308756Y0110560D01*
X0308740Y0110492D01*
X0308720Y0110426D01*
X0308697Y0110361D01*
X0308670Y0110297D01*
X0308639Y0110235D01*
X0308605Y0110175D01*
X0308567Y0110117D01*
X0308526Y0110062D01*
X0308482Y0110008D01*
X0308435Y0109958D01*
X0308385Y0109910D01*
X0308332Y0109865D01*
X0308277Y0109823D01*
X0308219Y0109785D01*
X0308160Y0109749D01*
X0308098Y0109718D01*
X0308035Y0109690D01*
X0307971Y0109665D01*
X0307904Y0109645D01*
X0307837Y0109628D01*
X0307769Y0109615D01*
X0307701Y0109606D01*
X0307632Y0109601D01*
X0307563Y0109600D01*
X0307494Y0109603D01*
X0307425Y0109610D01*
X0307357Y0109621D01*
X0307289Y0109636D01*
X0307222Y0109655D01*
X0307157Y0109677D01*
X0307093Y0109703D01*
X0307031Y0109733D01*
X0306970Y0109767D01*
X0306912Y0109803D01*
X0306855Y0109844D01*
X0306801Y0109887D01*
X0306750Y0109933D01*
X0306701Y0109983D01*
X0306656Y0110035D01*
X0306613Y0110089D01*
X0306574Y0110146D01*
X0306538Y0110205D01*
X0306505Y0110266D01*
X0306476Y0110329D01*
X0306451Y0110393D01*
X0306429Y0110459D01*
X0306412Y0110526D01*
X0306398Y0110594D01*
X0306388Y0110662D01*
X0306382Y0110731D01*
X0306380Y0110800D01*
X0290480Y0094700D02*
X0290482Y0094769D01*
X0290488Y0094838D01*
X0290498Y0094906D01*
X0290512Y0094974D01*
X0290529Y0095041D01*
X0290551Y0095107D01*
X0290576Y0095171D01*
X0290605Y0095234D01*
X0290638Y0095295D01*
X0290674Y0095354D01*
X0290713Y0095411D01*
X0290756Y0095465D01*
X0290801Y0095517D01*
X0290850Y0095567D01*
X0290901Y0095613D01*
X0290955Y0095656D01*
X0291012Y0095697D01*
X0291070Y0095733D01*
X0291131Y0095767D01*
X0291193Y0095797D01*
X0291257Y0095823D01*
X0291322Y0095845D01*
X0291389Y0095864D01*
X0291457Y0095879D01*
X0291525Y0095890D01*
X0291594Y0095897D01*
X0291663Y0095900D01*
X0291732Y0095899D01*
X0291801Y0095894D01*
X0291869Y0095885D01*
X0291937Y0095872D01*
X0292004Y0095855D01*
X0292071Y0095835D01*
X0292135Y0095810D01*
X0292198Y0095782D01*
X0292260Y0095751D01*
X0292319Y0095715D01*
X0292377Y0095677D01*
X0292432Y0095635D01*
X0292485Y0095590D01*
X0292535Y0095542D01*
X0292582Y0095492D01*
X0292626Y0095438D01*
X0292667Y0095383D01*
X0292705Y0095325D01*
X0292739Y0095265D01*
X0292770Y0095203D01*
X0292797Y0095139D01*
X0292820Y0095074D01*
X0292840Y0095008D01*
X0292856Y0094940D01*
X0292868Y0094872D01*
X0292876Y0094804D01*
X0292880Y0094735D01*
X0292880Y0094665D01*
X0292876Y0094596D01*
X0292868Y0094528D01*
X0292856Y0094460D01*
X0292840Y0094392D01*
X0292820Y0094326D01*
X0292797Y0094261D01*
X0292770Y0094197D01*
X0292739Y0094135D01*
X0292705Y0094075D01*
X0292667Y0094017D01*
X0292626Y0093962D01*
X0292582Y0093908D01*
X0292535Y0093858D01*
X0292485Y0093810D01*
X0292432Y0093765D01*
X0292377Y0093723D01*
X0292319Y0093685D01*
X0292260Y0093649D01*
X0292198Y0093618D01*
X0292135Y0093590D01*
X0292071Y0093565D01*
X0292004Y0093545D01*
X0291937Y0093528D01*
X0291869Y0093515D01*
X0291801Y0093506D01*
X0291732Y0093501D01*
X0291663Y0093500D01*
X0291594Y0093503D01*
X0291525Y0093510D01*
X0291457Y0093521D01*
X0291389Y0093536D01*
X0291322Y0093555D01*
X0291257Y0093577D01*
X0291193Y0093603D01*
X0291131Y0093633D01*
X0291070Y0093667D01*
X0291012Y0093703D01*
X0290955Y0093744D01*
X0290901Y0093787D01*
X0290850Y0093833D01*
X0290801Y0093883D01*
X0290756Y0093935D01*
X0290713Y0093989D01*
X0290674Y0094046D01*
X0290638Y0094105D01*
X0290605Y0094166D01*
X0290576Y0094229D01*
X0290551Y0094293D01*
X0290529Y0094359D01*
X0290512Y0094426D01*
X0290498Y0094494D01*
X0290488Y0094562D01*
X0290482Y0094631D01*
X0290480Y0094700D01*
X0061953Y0119285D02*
X0061955Y0119354D01*
X0061961Y0119422D01*
X0061971Y0119490D01*
X0061985Y0119557D01*
X0062003Y0119624D01*
X0062024Y0119689D01*
X0062050Y0119753D01*
X0062079Y0119815D01*
X0062111Y0119875D01*
X0062147Y0119934D01*
X0062187Y0119990D01*
X0062229Y0120044D01*
X0062275Y0120095D01*
X0062324Y0120144D01*
X0062375Y0120190D01*
X0062429Y0120232D01*
X0062485Y0120272D01*
X0062543Y0120308D01*
X0062604Y0120340D01*
X0062666Y0120369D01*
X0062730Y0120395D01*
X0062795Y0120416D01*
X0062862Y0120434D01*
X0062929Y0120448D01*
X0062997Y0120458D01*
X0063065Y0120464D01*
X0063134Y0120466D01*
X0063203Y0120464D01*
X0063271Y0120458D01*
X0063339Y0120448D01*
X0063406Y0120434D01*
X0063473Y0120416D01*
X0063538Y0120395D01*
X0063602Y0120369D01*
X0063664Y0120340D01*
X0063724Y0120308D01*
X0063783Y0120272D01*
X0063839Y0120232D01*
X0063893Y0120190D01*
X0063944Y0120144D01*
X0063993Y0120095D01*
X0064039Y0120044D01*
X0064081Y0119990D01*
X0064121Y0119934D01*
X0064157Y0119875D01*
X0064189Y0119815D01*
X0064218Y0119753D01*
X0064244Y0119689D01*
X0064265Y0119624D01*
X0064283Y0119557D01*
X0064297Y0119490D01*
X0064307Y0119422D01*
X0064313Y0119354D01*
X0064315Y0119285D01*
X0064313Y0119216D01*
X0064307Y0119148D01*
X0064297Y0119080D01*
X0064283Y0119013D01*
X0064265Y0118946D01*
X0064244Y0118881D01*
X0064218Y0118817D01*
X0064189Y0118755D01*
X0064157Y0118694D01*
X0064121Y0118636D01*
X0064081Y0118580D01*
X0064039Y0118526D01*
X0063993Y0118475D01*
X0063944Y0118426D01*
X0063893Y0118380D01*
X0063839Y0118338D01*
X0063783Y0118298D01*
X0063725Y0118262D01*
X0063664Y0118230D01*
X0063602Y0118201D01*
X0063538Y0118175D01*
X0063473Y0118154D01*
X0063406Y0118136D01*
X0063339Y0118122D01*
X0063271Y0118112D01*
X0063203Y0118106D01*
X0063134Y0118104D01*
X0063065Y0118106D01*
X0062997Y0118112D01*
X0062929Y0118122D01*
X0062862Y0118136D01*
X0062795Y0118154D01*
X0062730Y0118175D01*
X0062666Y0118201D01*
X0062604Y0118230D01*
X0062543Y0118262D01*
X0062485Y0118298D01*
X0062429Y0118338D01*
X0062375Y0118380D01*
X0062324Y0118426D01*
X0062275Y0118475D01*
X0062229Y0118526D01*
X0062187Y0118580D01*
X0062147Y0118636D01*
X0062111Y0118694D01*
X0062079Y0118755D01*
X0062050Y0118817D01*
X0062024Y0118881D01*
X0062003Y0118946D01*
X0061985Y0119013D01*
X0061971Y0119080D01*
X0061961Y0119148D01*
X0061955Y0119216D01*
X0061953Y0119285D01*
X0046347Y0095663D02*
X0046349Y0095817D01*
X0046355Y0095972D01*
X0046365Y0096126D01*
X0046379Y0096280D01*
X0046397Y0096433D01*
X0046418Y0096586D01*
X0046444Y0096739D01*
X0046474Y0096890D01*
X0046507Y0097041D01*
X0046545Y0097191D01*
X0046586Y0097340D01*
X0046631Y0097488D01*
X0046680Y0097634D01*
X0046733Y0097780D01*
X0046789Y0097923D01*
X0046849Y0098066D01*
X0046913Y0098206D01*
X0046980Y0098346D01*
X0047051Y0098483D01*
X0047125Y0098618D01*
X0047203Y0098752D01*
X0047284Y0098883D01*
X0047369Y0099012D01*
X0047457Y0099140D01*
X0047548Y0099264D01*
X0047642Y0099387D01*
X0047740Y0099507D01*
X0047840Y0099624D01*
X0047944Y0099739D01*
X0048050Y0099851D01*
X0048159Y0099960D01*
X0048271Y0100066D01*
X0048386Y0100170D01*
X0048503Y0100270D01*
X0048623Y0100368D01*
X0048746Y0100462D01*
X0048870Y0100553D01*
X0048998Y0100641D01*
X0049127Y0100726D01*
X0049258Y0100807D01*
X0049392Y0100885D01*
X0049527Y0100959D01*
X0049664Y0101030D01*
X0049804Y0101097D01*
X0049944Y0101161D01*
X0050087Y0101221D01*
X0050230Y0101277D01*
X0050376Y0101330D01*
X0050522Y0101379D01*
X0050670Y0101424D01*
X0050819Y0101465D01*
X0050969Y0101503D01*
X0051120Y0101536D01*
X0051271Y0101566D01*
X0051424Y0101592D01*
X0051577Y0101613D01*
X0051730Y0101631D01*
X0051884Y0101645D01*
X0052038Y0101655D01*
X0052193Y0101661D01*
X0052347Y0101663D01*
X0052501Y0101661D01*
X0052656Y0101655D01*
X0052810Y0101645D01*
X0052964Y0101631D01*
X0053117Y0101613D01*
X0053270Y0101592D01*
X0053423Y0101566D01*
X0053574Y0101536D01*
X0053725Y0101503D01*
X0053875Y0101465D01*
X0054024Y0101424D01*
X0054172Y0101379D01*
X0054318Y0101330D01*
X0054464Y0101277D01*
X0054607Y0101221D01*
X0054750Y0101161D01*
X0054890Y0101097D01*
X0055030Y0101030D01*
X0055167Y0100959D01*
X0055302Y0100885D01*
X0055436Y0100807D01*
X0055567Y0100726D01*
X0055696Y0100641D01*
X0055824Y0100553D01*
X0055948Y0100462D01*
X0056071Y0100368D01*
X0056191Y0100270D01*
X0056308Y0100170D01*
X0056423Y0100066D01*
X0056535Y0099960D01*
X0056644Y0099851D01*
X0056750Y0099739D01*
X0056854Y0099624D01*
X0056954Y0099507D01*
X0057052Y0099387D01*
X0057146Y0099264D01*
X0057237Y0099140D01*
X0057325Y0099012D01*
X0057410Y0098883D01*
X0057491Y0098752D01*
X0057569Y0098618D01*
X0057643Y0098483D01*
X0057714Y0098346D01*
X0057781Y0098206D01*
X0057845Y0098066D01*
X0057905Y0097923D01*
X0057961Y0097780D01*
X0058014Y0097634D01*
X0058063Y0097488D01*
X0058108Y0097340D01*
X0058149Y0097191D01*
X0058187Y0097041D01*
X0058220Y0096890D01*
X0058250Y0096739D01*
X0058276Y0096586D01*
X0058297Y0096433D01*
X0058315Y0096280D01*
X0058329Y0096126D01*
X0058339Y0095972D01*
X0058345Y0095817D01*
X0058347Y0095663D01*
X0058345Y0095509D01*
X0058339Y0095354D01*
X0058329Y0095200D01*
X0058315Y0095046D01*
X0058297Y0094893D01*
X0058276Y0094740D01*
X0058250Y0094587D01*
X0058220Y0094436D01*
X0058187Y0094285D01*
X0058149Y0094135D01*
X0058108Y0093986D01*
X0058063Y0093838D01*
X0058014Y0093692D01*
X0057961Y0093546D01*
X0057905Y0093403D01*
X0057845Y0093260D01*
X0057781Y0093120D01*
X0057714Y0092980D01*
X0057643Y0092843D01*
X0057569Y0092708D01*
X0057491Y0092574D01*
X0057410Y0092443D01*
X0057325Y0092314D01*
X0057237Y0092186D01*
X0057146Y0092062D01*
X0057052Y0091939D01*
X0056954Y0091819D01*
X0056854Y0091702D01*
X0056750Y0091587D01*
X0056644Y0091475D01*
X0056535Y0091366D01*
X0056423Y0091260D01*
X0056308Y0091156D01*
X0056191Y0091056D01*
X0056071Y0090958D01*
X0055948Y0090864D01*
X0055824Y0090773D01*
X0055696Y0090685D01*
X0055567Y0090600D01*
X0055436Y0090519D01*
X0055302Y0090441D01*
X0055167Y0090367D01*
X0055030Y0090296D01*
X0054890Y0090229D01*
X0054750Y0090165D01*
X0054607Y0090105D01*
X0054464Y0090049D01*
X0054318Y0089996D01*
X0054172Y0089947D01*
X0054024Y0089902D01*
X0053875Y0089861D01*
X0053725Y0089823D01*
X0053574Y0089790D01*
X0053423Y0089760D01*
X0053270Y0089734D01*
X0053117Y0089713D01*
X0052964Y0089695D01*
X0052810Y0089681D01*
X0052656Y0089671D01*
X0052501Y0089665D01*
X0052347Y0089663D01*
X0052193Y0089665D01*
X0052038Y0089671D01*
X0051884Y0089681D01*
X0051730Y0089695D01*
X0051577Y0089713D01*
X0051424Y0089734D01*
X0051271Y0089760D01*
X0051120Y0089790D01*
X0050969Y0089823D01*
X0050819Y0089861D01*
X0050670Y0089902D01*
X0050522Y0089947D01*
X0050376Y0089996D01*
X0050230Y0090049D01*
X0050087Y0090105D01*
X0049944Y0090165D01*
X0049804Y0090229D01*
X0049664Y0090296D01*
X0049527Y0090367D01*
X0049392Y0090441D01*
X0049258Y0090519D01*
X0049127Y0090600D01*
X0048998Y0090685D01*
X0048870Y0090773D01*
X0048746Y0090864D01*
X0048623Y0090958D01*
X0048503Y0091056D01*
X0048386Y0091156D01*
X0048271Y0091260D01*
X0048159Y0091366D01*
X0048050Y0091475D01*
X0047944Y0091587D01*
X0047840Y0091702D01*
X0047740Y0091819D01*
X0047642Y0091939D01*
X0047548Y0092062D01*
X0047457Y0092186D01*
X0047369Y0092314D01*
X0047284Y0092443D01*
X0047203Y0092574D01*
X0047125Y0092708D01*
X0047051Y0092843D01*
X0046980Y0092980D01*
X0046913Y0093120D01*
X0046849Y0093260D01*
X0046789Y0093403D01*
X0046733Y0093546D01*
X0046680Y0093692D01*
X0046631Y0093838D01*
X0046586Y0093986D01*
X0046545Y0094135D01*
X0046507Y0094285D01*
X0046474Y0094436D01*
X0046444Y0094587D01*
X0046418Y0094740D01*
X0046397Y0094893D01*
X0046379Y0095046D01*
X0046365Y0095200D01*
X0046355Y0095354D01*
X0046349Y0095509D01*
X0046347Y0095663D01*
X0061953Y0164955D02*
X0061955Y0165024D01*
X0061961Y0165092D01*
X0061971Y0165160D01*
X0061985Y0165227D01*
X0062003Y0165294D01*
X0062024Y0165359D01*
X0062050Y0165423D01*
X0062079Y0165485D01*
X0062111Y0165545D01*
X0062147Y0165604D01*
X0062187Y0165660D01*
X0062229Y0165714D01*
X0062275Y0165765D01*
X0062324Y0165814D01*
X0062375Y0165860D01*
X0062429Y0165902D01*
X0062485Y0165942D01*
X0062543Y0165978D01*
X0062604Y0166010D01*
X0062666Y0166039D01*
X0062730Y0166065D01*
X0062795Y0166086D01*
X0062862Y0166104D01*
X0062929Y0166118D01*
X0062997Y0166128D01*
X0063065Y0166134D01*
X0063134Y0166136D01*
X0063203Y0166134D01*
X0063271Y0166128D01*
X0063339Y0166118D01*
X0063406Y0166104D01*
X0063473Y0166086D01*
X0063538Y0166065D01*
X0063602Y0166039D01*
X0063664Y0166010D01*
X0063724Y0165978D01*
X0063783Y0165942D01*
X0063839Y0165902D01*
X0063893Y0165860D01*
X0063944Y0165814D01*
X0063993Y0165765D01*
X0064039Y0165714D01*
X0064081Y0165660D01*
X0064121Y0165604D01*
X0064157Y0165545D01*
X0064189Y0165485D01*
X0064218Y0165423D01*
X0064244Y0165359D01*
X0064265Y0165294D01*
X0064283Y0165227D01*
X0064297Y0165160D01*
X0064307Y0165092D01*
X0064313Y0165024D01*
X0064315Y0164955D01*
X0064313Y0164886D01*
X0064307Y0164818D01*
X0064297Y0164750D01*
X0064283Y0164683D01*
X0064265Y0164616D01*
X0064244Y0164551D01*
X0064218Y0164487D01*
X0064189Y0164425D01*
X0064157Y0164364D01*
X0064121Y0164306D01*
X0064081Y0164250D01*
X0064039Y0164196D01*
X0063993Y0164145D01*
X0063944Y0164096D01*
X0063893Y0164050D01*
X0063839Y0164008D01*
X0063783Y0163968D01*
X0063725Y0163932D01*
X0063664Y0163900D01*
X0063602Y0163871D01*
X0063538Y0163845D01*
X0063473Y0163824D01*
X0063406Y0163806D01*
X0063339Y0163792D01*
X0063271Y0163782D01*
X0063203Y0163776D01*
X0063134Y0163774D01*
X0063065Y0163776D01*
X0062997Y0163782D01*
X0062929Y0163792D01*
X0062862Y0163806D01*
X0062795Y0163824D01*
X0062730Y0163845D01*
X0062666Y0163871D01*
X0062604Y0163900D01*
X0062543Y0163932D01*
X0062485Y0163968D01*
X0062429Y0164008D01*
X0062375Y0164050D01*
X0062324Y0164096D01*
X0062275Y0164145D01*
X0062229Y0164196D01*
X0062187Y0164250D01*
X0062147Y0164306D01*
X0062111Y0164364D01*
X0062079Y0164425D01*
X0062050Y0164487D01*
X0062024Y0164551D01*
X0062003Y0164616D01*
X0061985Y0164683D01*
X0061971Y0164750D01*
X0061961Y0164818D01*
X0061955Y0164886D01*
X0061953Y0164955D01*
X0046347Y0188577D02*
X0046349Y0188731D01*
X0046355Y0188886D01*
X0046365Y0189040D01*
X0046379Y0189194D01*
X0046397Y0189347D01*
X0046418Y0189500D01*
X0046444Y0189653D01*
X0046474Y0189804D01*
X0046507Y0189955D01*
X0046545Y0190105D01*
X0046586Y0190254D01*
X0046631Y0190402D01*
X0046680Y0190548D01*
X0046733Y0190694D01*
X0046789Y0190837D01*
X0046849Y0190980D01*
X0046913Y0191120D01*
X0046980Y0191260D01*
X0047051Y0191397D01*
X0047125Y0191532D01*
X0047203Y0191666D01*
X0047284Y0191797D01*
X0047369Y0191926D01*
X0047457Y0192054D01*
X0047548Y0192178D01*
X0047642Y0192301D01*
X0047740Y0192421D01*
X0047840Y0192538D01*
X0047944Y0192653D01*
X0048050Y0192765D01*
X0048159Y0192874D01*
X0048271Y0192980D01*
X0048386Y0193084D01*
X0048503Y0193184D01*
X0048623Y0193282D01*
X0048746Y0193376D01*
X0048870Y0193467D01*
X0048998Y0193555D01*
X0049127Y0193640D01*
X0049258Y0193721D01*
X0049392Y0193799D01*
X0049527Y0193873D01*
X0049664Y0193944D01*
X0049804Y0194011D01*
X0049944Y0194075D01*
X0050087Y0194135D01*
X0050230Y0194191D01*
X0050376Y0194244D01*
X0050522Y0194293D01*
X0050670Y0194338D01*
X0050819Y0194379D01*
X0050969Y0194417D01*
X0051120Y0194450D01*
X0051271Y0194480D01*
X0051424Y0194506D01*
X0051577Y0194527D01*
X0051730Y0194545D01*
X0051884Y0194559D01*
X0052038Y0194569D01*
X0052193Y0194575D01*
X0052347Y0194577D01*
X0052501Y0194575D01*
X0052656Y0194569D01*
X0052810Y0194559D01*
X0052964Y0194545D01*
X0053117Y0194527D01*
X0053270Y0194506D01*
X0053423Y0194480D01*
X0053574Y0194450D01*
X0053725Y0194417D01*
X0053875Y0194379D01*
X0054024Y0194338D01*
X0054172Y0194293D01*
X0054318Y0194244D01*
X0054464Y0194191D01*
X0054607Y0194135D01*
X0054750Y0194075D01*
X0054890Y0194011D01*
X0055030Y0193944D01*
X0055167Y0193873D01*
X0055302Y0193799D01*
X0055436Y0193721D01*
X0055567Y0193640D01*
X0055696Y0193555D01*
X0055824Y0193467D01*
X0055948Y0193376D01*
X0056071Y0193282D01*
X0056191Y0193184D01*
X0056308Y0193084D01*
X0056423Y0192980D01*
X0056535Y0192874D01*
X0056644Y0192765D01*
X0056750Y0192653D01*
X0056854Y0192538D01*
X0056954Y0192421D01*
X0057052Y0192301D01*
X0057146Y0192178D01*
X0057237Y0192054D01*
X0057325Y0191926D01*
X0057410Y0191797D01*
X0057491Y0191666D01*
X0057569Y0191532D01*
X0057643Y0191397D01*
X0057714Y0191260D01*
X0057781Y0191120D01*
X0057845Y0190980D01*
X0057905Y0190837D01*
X0057961Y0190694D01*
X0058014Y0190548D01*
X0058063Y0190402D01*
X0058108Y0190254D01*
X0058149Y0190105D01*
X0058187Y0189955D01*
X0058220Y0189804D01*
X0058250Y0189653D01*
X0058276Y0189500D01*
X0058297Y0189347D01*
X0058315Y0189194D01*
X0058329Y0189040D01*
X0058339Y0188886D01*
X0058345Y0188731D01*
X0058347Y0188577D01*
X0058345Y0188423D01*
X0058339Y0188268D01*
X0058329Y0188114D01*
X0058315Y0187960D01*
X0058297Y0187807D01*
X0058276Y0187654D01*
X0058250Y0187501D01*
X0058220Y0187350D01*
X0058187Y0187199D01*
X0058149Y0187049D01*
X0058108Y0186900D01*
X0058063Y0186752D01*
X0058014Y0186606D01*
X0057961Y0186460D01*
X0057905Y0186317D01*
X0057845Y0186174D01*
X0057781Y0186034D01*
X0057714Y0185894D01*
X0057643Y0185757D01*
X0057569Y0185622D01*
X0057491Y0185488D01*
X0057410Y0185357D01*
X0057325Y0185228D01*
X0057237Y0185100D01*
X0057146Y0184976D01*
X0057052Y0184853D01*
X0056954Y0184733D01*
X0056854Y0184616D01*
X0056750Y0184501D01*
X0056644Y0184389D01*
X0056535Y0184280D01*
X0056423Y0184174D01*
X0056308Y0184070D01*
X0056191Y0183970D01*
X0056071Y0183872D01*
X0055948Y0183778D01*
X0055824Y0183687D01*
X0055696Y0183599D01*
X0055567Y0183514D01*
X0055436Y0183433D01*
X0055302Y0183355D01*
X0055167Y0183281D01*
X0055030Y0183210D01*
X0054890Y0183143D01*
X0054750Y0183079D01*
X0054607Y0183019D01*
X0054464Y0182963D01*
X0054318Y0182910D01*
X0054172Y0182861D01*
X0054024Y0182816D01*
X0053875Y0182775D01*
X0053725Y0182737D01*
X0053574Y0182704D01*
X0053423Y0182674D01*
X0053270Y0182648D01*
X0053117Y0182627D01*
X0052964Y0182609D01*
X0052810Y0182595D01*
X0052656Y0182585D01*
X0052501Y0182579D01*
X0052347Y0182577D01*
X0052193Y0182579D01*
X0052038Y0182585D01*
X0051884Y0182595D01*
X0051730Y0182609D01*
X0051577Y0182627D01*
X0051424Y0182648D01*
X0051271Y0182674D01*
X0051120Y0182704D01*
X0050969Y0182737D01*
X0050819Y0182775D01*
X0050670Y0182816D01*
X0050522Y0182861D01*
X0050376Y0182910D01*
X0050230Y0182963D01*
X0050087Y0183019D01*
X0049944Y0183079D01*
X0049804Y0183143D01*
X0049664Y0183210D01*
X0049527Y0183281D01*
X0049392Y0183355D01*
X0049258Y0183433D01*
X0049127Y0183514D01*
X0048998Y0183599D01*
X0048870Y0183687D01*
X0048746Y0183778D01*
X0048623Y0183872D01*
X0048503Y0183970D01*
X0048386Y0184070D01*
X0048271Y0184174D01*
X0048159Y0184280D01*
X0048050Y0184389D01*
X0047944Y0184501D01*
X0047840Y0184616D01*
X0047740Y0184733D01*
X0047642Y0184853D01*
X0047548Y0184976D01*
X0047457Y0185100D01*
X0047369Y0185228D01*
X0047284Y0185357D01*
X0047203Y0185488D01*
X0047125Y0185622D01*
X0047051Y0185757D01*
X0046980Y0185894D01*
X0046913Y0186034D01*
X0046849Y0186174D01*
X0046789Y0186317D01*
X0046733Y0186460D01*
X0046680Y0186606D01*
X0046631Y0186752D01*
X0046586Y0186900D01*
X0046545Y0187049D01*
X0046507Y0187199D01*
X0046474Y0187350D01*
X0046444Y0187501D01*
X0046418Y0187654D01*
X0046397Y0187807D01*
X0046379Y0187960D01*
X0046365Y0188114D01*
X0046355Y0188268D01*
X0046349Y0188423D01*
X0046347Y0188577D01*
X0042857Y0022353D02*
X0042859Y0022454D01*
X0042865Y0022555D01*
X0042875Y0022656D01*
X0042889Y0022756D01*
X0042907Y0022855D01*
X0042929Y0022954D01*
X0042954Y0023052D01*
X0042984Y0023149D01*
X0043017Y0023244D01*
X0043054Y0023338D01*
X0043095Y0023431D01*
X0043139Y0023522D01*
X0043187Y0023611D01*
X0043239Y0023698D01*
X0043294Y0023783D01*
X0043352Y0023865D01*
X0043413Y0023946D01*
X0043478Y0024024D01*
X0043545Y0024099D01*
X0043615Y0024171D01*
X0043689Y0024241D01*
X0043765Y0024308D01*
X0043843Y0024372D01*
X0043924Y0024432D01*
X0044007Y0024489D01*
X0044093Y0024543D01*
X0044181Y0024594D01*
X0044270Y0024641D01*
X0044361Y0024685D01*
X0044454Y0024724D01*
X0044549Y0024761D01*
X0044644Y0024793D01*
X0044741Y0024822D01*
X0044840Y0024846D01*
X0044938Y0024867D01*
X0045038Y0024884D01*
X0045138Y0024897D01*
X0045239Y0024906D01*
X0045340Y0024911D01*
X0045441Y0024912D01*
X0045542Y0024909D01*
X0045643Y0024902D01*
X0045744Y0024891D01*
X0045844Y0024876D01*
X0045943Y0024857D01*
X0046042Y0024834D01*
X0046139Y0024808D01*
X0046236Y0024777D01*
X0046331Y0024743D01*
X0046424Y0024705D01*
X0046517Y0024663D01*
X0046607Y0024618D01*
X0046696Y0024569D01*
X0046782Y0024517D01*
X0046866Y0024461D01*
X0046949Y0024402D01*
X0047028Y0024340D01*
X0047106Y0024275D01*
X0047180Y0024207D01*
X0047252Y0024135D01*
X0047321Y0024062D01*
X0047387Y0023985D01*
X0047450Y0023906D01*
X0047510Y0023824D01*
X0047566Y0023740D01*
X0047619Y0023654D01*
X0047669Y0023566D01*
X0047715Y0023476D01*
X0047758Y0023385D01*
X0047797Y0023291D01*
X0047832Y0023196D01*
X0047863Y0023100D01*
X0047891Y0023003D01*
X0047915Y0022905D01*
X0047935Y0022806D01*
X0047951Y0022706D01*
X0047963Y0022605D01*
X0047971Y0022505D01*
X0047975Y0022404D01*
X0047975Y0022302D01*
X0047971Y0022201D01*
X0047963Y0022101D01*
X0047951Y0022000D01*
X0047935Y0021900D01*
X0047915Y0021801D01*
X0047891Y0021703D01*
X0047863Y0021606D01*
X0047832Y0021510D01*
X0047797Y0021415D01*
X0047758Y0021321D01*
X0047715Y0021230D01*
X0047669Y0021140D01*
X0047619Y0021052D01*
X0047566Y0020966D01*
X0047510Y0020882D01*
X0047450Y0020800D01*
X0047387Y0020721D01*
X0047321Y0020644D01*
X0047252Y0020571D01*
X0047180Y0020499D01*
X0047106Y0020431D01*
X0047028Y0020366D01*
X0046949Y0020304D01*
X0046866Y0020245D01*
X0046782Y0020189D01*
X0046695Y0020137D01*
X0046607Y0020088D01*
X0046517Y0020043D01*
X0046424Y0020001D01*
X0046331Y0019963D01*
X0046236Y0019929D01*
X0046139Y0019898D01*
X0046042Y0019872D01*
X0045943Y0019849D01*
X0045844Y0019830D01*
X0045744Y0019815D01*
X0045643Y0019804D01*
X0045542Y0019797D01*
X0045441Y0019794D01*
X0045340Y0019795D01*
X0045239Y0019800D01*
X0045138Y0019809D01*
X0045038Y0019822D01*
X0044938Y0019839D01*
X0044840Y0019860D01*
X0044741Y0019884D01*
X0044644Y0019913D01*
X0044549Y0019945D01*
X0044454Y0019982D01*
X0044361Y0020021D01*
X0044270Y0020065D01*
X0044181Y0020112D01*
X0044093Y0020163D01*
X0044007Y0020217D01*
X0043924Y0020274D01*
X0043843Y0020334D01*
X0043765Y0020398D01*
X0043689Y0020465D01*
X0043615Y0020535D01*
X0043545Y0020607D01*
X0043478Y0020682D01*
X0043413Y0020760D01*
X0043352Y0020841D01*
X0043294Y0020923D01*
X0043239Y0021008D01*
X0043187Y0021095D01*
X0043139Y0021184D01*
X0043095Y0021275D01*
X0043054Y0021368D01*
X0043017Y0021462D01*
X0042984Y0021557D01*
X0042954Y0021654D01*
X0042929Y0021752D01*
X0042907Y0021851D01*
X0042889Y0021950D01*
X0042875Y0022050D01*
X0042865Y0022151D01*
X0042859Y0022252D01*
X0042857Y0022353D01*
X0015294Y0022353D02*
X0015296Y0022454D01*
X0015302Y0022555D01*
X0015312Y0022656D01*
X0015326Y0022756D01*
X0015344Y0022855D01*
X0015366Y0022954D01*
X0015391Y0023052D01*
X0015421Y0023149D01*
X0015454Y0023244D01*
X0015491Y0023338D01*
X0015532Y0023431D01*
X0015576Y0023522D01*
X0015624Y0023611D01*
X0015676Y0023698D01*
X0015731Y0023783D01*
X0015789Y0023865D01*
X0015850Y0023946D01*
X0015915Y0024024D01*
X0015982Y0024099D01*
X0016052Y0024171D01*
X0016126Y0024241D01*
X0016202Y0024308D01*
X0016280Y0024372D01*
X0016361Y0024432D01*
X0016444Y0024489D01*
X0016530Y0024543D01*
X0016618Y0024594D01*
X0016707Y0024641D01*
X0016798Y0024685D01*
X0016891Y0024724D01*
X0016986Y0024761D01*
X0017081Y0024793D01*
X0017178Y0024822D01*
X0017277Y0024846D01*
X0017375Y0024867D01*
X0017475Y0024884D01*
X0017575Y0024897D01*
X0017676Y0024906D01*
X0017777Y0024911D01*
X0017878Y0024912D01*
X0017979Y0024909D01*
X0018080Y0024902D01*
X0018181Y0024891D01*
X0018281Y0024876D01*
X0018380Y0024857D01*
X0018479Y0024834D01*
X0018576Y0024808D01*
X0018673Y0024777D01*
X0018768Y0024743D01*
X0018861Y0024705D01*
X0018954Y0024663D01*
X0019044Y0024618D01*
X0019133Y0024569D01*
X0019219Y0024517D01*
X0019303Y0024461D01*
X0019386Y0024402D01*
X0019465Y0024340D01*
X0019543Y0024275D01*
X0019617Y0024207D01*
X0019689Y0024135D01*
X0019758Y0024062D01*
X0019824Y0023985D01*
X0019887Y0023906D01*
X0019947Y0023824D01*
X0020003Y0023740D01*
X0020056Y0023654D01*
X0020106Y0023566D01*
X0020152Y0023476D01*
X0020195Y0023385D01*
X0020234Y0023291D01*
X0020269Y0023196D01*
X0020300Y0023100D01*
X0020328Y0023003D01*
X0020352Y0022905D01*
X0020372Y0022806D01*
X0020388Y0022706D01*
X0020400Y0022605D01*
X0020408Y0022505D01*
X0020412Y0022404D01*
X0020412Y0022302D01*
X0020408Y0022201D01*
X0020400Y0022101D01*
X0020388Y0022000D01*
X0020372Y0021900D01*
X0020352Y0021801D01*
X0020328Y0021703D01*
X0020300Y0021606D01*
X0020269Y0021510D01*
X0020234Y0021415D01*
X0020195Y0021321D01*
X0020152Y0021230D01*
X0020106Y0021140D01*
X0020056Y0021052D01*
X0020003Y0020966D01*
X0019947Y0020882D01*
X0019887Y0020800D01*
X0019824Y0020721D01*
X0019758Y0020644D01*
X0019689Y0020571D01*
X0019617Y0020499D01*
X0019543Y0020431D01*
X0019465Y0020366D01*
X0019386Y0020304D01*
X0019303Y0020245D01*
X0019219Y0020189D01*
X0019132Y0020137D01*
X0019044Y0020088D01*
X0018954Y0020043D01*
X0018861Y0020001D01*
X0018768Y0019963D01*
X0018673Y0019929D01*
X0018576Y0019898D01*
X0018479Y0019872D01*
X0018380Y0019849D01*
X0018281Y0019830D01*
X0018181Y0019815D01*
X0018080Y0019804D01*
X0017979Y0019797D01*
X0017878Y0019794D01*
X0017777Y0019795D01*
X0017676Y0019800D01*
X0017575Y0019809D01*
X0017475Y0019822D01*
X0017375Y0019839D01*
X0017277Y0019860D01*
X0017178Y0019884D01*
X0017081Y0019913D01*
X0016986Y0019945D01*
X0016891Y0019982D01*
X0016798Y0020021D01*
X0016707Y0020065D01*
X0016618Y0020112D01*
X0016530Y0020163D01*
X0016444Y0020217D01*
X0016361Y0020274D01*
X0016280Y0020334D01*
X0016202Y0020398D01*
X0016126Y0020465D01*
X0016052Y0020535D01*
X0015982Y0020607D01*
X0015915Y0020682D01*
X0015850Y0020760D01*
X0015789Y0020841D01*
X0015731Y0020923D01*
X0015676Y0021008D01*
X0015624Y0021095D01*
X0015576Y0021184D01*
X0015532Y0021275D01*
X0015491Y0021368D01*
X0015454Y0021462D01*
X0015421Y0021557D01*
X0015391Y0021654D01*
X0015366Y0021752D01*
X0015344Y0021851D01*
X0015326Y0021950D01*
X0015312Y0022050D01*
X0015302Y0022151D01*
X0015296Y0022252D01*
X0015294Y0022353D01*
D338*
X0311835Y0096057D03*
D339*
X0303370Y0097238D02*
X0293331Y0097238D01*
X0293331Y0102400D02*
X0293334Y0103103D01*
X0293331Y0108262D02*
X0305929Y0108262D01*
X0305929Y0103098D02*
X0305929Y0102391D01*
D340*
X0313016Y0149207D02*
X0265772Y0149207D01*
X0265772Y0164561D01*
X0265772Y0181096D02*
X0265772Y0196057D01*
X0313016Y0196057D02*
X0313016Y0181096D01*
X0313016Y0164561D02*
X0313016Y0149207D01*
X0191756Y0143301D02*
X0191756Y0103144D01*
X0171284Y0103144D01*
X0171284Y0143301D01*
X0191756Y0143301D01*
D341*
X0175122Y0139758D03*
D342*
X0175203Y0144982D02*
X0174435Y0145749D01*
X0174435Y0148818D01*
X0175203Y0149585D01*
X0176737Y0149585D01*
X0177505Y0148818D01*
X0179039Y0148051D02*
X0180574Y0149585D01*
X0180574Y0144982D01*
X0179039Y0144982D02*
X0182109Y0144982D01*
X0177505Y0145749D02*
X0176737Y0144982D01*
X0175203Y0144982D01*
X0172901Y0144982D02*
X0171366Y0144982D01*
X0172133Y0144982D02*
X0172133Y0149585D01*
X0171366Y0149585D02*
X0172901Y0149585D01*
X0147661Y0125684D02*
X0147661Y0124917D01*
X0146894Y0124150D01*
X0147661Y0123382D01*
X0147661Y0122615D01*
X0146894Y0121848D01*
X0145359Y0121848D01*
X0144592Y0122615D01*
X0143057Y0122615D02*
X0142290Y0121848D01*
X0140755Y0121848D01*
X0139988Y0122615D01*
X0139988Y0125684D01*
X0140755Y0126452D01*
X0142290Y0126452D01*
X0143057Y0125684D01*
X0144592Y0125684D02*
X0145359Y0126452D01*
X0146894Y0126452D01*
X0147661Y0125684D01*
X0146894Y0124150D02*
X0146126Y0124150D01*
X0146894Y0119759D02*
X0144592Y0117457D01*
X0147661Y0117457D01*
X0146894Y0115155D02*
X0146894Y0119759D01*
X0143057Y0118991D02*
X0142290Y0119759D01*
X0140755Y0119759D01*
X0139988Y0118991D01*
X0139988Y0115922D01*
X0140755Y0115155D01*
X0142290Y0115155D01*
X0143057Y0115922D01*
X0213610Y0108755D02*
X0213610Y0105686D01*
X0214377Y0104919D01*
X0215912Y0104919D01*
X0216679Y0105686D01*
X0218214Y0104919D02*
X0221283Y0107988D01*
X0221283Y0108755D01*
X0220516Y0109522D01*
X0218981Y0109522D01*
X0218214Y0108755D01*
X0216679Y0108755D02*
X0215912Y0109522D01*
X0214377Y0109522D01*
X0213610Y0108755D01*
X0218214Y0104919D02*
X0221283Y0104919D01*
X0220142Y0102830D02*
X0220142Y0098226D01*
X0218607Y0098226D02*
X0221677Y0098226D01*
X0218607Y0101295D02*
X0220142Y0102830D01*
X0217073Y0102062D02*
X0216305Y0102830D01*
X0214771Y0102830D01*
X0214003Y0102062D01*
X0214003Y0098993D01*
X0214771Y0098226D01*
X0216305Y0098226D01*
X0217073Y0098993D01*
X0217561Y0117517D02*
X0214491Y0117517D01*
X0213724Y0118284D01*
X0213724Y0119819D01*
X0214491Y0120586D01*
X0214491Y0122121D02*
X0215259Y0122121D01*
X0216026Y0122888D01*
X0216026Y0125190D01*
X0217561Y0125190D02*
X0214491Y0125190D01*
X0213724Y0124423D01*
X0213724Y0122888D01*
X0214491Y0122121D01*
X0217561Y0122121D02*
X0218328Y0122888D01*
X0218328Y0124423D01*
X0217561Y0125190D01*
X0223173Y0124423D02*
X0223173Y0122888D01*
X0223940Y0122121D01*
X0224707Y0122121D01*
X0225475Y0122888D01*
X0225475Y0124423D01*
X0226242Y0125190D01*
X0227009Y0125190D01*
X0227777Y0124423D01*
X0227777Y0122888D01*
X0227009Y0122121D01*
X0226242Y0122121D01*
X0225475Y0122888D01*
X0225475Y0124423D02*
X0224707Y0125190D01*
X0223940Y0125190D01*
X0223173Y0124423D01*
X0223940Y0120586D02*
X0223173Y0119819D01*
X0223173Y0118284D01*
X0223940Y0117517D01*
X0227009Y0117517D01*
X0227777Y0118284D01*
X0227777Y0119819D01*
X0227009Y0120586D01*
X0232622Y0119819D02*
X0232622Y0118284D01*
X0233389Y0117517D01*
X0236458Y0117517D01*
X0237226Y0118284D01*
X0237226Y0119819D01*
X0236458Y0120586D01*
X0236458Y0122121D02*
X0237226Y0122121D01*
X0236458Y0122121D02*
X0233389Y0125190D01*
X0232622Y0125190D01*
X0232622Y0122121D01*
X0233389Y0120586D02*
X0232622Y0119819D01*
X0218328Y0119819D02*
X0218328Y0118284D01*
X0217561Y0117517D01*
X0218328Y0119819D02*
X0217561Y0120586D01*
X0251405Y0123029D02*
X0254474Y0123029D01*
X0256009Y0123029D02*
X0259078Y0123029D01*
X0257544Y0123029D02*
X0257544Y0127633D01*
X0256009Y0126098D01*
X0251405Y0127633D02*
X0251405Y0123029D01*
X0279767Y0123289D02*
X0279767Y0126359D01*
X0279767Y0124824D02*
X0284371Y0124824D01*
X0284371Y0121755D02*
X0282837Y0120220D01*
X0282837Y0120987D02*
X0282837Y0118685D01*
X0284371Y0118685D02*
X0279767Y0118685D01*
X0279767Y0120987D01*
X0280535Y0121755D01*
X0282069Y0121755D01*
X0282837Y0120987D01*
X0284371Y0127893D02*
X0284371Y0130963D01*
X0284371Y0129428D02*
X0279767Y0129428D01*
X0281302Y0127893D01*
M02*
