G75*
%MOIN*%
%OFA0B0*%
%FSLAX25Y25*%
%IPPOS*%
%LPD*%
%AMOC8*
5,1,8,0,0,1.08239X$1,22.5*
%
%ADD10C,0.00600*%
%ADD11R,0.05118X0.09843*%
%ADD12C,0.05846*%
%ADD13R,0.05512X0.03937*%
%ADD14R,0.04724X0.03543*%
%ADD15C,0.03937*%
%ADD16R,0.06299X0.03937*%
%ADD17R,0.05906X0.01575*%
%ADD18C,0.06600*%
%ADD19C,0.13500*%
%ADD20R,0.01969X0.02362*%
%ADD21R,0.03150X0.03937*%
%ADD22R,0.02362X0.01969*%
%ADD23R,0.10630X0.06299*%
%ADD24C,0.01575*%
%ADD25C,0.03150*%
%ADD26C,0.00787*%
%ADD27C,0.02559*%
D10*
X0081473Y0192026D02*
X0080639Y0192860D01*
X0080639Y0196197D01*
X0081473Y0197031D01*
X0083141Y0197031D01*
X0083975Y0196197D01*
X0083975Y0194529D02*
X0082307Y0194529D01*
X0083975Y0194529D02*
X0083975Y0192860D01*
X0083141Y0192026D01*
X0081473Y0192026D01*
X0085795Y0192026D02*
X0085795Y0195363D01*
X0087463Y0197031D01*
X0089131Y0195363D01*
X0089131Y0192026D01*
X0089131Y0194529D02*
X0085795Y0194529D01*
X0090952Y0197031D02*
X0094288Y0197031D01*
X0092620Y0197031D02*
X0092620Y0192026D01*
X0096108Y0192026D02*
X0099444Y0192026D01*
X0101264Y0192026D02*
X0102933Y0193694D01*
X0104601Y0192026D01*
X0104601Y0197031D01*
X0106421Y0197031D02*
X0106421Y0196197D01*
X0108089Y0194529D01*
X0108089Y0192026D01*
X0108089Y0194529D02*
X0109757Y0196197D01*
X0109757Y0197031D01*
X0111577Y0192860D02*
X0112411Y0192860D01*
X0112411Y0192026D01*
X0111577Y0192026D01*
X0111577Y0192860D01*
X0114155Y0195363D02*
X0115824Y0192026D01*
X0117492Y0195363D01*
X0119312Y0195363D02*
X0120980Y0197031D01*
X0120980Y0192026D01*
X0119312Y0192026D02*
X0122648Y0192026D01*
X0124468Y0192026D02*
X0125302Y0192026D01*
X0125302Y0192860D01*
X0124468Y0192860D01*
X0124468Y0192026D01*
X0127046Y0192860D02*
X0130383Y0196197D01*
X0130383Y0192860D01*
X0129549Y0192026D01*
X0127881Y0192026D01*
X0127046Y0192860D01*
X0127046Y0196197D01*
X0127881Y0197031D01*
X0129549Y0197031D01*
X0130383Y0196197D01*
X0101264Y0197031D02*
X0101264Y0192026D01*
X0097776Y0194529D02*
X0096108Y0194529D01*
X0096108Y0197031D02*
X0096108Y0192026D01*
X0096108Y0197031D02*
X0099444Y0197031D01*
D11*
X0032898Y0120900D03*
X0015181Y0120900D03*
X0015181Y0084600D03*
X0032898Y0084600D03*
D12*
X0022777Y0012550D03*
X0040493Y0012550D03*
D13*
X0044906Y0074404D03*
X0044906Y0082278D03*
X0241756Y0119285D03*
X0241756Y0127159D03*
D14*
X0294118Y0105604D03*
X0294118Y0099896D03*
X0305142Y0099896D03*
X0305142Y0105604D03*
D15*
X0226796Y0194482D03*
X0013803Y0192514D03*
X0309079Y0012593D03*
D16*
X0021874Y0158852D03*
X0012819Y0165742D03*
X0021874Y0172632D03*
D17*
X0167248Y0139856D03*
X0167248Y0137297D03*
X0167248Y0134738D03*
X0167248Y0132179D03*
X0167248Y0129620D03*
X0167248Y0127061D03*
X0167248Y0124502D03*
X0167248Y0121943D03*
X0167248Y0119384D03*
X0167248Y0116825D03*
X0167248Y0114266D03*
X0167248Y0111707D03*
X0167248Y0109148D03*
X0167248Y0106589D03*
X0195792Y0106589D03*
X0195792Y0109148D03*
X0195792Y0111707D03*
X0195792Y0114266D03*
X0195792Y0116825D03*
X0195792Y0119384D03*
X0195792Y0121943D03*
X0195792Y0124502D03*
X0195792Y0127061D03*
X0195792Y0129620D03*
X0195792Y0132179D03*
X0195792Y0134738D03*
X0195792Y0137297D03*
X0195792Y0139856D03*
D18*
X0284473Y0154399D03*
X0294315Y0154399D03*
X0294315Y0162199D03*
X0284473Y0162199D03*
D19*
X0265694Y0172899D03*
X0313094Y0172899D03*
D20*
X0209866Y0107081D03*
X0205929Y0107081D03*
X0206323Y0100388D03*
X0210260Y0100388D03*
X0153961Y0116923D03*
X0150024Y0116923D03*
X0150418Y0124404D03*
X0154355Y0124404D03*
D21*
X0252189Y0119285D03*
X0258095Y0119285D03*
D22*
X0229945Y0119285D03*
X0229945Y0123222D03*
X0220496Y0123222D03*
X0220496Y0119285D03*
D23*
X0272071Y0119285D03*
X0272071Y0130309D03*
D24*
X0272071Y0141923D01*
X0284473Y0154325D01*
X0284473Y0154399D01*
X0284473Y0162199D02*
X0276992Y0162199D01*
X0242347Y0127553D01*
X0241756Y0127159D01*
X0238213Y0123616D01*
X0237426Y0123616D01*
X0237426Y0123026D01*
X0237426Y0123616D02*
X0230536Y0123616D01*
X0229945Y0123222D01*
X0220496Y0123222D01*
X0219906Y0123222D01*
X0201008Y0123222D01*
X0200418Y0123222D01*
X0200418Y0131096D01*
X0199433Y0132081D01*
X0196481Y0132081D01*
X0195792Y0132179D01*
X0195103Y0132081D01*
X0192150Y0132081D01*
X0184670Y0124600D01*
X0171874Y0124600D01*
X0171874Y0125191D01*
X0171874Y0141333D01*
X0149827Y0163380D01*
X0075614Y0163380D01*
X0075024Y0163774D01*
X0067150Y0163774D01*
X0064788Y0161411D01*
X0055929Y0161411D01*
X0055437Y0161904D01*
X0057307Y0163774D01*
X0057898Y0163774D01*
X0055437Y0161904D02*
X0015181Y0121648D01*
X0015181Y0120900D01*
X0015181Y0120860D01*
X0015181Y0084640D01*
X0015181Y0084600D01*
X0015772Y0087789D01*
X0035063Y0068498D01*
X0035063Y0027947D01*
X0022859Y0015742D01*
X0022859Y0012593D01*
X0022777Y0012550D01*
X0044906Y0074404D02*
X0107307Y0074404D01*
X0124138Y0091234D01*
X0124630Y0090742D01*
X0147662Y0067711D01*
X0185260Y0067711D01*
X0185851Y0067120D01*
X0185851Y0105309D01*
X0192150Y0111608D01*
X0195693Y0111608D01*
X0195792Y0111707D01*
X0195890Y0114167D02*
X0195792Y0114266D01*
X0195890Y0114167D02*
X0200418Y0114167D01*
X0200418Y0114758D01*
X0200418Y0120860D01*
X0199926Y0121352D01*
X0200418Y0121845D01*
X0200418Y0123222D01*
X0199433Y0121845D02*
X0199926Y0121352D01*
X0199433Y0121845D02*
X0195890Y0121845D01*
X0195792Y0121943D01*
X0195693Y0119482D02*
X0195792Y0119384D01*
X0195693Y0119482D02*
X0190378Y0119482D01*
X0200418Y0114167D02*
X0203370Y0114167D01*
X0209473Y0108065D01*
X0209473Y0107671D01*
X0209866Y0107081D01*
X0209866Y0100782D01*
X0210260Y0100388D01*
X0216953Y0119482D02*
X0219906Y0119482D01*
X0220496Y0119285D01*
X0229945Y0119285D01*
X0230536Y0119285D01*
X0241166Y0119285D01*
X0241756Y0119285D01*
X0252189Y0119285D01*
X0258095Y0119285D02*
X0272071Y0119285D01*
X0300221Y0102356D02*
X0303370Y0105506D01*
X0305142Y0105506D01*
X0305142Y0105604D01*
X0195890Y0132278D02*
X0195792Y0132179D01*
X0195890Y0132278D02*
X0195890Y0134640D01*
X0195792Y0134738D01*
X0171874Y0124600D02*
X0167937Y0124600D01*
X0167248Y0124502D01*
X0167150Y0124404D01*
X0154945Y0124404D01*
X0154355Y0124404D01*
X0153961Y0124010D01*
X0153961Y0116923D01*
X0153961Y0116333D01*
X0142544Y0104915D01*
X0142544Y0095860D01*
X0149237Y0089167D01*
X0149237Y0070860D01*
X0124138Y0091234D02*
X0149433Y0116530D01*
X0150024Y0116923D01*
X0150024Y0124010D01*
X0150418Y0124404D01*
X0150811Y0124994D01*
X0150811Y0125388D01*
X0157504Y0132081D01*
X0167150Y0132081D01*
X0167248Y0132179D01*
D25*
X0190378Y0119482D03*
X0216953Y0119482D03*
X0237426Y0123026D03*
X0300221Y0102356D03*
X0185851Y0067120D03*
X0149237Y0070860D03*
X0075024Y0163774D03*
X0057898Y0163774D03*
D26*
X0052583Y0154915D02*
X0052583Y0141923D01*
X0033095Y0122435D01*
X0033095Y0121254D01*
X0032898Y0120900D01*
X0032898Y0120860D01*
X0032898Y0084837D01*
X0032898Y0084600D01*
X0032898Y0084443D01*
X0035063Y0082278D01*
X0044906Y0082278D01*
X0052780Y0129719D02*
X0138213Y0129719D01*
X0133095Y0134837D02*
X0167150Y0134837D01*
X0167248Y0134738D01*
X0167150Y0139758D02*
X0167248Y0139856D01*
X0167150Y0139758D02*
X0053961Y0139758D01*
X0052780Y0138577D01*
X0145496Y0097041D02*
X0166756Y0097041D01*
X0171481Y0098222D02*
X0161244Y0087986D01*
X0166756Y0089955D02*
X0166756Y0084837D01*
X0171481Y0098222D02*
X0171481Y0104522D01*
X0171284Y0104522D01*
X0159866Y0104522D01*
X0171481Y0104522D02*
X0171481Y0105703D01*
X0192740Y0126963D01*
X0195693Y0126963D01*
X0195792Y0127061D01*
X0195792Y0109148D02*
X0195496Y0109049D01*
X0192740Y0109049D01*
X0191559Y0107868D01*
X0191559Y0105309D01*
X0200418Y0096451D01*
X0259473Y0096451D01*
X0294315Y0131293D01*
X0294315Y0154325D01*
X0294315Y0154399D01*
X0289788Y0157671D02*
X0294315Y0162199D01*
X0289788Y0157671D02*
X0289788Y0137789D01*
X0277977Y0125978D01*
X0259473Y0125978D01*
X0255339Y0121845D01*
X0255339Y0117120D01*
X0236244Y0098026D01*
X0208685Y0098026D01*
X0206520Y0100191D01*
X0206323Y0100388D01*
X0201992Y0100388D01*
X0195890Y0106490D01*
X0195792Y0106589D01*
X0195890Y0109049D02*
X0195792Y0109148D01*
X0195890Y0109049D02*
X0198843Y0109049D01*
X0200811Y0107081D01*
X0205929Y0107081D01*
X0167248Y0114266D02*
X0167150Y0114364D01*
X0164197Y0114364D01*
X0157111Y0121451D01*
X0162229Y0129128D02*
X0162622Y0129522D01*
X0167150Y0129522D01*
X0167248Y0129620D01*
X0284276Y0105703D02*
X0294118Y0105703D01*
X0294118Y0105604D01*
X0294118Y0099994D02*
X0284473Y0099994D01*
X0286638Y0091530D02*
X0293134Y0091530D01*
X0301402Y0099797D01*
X0305142Y0099797D01*
X0305142Y0099896D01*
X0294118Y0099994D02*
X0294118Y0099896D01*
D27*
X0284473Y0099994D03*
X0284276Y0105703D03*
X0286638Y0091530D03*
X0166756Y0089955D03*
X0161244Y0087986D03*
X0166756Y0084837D03*
X0166756Y0097041D03*
X0159866Y0104522D03*
X0145496Y0097041D03*
X0157111Y0121451D03*
X0162229Y0129128D03*
X0138213Y0129719D03*
X0133095Y0134837D03*
X0052780Y0138577D03*
X0052780Y0129719D03*
X0052583Y0154915D03*
M02*
