%
M48
M72
T01C0.01400
T02C0.01575
T03C0.02362
T04C0.02400
T05C0.03600
T06C0.03898
T07C0.05118
T08C0.09000
T09C0.12000
%
T01
X157996Y102652
X144217Y106589
X139296Y111510
X157012Y114463
X172760Y107573
X171284Y93301
X171776Y88872
X177189Y85427
X184571Y92809
X166363Y84443
X158981Y129719
X157996Y139069
X120595Y150880
X52189Y155309
X50221Y149404
X52189Y143990
X52189Y140053
X52189Y136116
X52189Y129226
X284473Y105604
X284473Y100191
X287426Y90841
T02
X299237Y100683
X216559Y119384
X190477Y119384
X181618Y70663
X61274Y75332
X51697Y159246
X74827Y164167
T03
X63134Y164955
X63134Y119285
T04
X291680Y94700
X307580Y110800
T05
X294315Y154399
X284473Y154399
X284473Y162199
X294315Y162199
T06
X22777Y12550
X40493Y12550
T07
X45416Y22353
X17853Y22353
T08
X265694Y172899
X313094Y172899
T09
X52347Y188577
X52347Y95663
M30
