%
M48
M72
T01C0.00400
T02C0.01575
T03C0.02362
T04C0.02400
T05C0.02756
T06C0.03600
T07C0.03898
T08C0.05118
T09C0.09000
T10C0.12000
%
T01
X124827Y72829
X103174Y86215
X142544Y103931
X151992Y114561
X171677Y105506
X206323Y104719
X207898Y109049
X169315Y77159
X163016Y74404
X153961Y131096
X144512Y136608
X129945Y149207
X101205Y136608
X84670Y149207
X84670Y151175
X90575Y151175
X53567Y146057
X53567Y144089
X49630Y146057
X33095Y135033
X53567Y131096
X283095Y105900
X290575Y103537
X297662Y99600
T02
X300418Y101569
X243725Y123222
X217347Y119285
X190969Y119285
X52780Y159049
T03
X63134Y164955
X63134Y119285
T04
X291680Y94700
X307580Y110800
T05
X184335Y70368
X179335Y70368
X174335Y70368
X169335Y70368
X164335Y70368
X159335Y70368
X154335Y70368
X149335Y70368
X144335Y70368
X139335Y70368
X139335Y65368
X144335Y65368
X149335Y65368
X154335Y65368
X159335Y65368
X164335Y65368
X169335Y65368
X174335Y65368
X179335Y65368
X184335Y65368
X119079Y65467
X114079Y65467
X109079Y65467
X104079Y65467
X99079Y65467
X99079Y70467
X104079Y70467
X109079Y70467
X114079Y70467
X119079Y70467
T06
X284473Y154399
X294315Y154399
X294315Y162199
X284473Y162199
T07
X22777Y12550
X40493Y12550
T08
X45416Y22353
X17853Y22353
T09
X265694Y172899
X313094Y172899
T10
X52347Y188577
X52347Y95663
M30
