%
M48
M72
T01C0.00984
T02C0.01575
T03C0.02362
T04C0.02400
T05C0.03600
T06C0.03898
T07C0.05118
T08C0.09000
T09C0.12000
%
T01
X145496Y97041
X159866Y104522
X166756Y97041
X166756Y89955
X161244Y87986
X166756Y84837
X157111Y121451
X162229Y129128
X138213Y129719
X133095Y134837
X52780Y138577
X52780Y129719
X52583Y154915
X284276Y105703
X284473Y99994
X286638Y91530
T02
X300221Y102356
X237426Y123026
X216953Y119482
X190378Y119482
X149237Y70860
X185851Y67120
X75024Y163774
X57898Y163774
T03
X63134Y164955
X63134Y119285
T04
X291680Y94700
X307580Y110800
T05
X294315Y154399
X284473Y154399
X284473Y162199
X294315Y162199
T06
X22777Y12550
X40493Y12550
T07
X45416Y22353
X17853Y22353
T08
X265694Y172899
X313094Y172899
T09
X52347Y188577
X52347Y95663
M30
