G75*
%MOIN*%
%OFA0B0*%
%FSLAX25Y25*%
%IPPOS*%
%LPD*%
%AMOC8*
5,1,8,0,0,1.08239X$1,22.5*
%
%ADD10R,0.07087X0.03150*%
%ADD11R,0.10236X0.01181*%
%ADD12R,0.08661X0.02362*%
%ADD13R,0.03937X0.05512*%
%ADD14R,0.02992X0.08661*%
D10*
X0069040Y0116530D03*
X0069040Y0167711D03*
D11*
X0078095Y0160821D03*
X0078095Y0158852D03*
X0078095Y0156884D03*
X0078095Y0154915D03*
X0078095Y0152947D03*
X0078095Y0150978D03*
X0078095Y0149010D03*
X0078095Y0147041D03*
X0078095Y0145073D03*
X0078095Y0143104D03*
X0078095Y0141136D03*
X0078095Y0139167D03*
X0078095Y0137199D03*
X0078095Y0135230D03*
X0078095Y0133262D03*
X0078095Y0131293D03*
X0078095Y0129325D03*
X0078095Y0127356D03*
X0078095Y0125388D03*
X0078095Y0123419D03*
X0059985Y0123419D03*
X0059985Y0125388D03*
X0059985Y0127356D03*
X0059985Y0129325D03*
X0059985Y0131293D03*
X0059985Y0133262D03*
X0059985Y0135230D03*
X0059985Y0137199D03*
X0059985Y0139167D03*
X0059985Y0141136D03*
X0059985Y0143104D03*
X0059985Y0145073D03*
X0059985Y0147041D03*
X0059985Y0149010D03*
X0059985Y0150978D03*
X0059985Y0152947D03*
X0059985Y0154915D03*
X0059985Y0156884D03*
X0059985Y0158852D03*
X0059985Y0160821D03*
D12*
X0257544Y0107907D03*
X0257544Y0102907D03*
X0257544Y0097907D03*
X0257544Y0092907D03*
X0257544Y0087907D03*
X0257544Y0082907D03*
X0257544Y0077907D03*
X0278016Y0077907D03*
X0278016Y0082907D03*
X0278016Y0087907D03*
X0278016Y0092907D03*
X0278016Y0097907D03*
X0278016Y0102907D03*
X0278016Y0107907D03*
D13*
X0244197Y0107632D03*
X0236323Y0107632D03*
X0236284Y0098026D03*
X0244158Y0098026D03*
X0244158Y0089600D03*
X0236284Y0089600D03*
D14*
X0136835Y0063085D03*
X0141835Y0063085D03*
X0146835Y0063085D03*
X0151835Y0063085D03*
X0156835Y0063085D03*
X0161835Y0063085D03*
X0166835Y0063085D03*
X0171835Y0063085D03*
X0176835Y0063085D03*
X0181835Y0063085D03*
X0181835Y0077652D03*
X0176835Y0077652D03*
X0171835Y0077652D03*
X0166835Y0077652D03*
X0161835Y0077652D03*
X0156835Y0077652D03*
X0151835Y0077652D03*
X0146835Y0077652D03*
X0141835Y0077652D03*
X0136835Y0077652D03*
M02*
