G75*
%MOIN*%
%OFA0B0*%
%FSLAX25Y25*%
%IPPOS*%
%LPD*%
%AMOC8*
5,1,8,0,0,1.08239X$1,22.5*
%
%ADD10R,0.05918X0.10643*%
%ADD11C,0.03162*%
%ADD12C,0.12800*%
%ADD13C,0.06698*%
%ADD14C,0.05918*%
%ADD15R,0.06312X0.04737*%
%ADD16R,0.05524X0.04343*%
%ADD17C,0.03200*%
%ADD18C,0.00500*%
%ADD19R,0.07099X0.04737*%
%ADD20R,0.06706X0.02375*%
%ADD21C,0.07400*%
%ADD22C,0.13800*%
%ADD23R,0.02769X0.03162*%
%ADD24R,0.03950X0.04737*%
%ADD25R,0.03162X0.02769*%
%ADD26R,0.11430X0.07099*%
%ADD27C,0.03975*%
%ADD28C,0.03800*%
D10*
X0015181Y0084600D03*
X0032898Y0084600D03*
X0032898Y0120900D03*
X0015181Y0120900D03*
D11*
X0063134Y0119285D03*
X0063134Y0164955D03*
D12*
X0052347Y0188577D03*
X0052347Y0095663D03*
D13*
X0022777Y0012550D03*
X0040493Y0012550D03*
D14*
X0045416Y0022353D03*
X0017853Y0022353D03*
D15*
X0044906Y0074404D03*
X0044906Y0082278D03*
X0241756Y0119285D03*
X0241756Y0127159D03*
D16*
X0294118Y0105604D03*
X0294118Y0099896D03*
X0305142Y0099896D03*
X0305142Y0105604D03*
D17*
X0307580Y0110800D03*
X0291680Y0094700D03*
D18*
X0308395Y0016470D02*
X0307733Y0016292D01*
X0307111Y0016002D01*
X0306548Y0015608D01*
X0306063Y0015123D01*
X0305670Y0014561D01*
X0305379Y0013939D01*
X0305202Y0013276D01*
X0305142Y0012593D01*
X0305202Y0011909D01*
X0305379Y0011246D01*
X0305670Y0010624D01*
X0306063Y0010062D01*
X0306548Y0009577D01*
X0307111Y0009183D01*
X0307733Y0008893D01*
X0308395Y0008715D01*
X0309079Y0008656D01*
X0309763Y0008715D01*
X0310426Y0008893D01*
X0311048Y0009183D01*
X0311610Y0009577D01*
X0312095Y0010062D01*
X0312489Y0010624D01*
X0312779Y0011246D01*
X0312956Y0011909D01*
X0313016Y0012593D01*
X0312956Y0013276D01*
X0312779Y0013939D01*
X0312489Y0014561D01*
X0312095Y0015123D01*
X0311610Y0015608D01*
X0311048Y0016002D01*
X0310426Y0016292D01*
X0309763Y0016470D01*
X0309079Y0016530D01*
X0308395Y0016470D01*
X0307611Y0016235D02*
X0310547Y0016235D01*
X0311426Y0015737D02*
X0306732Y0015737D01*
X0306178Y0015238D02*
X0311980Y0015238D01*
X0312363Y0014740D02*
X0305795Y0014740D01*
X0305520Y0014241D02*
X0312638Y0014241D01*
X0312831Y0013743D02*
X0305327Y0013743D01*
X0305199Y0013244D02*
X0312959Y0013244D01*
X0313003Y0012746D02*
X0305155Y0012746D01*
X0305172Y0012247D02*
X0312986Y0012247D01*
X0312913Y0011749D02*
X0305245Y0011749D01*
X0305378Y0011250D02*
X0312780Y0011250D01*
X0312548Y0010752D02*
X0305610Y0010752D01*
X0305929Y0010253D02*
X0312229Y0010253D01*
X0311788Y0009755D02*
X0306370Y0009755D01*
X0307006Y0009256D02*
X0311152Y0009256D01*
X0309921Y0008758D02*
X0308237Y0008758D01*
X0228142Y0190783D02*
X0228764Y0191073D01*
X0229326Y0191466D01*
X0229812Y0191952D01*
X0230205Y0192514D01*
X0230495Y0193136D01*
X0230673Y0193799D01*
X0230733Y0194482D01*
X0230673Y0195166D01*
X0230495Y0195829D01*
X0230205Y0196451D01*
X0229812Y0197013D01*
X0229326Y0197498D01*
X0228764Y0197892D01*
X0228142Y0198182D01*
X0227479Y0198359D01*
X0226796Y0198419D01*
X0226112Y0198359D01*
X0225449Y0198182D01*
X0224827Y0197892D01*
X0224265Y0197498D01*
X0223780Y0197013D01*
X0223386Y0196451D01*
X0223096Y0195829D01*
X0222918Y0195166D01*
X0222859Y0194482D01*
X0222918Y0193799D01*
X0223096Y0193136D01*
X0223386Y0192514D01*
X0223780Y0191952D01*
X0224265Y0191466D01*
X0224827Y0191073D01*
X0225449Y0190783D01*
X0226112Y0190605D01*
X0226796Y0190545D01*
X0227479Y0190605D01*
X0228142Y0190783D01*
X0227887Y0190714D02*
X0225704Y0190714D01*
X0224627Y0191213D02*
X0228964Y0191213D01*
X0229571Y0191711D02*
X0224020Y0191711D01*
X0223599Y0192210D02*
X0229992Y0192210D01*
X0230296Y0192708D02*
X0223295Y0192708D01*
X0223077Y0193207D02*
X0230514Y0193207D01*
X0230648Y0193705D02*
X0222943Y0193705D01*
X0222883Y0194204D02*
X0230708Y0194204D01*
X0230713Y0194702D02*
X0222878Y0194702D01*
X0222928Y0195201D02*
X0230663Y0195201D01*
X0230530Y0195699D02*
X0223061Y0195699D01*
X0223268Y0196198D02*
X0230323Y0196198D01*
X0230033Y0196696D02*
X0223558Y0196696D01*
X0223962Y0197195D02*
X0229629Y0197195D01*
X0229047Y0197693D02*
X0224544Y0197693D01*
X0225487Y0198192D02*
X0228104Y0198192D01*
X0017740Y0192514D02*
X0017681Y0193197D01*
X0017503Y0193860D01*
X0017213Y0194482D01*
X0016819Y0195044D01*
X0016334Y0195530D01*
X0015772Y0195923D01*
X0015150Y0196213D01*
X0014487Y0196391D01*
X0013803Y0196451D01*
X0013120Y0196391D01*
X0012457Y0196213D01*
X0011835Y0195923D01*
X0011273Y0195530D01*
X0010788Y0195044D01*
X0010394Y0194482D01*
X0010104Y0193860D01*
X0009926Y0193197D01*
X0009866Y0192514D01*
X0009926Y0191830D01*
X0010104Y0191167D01*
X0010394Y0190545D01*
X0010788Y0189983D01*
X0011273Y0189498D01*
X0011835Y0189104D01*
X0012457Y0188814D01*
X0013120Y0188637D01*
X0013803Y0188577D01*
X0014487Y0188637D01*
X0015150Y0188814D01*
X0015772Y0189104D01*
X0016334Y0189498D01*
X0016819Y0189983D01*
X0017213Y0190545D01*
X0017503Y0191167D01*
X0017681Y0191830D01*
X0017740Y0192514D01*
X0017723Y0192708D02*
X0009883Y0192708D01*
X0009893Y0192210D02*
X0017714Y0192210D01*
X0017649Y0191711D02*
X0009958Y0191711D01*
X0010092Y0191213D02*
X0017515Y0191213D01*
X0017292Y0190714D02*
X0010315Y0190714D01*
X0010625Y0190216D02*
X0016982Y0190216D01*
X0016554Y0189717D02*
X0011053Y0189717D01*
X0011671Y0189219D02*
X0015936Y0189219D01*
X0014799Y0188720D02*
X0012808Y0188720D01*
X0009929Y0193207D02*
X0017678Y0193207D01*
X0017545Y0193705D02*
X0010062Y0193705D01*
X0010264Y0194204D02*
X0017343Y0194204D01*
X0017059Y0194702D02*
X0010548Y0194702D01*
X0010944Y0195201D02*
X0016663Y0195201D01*
X0016092Y0195699D02*
X0011515Y0195699D01*
X0012424Y0196198D02*
X0015183Y0196198D01*
D19*
X0021874Y0172632D03*
X0012819Y0165742D03*
X0021874Y0158852D03*
D20*
X0167248Y0139856D03*
X0167248Y0137297D03*
X0167248Y0134738D03*
X0167248Y0132179D03*
X0167248Y0129620D03*
X0167248Y0127061D03*
X0167248Y0124502D03*
X0167248Y0121943D03*
X0167248Y0119384D03*
X0167248Y0116825D03*
X0167248Y0114266D03*
X0167248Y0111707D03*
X0167248Y0109148D03*
X0167248Y0106589D03*
X0195792Y0106589D03*
X0195792Y0109148D03*
X0195792Y0111707D03*
X0195792Y0114266D03*
X0195792Y0116825D03*
X0195792Y0119384D03*
X0195792Y0121943D03*
X0195792Y0124502D03*
X0195792Y0127061D03*
X0195792Y0129620D03*
X0195792Y0132179D03*
X0195792Y0134738D03*
X0195792Y0137297D03*
X0195792Y0139856D03*
D21*
X0284473Y0154399D03*
X0294315Y0154399D03*
X0294315Y0162199D03*
X0284473Y0162199D03*
D22*
X0265694Y0172899D03*
X0313094Y0172899D03*
D23*
X0209866Y0107081D03*
X0205929Y0107081D03*
X0206323Y0100388D03*
X0210260Y0100388D03*
X0153961Y0116923D03*
X0150024Y0116923D03*
X0150418Y0124404D03*
X0154355Y0124404D03*
D24*
X0252189Y0119285D03*
X0258095Y0119285D03*
D25*
X0229945Y0119285D03*
X0229945Y0123222D03*
X0220496Y0123222D03*
X0220496Y0119285D03*
D26*
X0272071Y0119285D03*
X0272071Y0130309D03*
D27*
X0299237Y0100683D03*
X0216559Y0119384D03*
X0190477Y0119384D03*
X0181618Y0070663D03*
X0051697Y0159246D03*
X0074827Y0164167D03*
D28*
X0052189Y0155309D03*
X0050221Y0149404D03*
X0052189Y0143990D03*
X0052189Y0140053D03*
X0052189Y0136116D03*
X0052189Y0129226D03*
X0120595Y0150880D03*
X0157996Y0139069D03*
X0158981Y0129719D03*
X0157012Y0114463D03*
X0144217Y0106589D03*
X0139296Y0111510D03*
X0157996Y0102652D03*
X0172760Y0107573D03*
X0171284Y0093301D03*
X0171776Y0088872D03*
X0177189Y0085427D03*
X0184571Y0092809D03*
X0166363Y0084443D03*
X0284473Y0100191D03*
X0284473Y0105604D03*
X0287426Y0090841D03*
M02*
